<svg xmlns="http://www.w3.org/2000/svg" width="682.7" height="682.7" viewBox="0 0 512 512"><path d="M241 10.6a246.7 246.7 0 0 0-134.7 50.6 316.7 316.7 0 0 0-41.5 40.3c-29 37-45.7 75.8-52.4 122-2.6 17.8-2.4 49.6.4 68a246 246 0 0 0 207.7 207.7c19.8 3 51.2 3 71 0a246.2 246.2 0 0 0 207.7-207.7c3-19.8 3-51.2 0-71A245.5 245.5 0 0 0 291.5 12.9c-12.4-1.8-41-3.1-50.5-2.3m44.5 48a200.4 200.4 0 0 1 162.6 143.3c7.2 25.5 9.3 57.5 5.5 82.6A200.9 200.9 0 0 1 325 443.3c-22 8.2-44 12-69 12-19.8-.1-33.3-1.8-51-6.4A200.5 200.5 0 0 1 63.9 310.1c-5.2-18.5-7.2-33.3-7.2-54.1s2-35.6 7.2-54.1A200.7 200.7 0 0 1 221.4 59.4c20.1-3.6 43.8-3.8 64.1-.8"/><path d="M238.5 77.6A179.9 179.9 0 0 0 79.4 225.5a239.5 239.5 0 0 0 0 61A179.8 179.8 0 0 0 237 434.1c12.9 1.4 36.9.7 50-1.6a180 180 0 0 0 140.4-124.9c5.7-18.8 7-28.5 7-51.6s-1.3-32.8-7-51.6A179.8 179.8 0 0 0 287 79.5c-9.1-1.6-41.5-2.9-48.5-1.9M237 156v16h12v-32h22v32h9.8c18.5 0 28.5 3.2 37.1 11.8a38.8 38.8 0 0 1 1 54.6 46.4 46.4 0 0 1-20.8 11.7c-1.5 0 .1.8 3.9 1.8a45.2 45.2 0 0 1 30.3 24.8c3 6.4 3.2 7.4 3.2 18.3 0 10.8-.2 11.9-3.1 18a45 45 0 0 1-28.9 24.5c-3.9 1-10.5 1.5-19.2 1.5H271v33h-22v-33h-12v33h-22v-33h-39v-21h21V193h-21v-21h39v-32h22z"/><path d="m236.2 219.7.3 20.8H255c17.9 0 18.6-.1 23-2.5 2.4-1.4 5.8-4.5 7.5-6.8 2.7-3.9 3-5.2 3-11.7s-.3-7.8-3-11.6c-1.6-2.3-5-5.3-7.4-6.6-4.2-2.2-5.5-2.3-23.3-2.3H236zM236 288v24h17.8c19.7 0 23.3-.6 29.4-5.3a23.8 23.8 0 0 0-4.7-40.3c-4.7-2.2-6.2-2.4-23.7-2.4H236z"/></svg>