<svg width="204" height="180" viewBox="0 0 204 180" fill="none" xmlns="http://www.w3.org/2000/svg">
<path d="M44.2197 12.1162C67.6078 29.7119 92.7644 65.3886 102.001 84.5349C111.238 65.3901 136.393 29.7116 159.781 12.1162C176.657 -0.580136 204 -10.4038 204 20.8557C204 27.0987 200.428 73.2999 198.333 80.8004C191.052 106.878 164.517 113.529 140.915 109.503C182.172 116.54 192.667 139.848 170.001 163.156C126.954 207.423 108.13 152.05 103.304 137.861C102.42 135.26 102.006 134.043 102 135.078C101.994 134.043 101.58 135.26 100.696 137.861C95.8724 152.05 77.0486 207.425 33.9989 163.156C11.3325 139.848 21.8275 116.539 63.0852 109.503C39.4819 113.529 12.9472 106.878 5.66659 80.8004C3.57167 73.2992 0 27.098 0 20.8557C0 -10.4038 27.3436 -0.580136 44.2185 12.1162H44.2197Z" fill="black"/>
</svg>
