<svg xmlns="http://www.w3.org/2000/svg" width="206" height="206" fill="none" viewBox="0 0 206 206"><path fill="#000" d="M15 102.8A88.3 88.3 0 0 1 146.3 26l7-12.8c-14.4-8-31-12.8-48.7-13.1H103A103.1 103.1 0 0 0 0 102v1c0 29.5 12.5 56.1 32.4 74.9l10.2-11a88 88 0 0 1-27.6-64m159.8-73.7-10 10.7a88.3 88.3 0 0 1-104 140.4l-7.2 13A103 103 0 0 0 174.8 29.2m-158 73.6a86.1 86.1 0 0 0 27 62.7l10.2-11a71.2 71.2 0 0 1 49.2-123 70.8 70.8 0 0 1 35 9.2l7.2-13.1a86.4 86.4 0 0 0-128.5 75.3m157.6 0c0 39.3-32 71.3-71.3 71.3a71 71 0 0 1-34-8.6l-7.4 13a85.9 85.9 0 0 0 41.4 10.6 86.4 86.4 0 0 0 60.4-148l-10.2 11c13 13 21.1 30.8 21.1 50.6m-16.7 0a54.7 54.7 0 0 1-54.6 54.7 54.3 54.3 0 0 1-25.8-6.5L70 164a69.6 69.6 0 0 0 82-110.4l-10 10.8a54.6 54.6 0 0 1 15.7 38.4m-124.1 0c0 19.8 8.3 37.7 21.6 50.3l10-10.9a54.5 54.5 0 0 1 37.9-94 54.2 54.2 0 0 1 27 7.2l7-13a69.6 69.6 0 0 0-103.6 60.5m107.6 0c0 21-17 38-38 38a37.9 37.9 0 0 1-17.7-4.3l-7.2 12.7a52.5 52.5 0 0 0 24.9 6.3 52.8 52.8 0 0 0 37.5-89.7l-10 10.7a38 38 0 0 1 10.5 26.2m-90.8 0c0 15 6.2 28.4 16.2 38l10-10.7v.1a38 38 0 0 1 26.5-65.4 37.7 37.7 0 0 1 19 5.1l7.1-12.9a52.3 52.3 0 0 0-26-6.9c-29.1 0-52.8 23.7-52.8 52.7m57.4 0a4.6 4.6 0 0 1-9.3 0 4.6 4.6 0 0 1 4.7-4.6 4.6 4.6 0 0 1 4.6 4.6m-33.9 0a29.2 29.2 0 1 1 58.5 0 29.2 29.2 0 0 1-58.5 0m1.3 0a28 28 0 1 0 56 0 28 28 0 0 0-56 0"/></svg>