<svg width="206" height="206" viewBox="0 0 206 206" fill="none" xmlns="http://www.w3.org/2000/svg">
<path d="M14.9539 102.845C14.9539 54.1837 54.523 14.6066 103.154 14.6066C118.809 14.6066 133.515 18.7274 146.287 25.9174L153.269 13.1437C138.851 5.02741 122.29 0.288458 104.638 0H102.969C46.4281 0.103021 0.618 45.572 0 102.021V103.01C0.0618 132.533 12.5033 159.109 32.4004 177.878L42.5759 166.877C25.5826 150.786 14.9539 128.021 14.9539 102.845ZM174.774 29.2141L164.866 39.8647C181.2 55.893 191.376 78.1849 191.376 102.845C191.376 151.487 151.807 191.064 103.175 191.064C87.871 191.064 73.4725 187.149 60.9279 180.268L53.5961 193.329C68.2615 201.386 85.09 205.979 102.99 206C159.86 206 206 159.873 206 102.99C205.959 74.0435 193.992 47.92 174.774 29.2141ZM16.8491 102.845C16.8491 127.485 27.2512 149.736 43.8522 165.476L53.9874 154.515C40.3314 141.495 31.7824 123.159 31.7824 102.845C31.7824 63.4744 63.7922 31.4591 103.154 31.4591C115.884 31.4591 127.832 34.8175 138.192 40.6888L145.36 27.5863C132.879 20.5406 118.479 16.5228 103.154 16.5228C55.5736 16.5022 16.8491 55.2345 16.8491 102.845ZM174.527 102.845C174.527 142.216 142.517 174.232 103.154 174.232C90.8572 174.232 79.2611 171.1 69.1473 165.6L61.8343 178.62C74.1111 185.336 88.2006 189.168 103.154 189.168C150.735 189.168 189.46 150.436 189.46 102.845C189.46 78.7412 179.532 56.9438 163.568 41.2658L153.414 52.2057C166.452 65.1434 174.527 83.0466 174.527 102.845ZM157.801 102.845C157.801 132.987 133.289 157.482 103.175 157.482C94.1671 157.493 85.2978 155.263 77.3659 150.992L70.0949 163.93C79.94 169.287 91.2074 172.316 103.175 172.316C141.488 172.316 172.652 141.145 172.652 102.825C172.652 83.6029 164.804 66.1736 152.136 53.5656L142.022 64.4428C151.765 74.3328 157.801 87.8886 157.801 102.845ZM33.6982 102.845C33.6982 122.603 41.9991 140.465 55.2852 153.135L65.3569 142.236C54.9968 132.286 48.5285 118.318 48.5285 102.845C48.5285 72.7051 73.0399 48.2085 103.154 48.2085C112.959 48.2085 122.167 50.8252 130.138 55.3787L137.265 42.3578C127.172 36.6513 115.534 33.3546 103.154 33.3546C64.8625 33.3546 33.6982 64.5252 33.6982 102.845ZM141.24 102.845C141.24 123.881 124.185 140.939 103.154 140.939C96.9893 140.943 90.9162 139.444 85.4608 136.571L78.2929 149.345C85.9368 153.449 94.4789 155.593 103.154 155.586C132.239 155.586 155.885 131.936 155.885 102.845C155.885 88.4449 150.077 75.3827 140.705 65.8645L130.735 76.5984C137.223 83.4381 141.24 92.6679 141.24 102.845ZM50.4236 102.845C50.4236 117.761 56.644 131.235 66.6341 140.836L76.5633 130.102L76.6869 130.226C69.519 123.304 65.0488 113.6 65.0488 102.866C65.0488 81.831 82.0833 64.7725 103.135 64.7725C110.076 64.7725 116.564 66.6475 122.167 69.9029L129.212 57.0468C121.274 52.4995 112.283 50.1128 103.135 50.1247C74.0913 50.0835 50.4236 73.755 50.4236 102.845ZM107.769 102.845C107.769 105.38 105.688 107.439 103.154 107.439C100.621 107.439 98.541 105.379 98.541 102.845C98.541 100.291 100.601 98.231 103.154 98.231C105.688 98.231 107.769 100.291 107.769 102.845ZM73.9463 102.845C73.9463 86.7141 87.0264 73.6314 103.134 73.6314C119.262 73.6314 132.322 86.6936 132.322 102.845C132.322 118.977 119.241 132.039 103.134 132.039C87.0264 132.039 73.9463 118.977 73.9463 102.845ZM75.2235 102.845C75.2647 118.276 87.7268 130.741 103.134 130.761C118.541 130.761 131.064 118.256 131.064 102.845C131.044 87.4147 118.562 74.9295 103.134 74.9097C87.7268 74.9097 75.2235 87.4147 75.2235 102.845Z" fill="black"/>
</svg>
