<svg xmlns="http://www.w3.org/2000/svg" width="682.7" height="682.7" viewBox="0 0 512 512"><path d="M169 63.5c-31.7 7-55.9 14.8-85.8 27.5-4.9 2.1-5.7 3-12.6 13.9a444.6 444.6 0 0 0-64.1 161c-5 28.7-5.9 41.2-5.8 76.6.1 18.1.5 35.5 1 38.5l.8 5.4 13 8.9a424 424 0 0 0 101.7 51.2 85.5 85.5 0 0 0 14.4 4.1c2.5-1 27.4-40.7 27.4-43.7 0-.4-2.6-1.7-5.7-2.9-7.9-3.1-33.5-15.8-35.2-17.5s-1.3-2.3 4.1-6.2l4.3-3.1 10 4.3a307.5 307.5 0 0 0 169 20.4 321.6 321.6 0 0 0 76.6-23.2c3.5-1.5 3.6-1.5 8 2 2.4 1.9 4.4 4 4.4 4.6 0 1.4-20.9 12.4-32 16.8a88.8 88.8 0 0 0-8.9 4c-2 1.8 23.9 44.8 27 44.9a427.7 427.7 0 0 0 115.9-55.7l13-8.9.7-5.4c.3-3 .9-15.9 1.3-28.5 2.8-88.2-20-168.6-70.2-247.7l-7.4-11.6-13.7-5.7a456 456 0 0 0-82.6-25l-9-1.7-1.7 2.4c-1 1.2-4.2 7.4-7.1 13.7l-5.3 11.3-5-.6-14.5-1.8a626.2 626.2 0 0 0-77.5 0l-15 1.8-5 .5-6.5-13.3c-7.6-15.5-6.3-14.8-22-11.3m20.4 164.9a50.1 50.1 0 0 1 26.2 34.3c2 8.4 1.4 22.3-1.4 30.4-11.5 34.4-49.2 44.8-73.7 20.4a55.7 55.7 0 0 1-9.5-63.2 46.7 46.7 0 0 1 26.9-24c5.5-2 8-2.3 15.4-2 7.6.4 9.8.9 16.1 4.1m170.2.1A50.3 50.3 0 0 1 387 275c0 15-4.7 27.4-14.2 37.5-26 27.9-68 13.3-76.4-26.5a53.9 53.9 0 0 1 21.6-55 38.4 38.4 0 0 1 25.3-6.6c7.7.3 9.8.8 16.3 4.1"/></svg>