<svg xmlns="http://www.w3.org/2000/svg" width="229" height="219" fill="none" viewBox="0 0 229 219"><path fill="#000" d="M124.1 1.2c7.1 2 10.4 5.5 22.6 23.4 3.8 5.5 6 8.2 6.6 8.2 1.2 0 3.5-2.5 12.5-13.3C174.7 9 177.4 6 179.6 5c5-2.4 9.3 0 12.9 7.2a60 60 0 0 1 6.3 28.1c0 13-3.3 24-10.7 35a17 17 0 0 0-2.7 5.2c0 .7.9 3.7 2 6.7 2.9 8.3 3.7 14 3.3 24.4a67.3 67.3 0 0 1-20.5 47.2 70.8 70.8 0 0 1-56 20 69.3 69.3 0 0 1-36.9-15.1c-2-1.7-4-3.1-4.6-3.3-.5-.2-3.2.3-6 1.1-4.9 1.3-6.1 1.5-16.3 1.5-10.3 0-11.4-.1-16.3-1.5-7-2-14.3-5.1-19.1-8.3-5-3.3-11.2-9-13.4-12.5-1.5-2.2-1.7-3-1.5-5.2.1-2 .6-3.1 1.8-4.3 2.1-2.3 3.7-3 17.4-8.3 16.2-6.2 18.7-7.4 18.7-8.7 0-.7-3.6-6.2-8-12.4-4.4-6.1-8.7-12.6-9.7-14.4a23 23 0 0 1 4-27c4-4.1 7.3-5.5 20.9-9 19.8-5 26-7.6 32-13.5 4.2-4.2 8.5-9.9 15.8-21 6-9 8.8-12 13.7-14.5a23 23 0 0 1 17.4-1.1m98.6 114.4c3.9 1.8 6.3 5.8 6.3 10.4 0 2.3-3.7 20-4.7 22.4a10.9 10.9 0 0 1-10.5 6.8c-3.8 0-6.2-1.1-8.7-4.3-2-2.5-2.5-6.8-1.5-12.2 1.6-8.6 3.5-16.2 4.5-18.1 1-2.2 3.6-4.5 6-5.4 2.2-1 6.2-.7 8.6.4m-107.4 79.6c12.2 1.3 15.5 2.7 18 7.4 4 8.2-1.3 16.3-10.7 16.4-4.7 0-20.2-2-22.4-3-2-.8-5.1-4.1-6-6.2-.8-2.2-.5-7 .6-9.3 2.5-5.5 7.1-6.7 20.5-5.3"/></svg>