<?xml version="1.0" standalone="no"?>
<!DOCTYPE svg PUBLIC "-//W3C//DTD SVG 20010904//EN"
 "http://www.w3.org/TR/2001/REC-SVG-20010904/DTD/svg10.dtd">
<svg version="1.0" xmlns="http://www.w3.org/2000/svg"
 width="620.000000pt" height="559.000000pt" viewBox="0 0 620.000000 559.000000"
 preserveAspectRatio="xMidYMid meet">

<g transform="translate(0.000000,559.000000) scale(0.100000,-0.100000)"
fill="#000000" stroke="none">
<path d="M1505 5574 c-110 -26 -160 -42 -220 -72 -169 -84 -293 -218 -363
-392 -52 -130 -52 -119 -52 -1210 l0 -1015 -69 -125 c-37 -69 -150 -273 -251
-455 -602 -1086 -563 -1004 -539 -1113 13 -61 57 -124 115 -165 78 -55 398
-89 629 -68 193 18 399 65 560 129 l50 19 83 -94 c142 -160 348 -326 552 -443
41 -24 77 -45 79 -47 3 -2 -9 -18 -26 -36 -54 -57 -77 -114 -78 -192 0 -119
63 -218 174 -269 43 -20 62 -21 336 -21 282 0 291 1 340 23 85 39 142 109 166
204 l11 48 104 0 104 0 6 -27 c23 -108 73 -176 162 -220 l57 -28 290 0 c274 0
293 1 336 21 66 31 114 78 146 142 52 106 30 243 -52 322 l-34 33 90 51 c196
113 361 245 534 429 l101 107 77 -30 c110 -43 289 -87 423 -105 226 -30 571
-12 698 36 60 22 116 76 141 135 9 21 15 67 15 108 0 86 91 -88 -746 1424
l-123 222 -4 1038 c-3 1159 2 1074 -75 1230 -70 142 -198 266 -347 337 -111
53 -184 69 -320 69 -139 0 -191 -12 -352 -80 -610 -257 -998 -363 -1214 -334
-219 30 -558 137 -954 300 -227 94 -290 111 -425 115 -63 2 -124 2 -135 -1z
m721 -1132 c147 -54 256 -147 331 -280 62 -111 74 -171 80 -402 9 -347 -18
-483 -126 -629 -116 -156 -290 -241 -492 -241 -109 0 -177 16 -274 64 -143 71
-245 190 -307 361 -20 55 -22 83 -26 330 -4 298 3 363 54 476 75 166 244 303
424 344 102 23 236 14 336 -23z m2076 23 c118 -25 211 -77 303 -170 94 -94
145 -185 169 -307 21 -102 22 -487 1 -601 -41 -231 -222 -426 -446 -481 -83
-20 -227 -21 -304 -1 -211 55 -371 210 -440 425 -27 83 -34 535 -10 652 24
123 75 218 165 309 83 83 152 127 250 158 112 35 199 39 312 16z m-1112 -1025
c87 -17 156 -54 224 -122 64 -65 105 -137 113 -198 l5 -36 -216 -37 -216 -37
-216 37 -216 37 6 40 c10 61 64 152 120 202 109 99 255 141 396 114z m47 -492
c76 13 146 26 156 28 23 7 22 -11 -7 -71 -91 -195 -350 -241 -500 -89 -35 36
-86 124 -86 150 0 7 51 2 150 -15 l150 -26 137 23z m-317 -1108 c25 -25 25
-25 -9 -86 -36 -63 -88 -109 -161 -143 -79 -37 -201 -37 -280 0 -69 33 -110
67 -149 126 -38 56 -41 100 -8 113 12 5 149 9 305 9 269 1 283 0 302 -19z
m964 10 c35 -13 34 -53 -2 -111 -105 -165 -342 -208 -498 -91 -94 72 -144 181
-91 202 30 12 559 13 591 0z m-490 -470 c36 -13 34 -54 -5 -113 -115 -174
-361 -208 -517 -71 -56 49 -106 132 -96 159 4 9 16 21 28 25 30 12 559 12 590
0z"/>
<path d="M2035 4116 c-26 -7 -36 -14 -27 -19 6 -5 20 -23 29 -40 70 -137 -16
-286 -165 -287 l-44 0 4 -157 c4 -180 15 -216 90 -291 136 -138 377 -91 459
90 23 51 24 63 24 273 0 210 -1 222 -24 273 -59 131 -209 200 -346 158z"/>
<path d="M3988 4115 l-47 -15 24 -47 c64 -119 -2 -258 -132 -279 l-43 -7 0
-137 c0 -159 11 -209 65 -279 128 -168 398 -134 486 61 23 51 24 63 24 273 0
208 -1 223 -23 271 -60 133 -216 203 -354 159z"/>
</g>
</svg>
