<svg width="229" height="219" viewBox="0 0 229 219" fill="none" xmlns="http://www.w3.org/2000/svg">
<path d="M124.114 1.16853C131.235 3.26838 134.548 6.69444 146.747 24.5984C150.501 30.069 152.654 32.7767 153.317 32.7767C154.531 32.7767 156.85 30.2901 165.793 19.5146C174.68 8.84955 177.385 5.97609 179.593 4.92617C184.562 2.55003 188.923 4.98141 192.456 12.0546C196.872 20.9513 198.804 29.5165 198.804 40.2367C198.804 53.2779 195.492 64.164 188.095 75.1605C186.604 77.3709 185.39 79.6917 185.39 80.4101C185.39 81.1285 186.273 84.1125 187.322 87.0965C190.303 95.4406 191.076 101.077 190.744 111.521C190.523 118.484 190.137 121.523 189.088 125.667C185.555 139.206 179.648 149.595 170.209 158.712C155.138 173.356 133.94 180.871 114.233 178.661C100.046 177.114 87.8458 172.085 77.3021 163.575C75.2595 161.917 73.217 160.481 72.7202 160.26C72.2234 160.094 69.5184 160.646 66.6479 161.42C61.8452 162.746 60.5755 162.857 50.4182 162.912C40.0952 162.912 39.0464 162.801 34.0781 161.42C27.1225 159.486 19.7805 156.281 14.9778 153.076C10.0096 149.76 3.82682 144.013 1.5635 140.643C0.0730145 138.432 -0.147794 137.659 0.0730184 135.393C0.238627 133.459 0.735452 132.298 1.89472 131.083C4.04763 128.762 5.64852 128.043 19.2837 122.794C35.5134 116.605 37.9975 115.444 37.9975 114.063C37.9975 113.4 34.4093 107.874 29.9931 101.685C25.5768 95.5511 21.271 89.0858 20.3325 87.3175C15.6403 77.9235 17.186 67.369 24.3071 60.2406C28.3922 56.1514 31.594 54.7699 45.1739 51.3438C64.9918 46.3153 71.1745 43.7181 77.2468 37.7501C81.4423 33.6056 85.7481 27.914 93.0349 16.8621C98.9969 7.74438 101.812 4.76037 106.725 2.32897C112.135 -0.32347 117.821 -0.710278 124.114 1.16853ZM222.652 115.61C226.571 117.378 229 121.357 229 125.999C229 128.32 225.301 146.058 224.308 148.434C222.541 152.689 218.732 155.12 213.819 155.176C209.955 155.176 207.636 154.071 205.097 150.866C203.055 148.379 202.558 144.124 203.551 138.708C205.207 130.143 207.084 122.462 208.078 120.583C209.127 118.428 211.721 116.108 214.095 115.168C216.303 114.284 220.278 114.505 222.652 115.61ZM115.282 195.183C127.537 196.51 130.849 197.891 133.223 202.643C137.308 210.822 132.008 218.945 122.624 219C117.931 219 102.419 216.955 100.211 216.071C98.224 215.187 95.0774 211.872 94.2494 209.772C93.4213 207.561 93.6974 202.864 94.8014 200.488C97.3408 194.962 101.923 193.802 115.282 195.183Z" fill="black"/>
</svg>
