<?xml version="1.0" standalone="no"?>
<!DOCTYPE svg PUBLIC "-//W3C//DTD SVG 20010904//EN"
 "http://www.w3.org/TR/2001/REC-SVG-20010904/DTD/svg10.dtd">
<svg version="1.0" xmlns="http://www.w3.org/2000/svg"
 width="512.000000pt" height="512.000000pt" viewBox="0 0 512.000000 512.000000"
 preserveAspectRatio="xMidYMid meet">

<g transform="translate(0.000000,512.000000) scale(0.100000,-0.100000)"
fill="#000000" stroke="none">
<path d="M445 4780 c-52 -11 -155 -49 -155 -58 0 -4 483 -489 1073 -1078 1005
-1005 1075 -1072 1119 -1084 58 -15 141 -9 188 13 39 19 2168 2142 2158 2153
-4 3 -37 18 -75 32 l-68 27 -2100 1 c-1155 1 -2118 -2 -2140 -6z"/>
<path d="M40 4443 c-12 -32 -26 -79 -31 -107 -5 -29 -9 -753 -9 -1790 0 -1485
2 -1750 15 -1802 53 -226 231 -389 463 -424 45 -7 746 -10 2127 -8 1972 3
2062 4 2115 21 149 50 266 147 332 273 73 139 69 5 66 1971 l-3 1768 -22 65
c-13 36 -27 72 -33 80 -7 12 -226 -202 -1077 -1051 -588 -587 -1089 -1081
-1115 -1098 -26 -18 -78 -44 -115 -59 -61 -24 -81 -26 -193 -26 -139 0 -193
14 -300 81 -36 23 -422 401 -1120 1099 -586 585 -1068 1064 -1072 1064 -4 0
-16 -26 -28 -57z"/>
</g>
</svg>
