<svg xmlns="http://www.w3.org/2000/svg" width="682.7" height="682.7" viewBox="0 0 512 512"><path d="M44.5 34A53.4 53.4 0 0 0 29 39.8c0 .4 48.3 48.9 107.3 107.8C236.8 248.1 243.8 254.8 248.2 256c5.8 1.5 14.1.9 18.8-1.3 3.9-1.9 216.8-214.2 215.8-215.3-.4-.3-3.7-1.8-7.5-3.2l-6.8-2.7-210-.1c-115.5-.1-211.8.2-214 .6"/><path d="M4 67.7A73.7 73.7 0 0 0 .9 78.4c-.5 2.9-.9 75.3-.9 179 0 148.5.2 175 1.5 180.2A55.1 55.1 0 0 0 47.8 480c4.5.7 74.6 1 212.7.8 197.2-.3 206.2-.4 211.5-2.1a57.3 57.3 0 0 0 33.2-27.3c7.3-13.9 6.9-.5 6.6-197.1l-.3-176.8-2.2-6.5a55.8 55.8 0 0 0-3.3-8c-.7-1.2-22.6 20.2-107.7 105.1a5897.3 5897.3 0 0 1-111.5 109.8 72.4 72.4 0 0 1-11.5 5.9c-6.1 2.4-8.1 2.6-19.3 2.6a45.4 45.4 0 0 1-30-8.1c-3.6-2.3-42.2-40.1-112-109.9C55.4 109.9 7.2 62 6.8 62S5.2 64.6 4 67.7"/></svg>