<svg width="177" height="205" viewBox="0 0 177 205" fill="none" xmlns="http://www.w3.org/2000/svg">
<path d="M160.926 0C172.666 0 177 4.32498 177 16.0488V157.515C177 158.841 176.946 160.074 176.828 161.216C176.561 163.775 176.511 166.255 174.126 169.078C173.892 169.356 171.459 171.163 171.459 171.163C170.149 171.804 169.255 172.276 167.778 172.869L96.4512 202.695C92.9794 204.284 91.4017 204.964 89.002 204.999L88.5107 204.997H88.4893C85.7999 205.05 84.2516 204.39 80.5488 202.695L9.22168 172.869C7.74491 172.276 6.85034 171.804 5.54102 171.163C5.54102 171.163 3.10626 169.355 2.87305 169.078C0.488494 166.255 0.438199 163.775 0.170898 161.216C0.0534759 160.074 0 158.841 0 157.515V16.0488C0 4.32498 4.33342 0 16.0742 0H160.926ZM54.373 176.912L87.9473 188.434L122.95 176.912H54.373ZM37.7529 124.542L36.4512 124.672L36.124 124.737L35.7988 124.771L35.4746 124.835L35.1816 124.934L34.8555 124.998L34.5625 125.097L34.2705 125.162L33.9766 125.292L33.6514 125.391L33.3916 125.488L33.0664 125.651L32.7725 125.781L32.4795 125.912L32.1875 126.075L31.8936 126.238L31.6006 126.402L31.3418 126.565L31.0801 126.728L30.8203 126.924L30.5586 127.087L30.2988 127.282L30.0723 127.479L29.8105 127.707L29.584 127.902L29.1279 128.359L28.9316 128.588L28.7051 128.816L28.5088 129.045L28.3145 129.306L28.1182 129.567L27.9238 129.828L27.5977 130.35L27.4355 130.611L27.2725 130.872L27.1084 131.166L26.9805 131.46L26.8486 131.753L26.7188 132.047L26.5898 132.341L26.459 132.667L26.3604 132.961L26.2627 133.287L26.166 133.58L26.1006 133.907L26.0029 134.233L25.9375 134.526L25.9053 134.854L25.8398 135.178L25.8066 135.536L25.7764 135.863V136.189L25.7432 136.548V137.625L25.7764 137.951L25.8066 138.277L25.8398 138.604L25.8721 138.897L25.9375 139.224L25.9707 139.518L26.0352 139.844L26.1338 140.138L26.1992 140.464L26.2949 140.757L26.3604 141.051L26.4912 141.345L26.5898 141.606L26.7188 141.899L26.8486 142.193L26.9805 142.487L27.1084 142.78L27.2725 143.042L27.4355 143.335L27.5977 143.597L27.7607 143.857L27.9551 144.118L28.1182 144.38L28.3145 144.608L28.5088 144.869L28.7051 145.098L28.9316 145.326L29.1611 145.555L29.3877 145.75L29.6162 145.979L29.8438 146.174L30.0723 146.37L30.5918 146.762L30.8535 146.957L31.1123 147.12L31.374 147.283L31.667 147.446L31.9258 147.608L32.2207 147.771L32.5127 147.902L32.8057 148.032L33.0996 148.162L33.4238 148.293L33.7168 148.392L34.0088 148.521L34.3037 148.62L34.6279 148.685L34.9209 148.783L35.2471 148.848L35.5391 148.913L36.1895 149.044L36.8418 149.109L37.167 149.142L37.5244 149.175L37.8496 149.207H39.25L39.6074 149.175L39.9336 149.142L40.292 149.109L40.6172 149.076L40.9746 149.044L41.2998 149.011L41.627 148.946L41.9512 148.881L42.2441 148.815L42.5713 148.75L42.8633 148.652L43.1875 148.555L43.4805 148.456L43.7744 148.358L44.0674 148.261L44.3594 148.13L44.6865 148L44.9785 147.869L45.3037 147.738L45.5957 147.575L45.8896 147.446L46.4746 147.12L46.7686 146.957L47.0283 146.794L47.29 146.631L47.5498 146.436L47.8096 146.272L48.0713 146.076L48.2979 145.913L48.5596 145.717L48.7861 145.521V134.918H38.0459V139.681H42.7979V142.649L42.5381 142.813L42.3096 142.943L42.0166 143.074L41.7559 143.205L41.4629 143.335L41.1709 143.4L40.8457 143.498L40.5186 143.563L40.1934 143.629L39.8691 143.662L39.1514 143.727H38.4033L38.0459 143.694L37.7207 143.662L37.0684 143.531L36.418 143.335L36.124 143.205L35.5391 142.943L35.2783 142.78L35.0186 142.617L34.7588 142.422L34.4971 142.226L34.2705 142.03L34.0742 141.802L33.8477 141.573L33.6514 141.345L33.457 141.084L33.1299 140.562L32.9688 140.269L32.8379 139.974L32.707 139.647L32.6104 139.387L32.5127 139.093L32.3164 138.212L32.2842 137.886L32.251 137.592L32.2207 137.266V136.516L32.251 136.189L32.2842 135.863L32.3496 135.504L32.415 135.21L32.4795 134.886L32.5781 134.56L32.707 134.266L32.8057 133.972L32.9355 133.679L33.0996 133.417L33.2607 133.124L33.4238 132.862L33.5859 132.634L33.7822 132.373L34.0088 132.145L34.2051 131.916L34.4316 131.721L34.6611 131.524L34.8877 131.329L35.1494 131.166L35.4092 131.003L35.6699 130.84L35.9629 130.709L36.2549 130.578L36.5479 130.48L36.8418 130.383L37.1338 130.317L37.459 130.252L37.7529 130.22L38.0781 130.188H38.7607L39.1201 130.22L39.4785 130.252L39.8037 130.285L40.1289 130.35L40.4531 130.415L40.748 130.48L41.332 130.677L41.5938 130.774L41.8535 130.905L42.1152 131.035L42.4072 131.198L42.9287 131.524L43.1875 131.688L43.4473 131.884L43.709 132.047L43.9688 132.275L44.2305 132.471L44.4248 132.21L44.6533 131.981L44.8477 131.721L45.0762 131.46L45.2705 131.198L45.4668 130.97L45.6943 130.709L45.8896 130.448L46.1172 130.188L46.3135 129.958L46.5068 129.697L46.7363 129.437L46.9307 129.208L47.127 128.947L47.3535 128.686L47.5498 128.425L47.7764 128.196L47.9727 127.936L47.7129 127.739L47.4512 127.512L47.1924 127.315L46.9307 127.12L46.6709 126.956L46.4111 126.761L46.1172 126.598L45.8574 126.435L45.5654 126.271L45.3037 126.108L45.0117 125.978L44.7188 125.814L44.4248 125.684L44.1328 125.553L43.8398 125.423L43.5459 125.325L43.2861 125.227L42.9941 125.162L42.6992 125.063L42.1152 124.934L41.8213 124.868L41.4951 124.803L41.1709 124.737L40.876 124.705L40.5186 124.64L40.1934 124.607H39.8691L39.1514 124.542H37.7529ZM140.353 124.607L140.027 124.64L139.051 124.737L138.758 124.803L138.434 124.868L137.847 124.998L137.587 125.063L137.293 125.162L136.968 125.292L136.643 125.391L136.349 125.521L136.057 125.684L135.764 125.814L135.47 125.978L135.21 126.141L134.95 126.336L134.688 126.532L134.462 126.695L134.2 126.924L133.974 127.186L133.745 127.413L133.518 127.675L133.321 127.936L133.127 128.196L132.964 128.49L132.802 128.784L132.541 129.371L132.412 129.665L132.347 129.958L132.249 130.252L132.117 130.84L132.085 131.166L132.053 131.46L132.02 131.786V132.536L132.053 132.896L132.117 133.548L132.183 133.842L132.249 134.168L132.347 134.429L132.442 134.723L132.541 134.984L132.672 135.21L132.835 135.504L132.996 135.765L133.16 135.993L133.354 136.222L133.551 136.45L133.777 136.679L134.006 136.907L134.233 137.103L134.494 137.266L134.754 137.462L135.047 137.625L135.309 137.788L135.634 137.951L135.926 138.114L136.577 138.375L136.902 138.506L137.26 138.637L137.555 138.734L138.14 138.93L138.464 138.996L138.758 139.093L139.084 139.191L139.408 139.257L139.735 139.354L140.061 139.42L140.418 139.518L140.743 139.583L141.101 139.681L141.428 139.746L141.753 139.844L142.045 139.909L142.339 140.007L142.599 140.072L142.826 140.138L143.216 140.301L143.543 140.431L143.835 140.562L144.095 140.692L144.356 140.888L144.583 141.084L144.747 141.312L144.878 141.639L144.91 142.03V142.095L144.878 142.422L144.779 142.715L144.648 142.977L144.455 143.205L144.193 143.4L143.966 143.531L143.704 143.629L143.12 143.76L142.793 143.825L142.436 143.857H141.72L141.362 143.825H141.037L140.71 143.76L140.353 143.727L139.376 143.531L139.084 143.434L138.434 143.237L138.14 143.107L137.847 143.009L137.555 142.879L137.26 142.748L136.968 142.617L136.708 142.454L136.414 142.324L136.154 142.16L135.862 141.965L135.601 141.802L135.309 141.606L135.047 141.41L134.754 141.215L134.494 141.019L134.299 141.279L134.071 141.508L133.875 141.77L133.648 142.03L133.452 142.258L133.258 142.52L133.029 142.78L132.835 143.009L132.606 143.271L132.412 143.498L132.183 143.76L131.989 144.021L131.793 144.249L131.565 144.51L131.369 144.771L131.143 145L130.946 145.261L131.206 145.489L131.435 145.685L131.694 145.881L131.956 146.076L132.476 146.468L132.737 146.631L132.996 146.794L133.291 146.957L133.551 147.12L133.843 147.283L134.137 147.414L134.43 147.575L134.722 147.706L135.016 147.837L135.341 147.967L135.634 148.064L135.958 148.162L136.252 148.293L136.902 148.489L137.195 148.555L137.521 148.652L137.847 148.717L138.172 148.783L138.497 148.848L138.824 148.913L139.148 148.946L139.474 149.011L139.831 149.044L140.483 149.109H140.841L141.166 149.142H142.533L142.858 149.109L143.216 149.076L143.543 149.044L143.835 149.011L144.16 148.979L144.487 148.913L145.072 148.783L145.397 148.717L145.691 148.62L146.017 148.521L146.341 148.424L146.666 148.293L146.993 148.162L147.285 148L147.578 147.869L147.872 147.706L148.132 147.51L148.392 147.349L148.652 147.153L148.88 146.957L149.141 146.729L149.335 146.533L149.564 146.305L149.759 146.076L149.922 145.815L150.116 145.555L150.443 145.032L150.572 144.738L150.703 144.478L150.833 144.184L150.932 143.857L150.995 143.563L151.093 143.237L151.159 142.911L151.191 142.553L151.224 142.226L151.257 141.867V141.084L151.224 140.725L151.191 140.398L151.061 139.746L150.995 139.452L150.899 139.158L150.801 138.865L150.671 138.604L150.507 138.31L150.345 138.049L150.149 137.756L149.955 137.494L149.726 137.266L149.499 137.005L149.237 136.776L148.978 136.548L148.718 136.385L148.457 136.189L148.197 136.026L147.905 135.863L147.61 135.699L147.285 135.536L146.96 135.406L146.636 135.243L146.275 135.114L145.691 134.918L145.364 134.82L145.072 134.723L144.422 134.526L144.095 134.462L143.737 134.363L143.412 134.266L143.055 134.201L142.697 134.103L141.979 133.907L141.654 133.842L141.362 133.743L141.068 133.679L140.809 133.58L140.549 133.516L140.158 133.385L139.799 133.254L139.474 133.124L139.214 132.961L138.92 132.798L138.693 132.569L138.562 132.373L138.4 132.015L138.368 131.59V131.524L138.4 131.198L138.529 130.905L138.726 130.611L139.018 130.35L139.247 130.22L139.507 130.089L139.799 130.023L140.126 129.958L140.483 129.894H141.199L141.491 129.926L141.818 129.958L142.144 129.991L142.468 130.057L143.12 130.188L143.445 130.285L143.77 130.383L144.128 130.48L144.39 130.611L144.682 130.709L144.941 130.84L145.235 130.97L145.495 131.101L145.787 131.231L146.049 131.395L146.341 131.524L146.603 131.721L146.862 131.884L147.154 132.047L147.416 132.242L147.61 131.981L147.773 131.721L147.968 131.46L148.164 131.198L148.358 130.905L148.522 130.644L148.913 130.122L149.076 129.86L149.271 129.6L149.467 129.339L149.63 129.077L149.824 128.784L150.021 128.522L150.215 128.262L150.378 128.001L150.572 127.739L150.053 127.349L149.792 127.152L149.531 126.989L149.237 126.794L148.978 126.63L148.686 126.467L148.392 126.304L148.132 126.173L147.839 126.011L147.513 125.88L146.928 125.618L146.636 125.521L146.309 125.391L146.017 125.325L145.724 125.227L145.397 125.129L145.104 125.063L144.779 124.998L144.455 124.934L144.16 124.868L143.835 124.803L143.478 124.771L143.152 124.705L142.793 124.672H142.468L141.753 124.607H140.353ZM61.2871 124.835L61.1582 125.129L60.8965 125.717L60.7979 126.043L60.6689 126.336L60.5391 126.63L60.4082 126.924L60.2793 127.218L60.1484 127.512L60.0176 127.837L59.8867 128.132L59.79 128.425L59.5283 129.013L59.4004 129.306L59.2686 129.632L59.1387 129.926L59.0098 130.22L58.8789 130.514L58.7803 130.807L58.6504 131.101L58.5215 131.427L58.2598 132.015L58.1309 132.308L57.8691 132.896L57.7705 133.222L57.6426 133.516L57.5117 133.809L57.3809 134.103L57.252 134.396L57.1211 134.689L56.9902 135.017L56.8613 135.308L56.7637 135.602L56.502 136.189L56.373 136.482L56.2422 136.776L56.1113 137.103L55.9824 137.396L55.8516 137.69L55.7539 137.983L55.623 138.277L55.4941 138.571L55.3633 138.897L55.2324 139.191L55.1035 139.484L54.9736 139.778L54.8428 140.072L54.7441 140.365L54.6152 140.692L54.3535 141.279L54.2246 141.573L53.9629 142.16L53.834 142.487L53.7363 142.78L53.6055 143.074L53.4746 143.367L53.3457 143.662L53.2148 143.955L53.084 144.281L52.9551 144.575L52.8242 144.869L52.7266 145.163L52.5957 145.456L52.4668 145.75L52.3359 146.076L52.2051 146.37L52.0771 146.664L51.9463 146.957L51.8154 147.251L51.7168 147.543L51.5879 147.869L51.457 148.162L51.3262 148.456L51.1982 148.75H57.7705L57.9023 148.456L58 148.162L58.1309 147.869L58.2598 147.543L58.3574 147.251L58.4883 146.957L58.6172 146.664L58.7158 146.37L58.8467 146.076L58.9766 145.782L59.0732 145.489L59.2041 145.163L59.335 144.869L59.4326 144.575L59.5615 144.281H68.9023L69.0332 144.575L69.1309 144.869L69.2617 145.163L69.3906 145.489L69.4893 145.782L69.6201 146.076L69.75 146.37L69.8467 146.664L70.1084 147.251L70.2041 147.543L70.335 147.869L70.4658 148.162L70.5635 148.456L70.6934 148.75H77.3984L77.1367 148.162L77.0088 147.869L76.9102 147.543L76.7793 147.251L76.6484 146.957L76.5195 146.664L76.2588 146.076L76.1299 145.75L75.999 145.456L75.9004 145.163L75.7715 144.869L75.5098 144.281L75.3799 143.955L75.251 143.662L74.9893 143.074L74.8936 142.78L74.7627 142.487L74.6309 142.16L74.5 141.867L74.3721 141.573L74.1104 140.985L73.9814 140.692L73.8838 140.365L73.7529 140.072L73.4932 139.484L73.3623 139.191L73.2314 138.897L73.1025 138.571L72.9717 138.277L72.874 137.983L72.7451 137.69L72.4834 137.103L72.3525 136.776L72.2236 136.482L72.0928 136.189L71.9619 135.896L71.8652 135.602L71.7354 135.308L71.6045 135.017L71.4756 134.689L71.083 133.809L70.9541 133.516L70.8555 133.222L70.7256 132.896L70.5967 132.602L70.4658 132.308L70.335 132.015L70.2041 131.721L70.0752 131.427L69.9443 131.101L69.8467 130.807L69.7178 130.514L69.4561 129.926L69.3271 129.632L69.1963 129.306L68.9346 128.719L68.8389 128.425L68.5771 127.837L68.4482 127.512L68.0557 126.63L67.9277 126.336L67.8291 126.043L67.6982 125.717L67.5693 125.423L67.3076 124.835H61.2871ZM80.043 124.998V148.75H86.2275V134.771L86.4219 135.031L86.5859 135.327L86.7803 135.588L86.9434 135.882L87.1396 136.144L87.3008 136.437L87.4971 136.7L87.6582 136.993L87.8545 137.255L88.0186 137.548L88.2129 137.81L88.376 138.105L88.5703 138.366L88.7334 138.66L88.9277 138.921L89.0918 139.216L89.2881 139.478L89.4814 139.771L89.6455 140.032L89.8398 140.327L90.0029 140.588L90.1992 140.882L90.3604 141.143L90.5566 141.439L90.7178 141.7L90.9141 141.993L91.0781 142.255L91.2725 142.549L91.4355 142.812L91.6299 143.104L91.793 143.366L91.9873 143.659L92.1514 143.923L92.3477 144.217H92.4766L92.6396 143.955L92.834 143.659L92.9971 143.398L93.1934 143.138L93.3555 142.844L93.5508 142.583L93.7129 142.319L93.876 142.026L94.0723 141.765L94.2344 141.504L94.4297 141.241L94.5918 140.947L94.7871 140.687L94.9512 140.426L95.1133 140.13L95.3086 139.869L95.4697 139.607L95.666 139.314L95.8281 139.053L96.0244 138.79L96.1875 138.496L96.3496 138.235L96.5459 137.975L96.707 137.679L96.9033 137.417L97.0664 137.156L97.2607 136.896L97.4248 136.6L97.5859 136.339L97.7822 136.078L97.9453 135.784L98.1396 135.523L98.3037 135.262L98.498 134.966L98.6602 134.705V148.75H104.941V124.998H98.2705L98.1074 125.26L97.9453 125.553L97.749 125.812L97.5859 126.106L97.4248 126.367L97.2607 126.661L97.0664 126.92L96.9033 127.214L96.7402 127.475L96.5781 127.736L96.3818 128.027L96.2207 128.289L96.0566 128.582L95.8936 128.844L95.6992 129.135L95.5352 129.396L95.374 129.657L95.2109 129.949L95.0469 130.21L94.8525 130.504L94.6895 130.765L94.5264 131.057L94.3643 131.317L94.168 131.611L94.0068 131.87L93.8438 132.131L93.6797 132.425L93.4854 132.687L93.3223 132.979L93.1602 133.239L92.9971 133.533L92.8027 133.794L92.6396 134.085L92.4766 134.347L92.3145 134.085L92.1514 133.794L91.9551 133.533L91.793 133.239L91.6299 132.979L91.4688 132.687L91.3047 132.425L91.1084 132.131L90.9473 131.87L90.7832 131.611L90.6221 131.317L90.459 131.057L90.2627 130.765L90.1006 130.504L89.9375 130.21L89.7764 129.949L89.6123 129.657L89.416 129.396L89.2549 129.135L89.0918 128.844L88.9277 128.582L88.7334 128.289L88.5703 128.027L88.4092 127.736L88.2451 127.475L88.082 127.214L87.8877 126.92L87.7236 126.661L87.5625 126.367L87.3994 126.106L87.2354 125.812L87.041 125.553L86.8779 125.26L86.7168 124.998H80.043ZM109.748 124.998V148.75H128.724V143.367H115.963V139.321H127.291V134.266H115.963V130.383H128.56V124.998H109.748ZM64.3789 132.617L64.4775 132.913L64.6055 133.239L64.7373 133.534L64.835 133.828L64.9658 134.122L65.0947 134.45L65.1924 134.744L65.3232 135.037L65.4541 135.333L65.5498 135.627L65.6807 135.953L65.7793 136.249L65.9082 136.542L66.0391 136.836L66.1367 137.132L66.2676 137.458L66.3965 137.752L66.4941 138.047L66.625 138.341L66.7539 138.667L66.8525 138.963L66.9824 139.257H61.4824L61.6113 138.963L61.71 138.667L61.8408 138.341L61.9717 138.047L62.0674 137.752L62.1982 137.458L62.3291 137.132L62.458 136.836L62.5557 136.542L62.6865 136.249L62.8174 135.953L62.9131 135.627L63.0439 135.333L63.1748 135.037L63.2734 134.744L63.4023 134.45L63.5332 134.122L63.6641 133.828L63.7598 133.534L63.8906 133.239L64.0215 132.913L64.1191 132.617L64.248 132.323L64.3789 132.617ZM130.398 26.5684C120.66 26.5684 115.844 31.3963 115.844 41.166V91.9189C115.844 101.689 120.66 106.516 130.398 106.516H136.333C146.074 106.516 150.888 101.689 150.888 91.9189V73.6162H139.132V91.3584C139.132 94.5024 137.675 95.9609 134.654 95.9609H132.414C129.28 95.9609 127.823 94.5025 127.823 91.3584V41.7266C127.823 38.5826 129.28 37.123 132.414 37.123H134.429C137.452 37.123 138.908 38.5826 138.908 41.7266V57.1113H150.663V41.0527C150.663 31.2849 145.96 26.5684 136.222 26.5684H130.398ZM58.7656 27.2422V105.843H70.7451V77.3213H77.5742C87.3147 77.3212 92.1279 72.4934 92.1279 62.7256V41.8398C92.1279 32.0702 87.3147 27.2423 77.5742 27.2422H58.7656ZM97.5322 27.2422V105.843H109.513V27.2422H97.5322ZM26.1123 27.2422V105.842H52.9824V94.9512H38.0918V71.2578H52.1982V60.3662H38.0918V38.1328H52.7598V27.2422H26.1123ZM75.6719 37.7969C78.695 37.7969 80.1484 39.2568 80.1484 42.4004V62.1631C80.1484 65.3073 78.6949 66.7676 75.6719 66.7676H70.7451V37.7969H75.6719Z" fill="black"/>
</svg>
