<svg xmlns="http://www.w3.org/2000/svg" width="177" height="205" fill="none" viewBox="0 0 177 205"><path fill="#000" d="M161 0c11.7 0 16 4.3 16 16v141.5c0 1.3 0 2.6-.2 3.7-.2 2.6-.3 5-2.7 7.9-.2.3-2.6 2-2.6 2-1.4.7-2.2 1.2-3.7 1.8l-71.3 29.8c-3.5 1.6-5.1 2.3-7.5 2.3h-.5c-2.7 0-4.2-.6-8-2.3L9.2 172.9l-3.7-1.7S3.1 169.4 3 169c-2.4-2.8-2.5-5.3-2.7-7.9a36 36 0 0 1-.2-3.7V16C0 4.3 4.3 0 16 0zM54.3 177l33.5 11.4 35-11.5zm-16.6-52.5-1.3.2h-.7l-.3.1-.3.1-.3.1-.3.1h-.3l-.3.2h-.3l-.3.2-.3.2h-.3l-.3.2-.3.2-.3.1-.3.2-.3.2-.2.1-.3.2-.2.2-.3.2-.2.2-.3.2-.2.2-.5.5-.2.2-.2.2-.2.2-.2.3-.2.3-.2.2-.3.5-.2.3-.1.3-.2.3-.1.3-.2.3v.2l-.2.3-.1.4-.1.3-.1.3-.1.3-.1.3-.1.3v.3l-.1.4v.6l-.1.4V138.9l.1.3v.3l.1.3.1.3.1.4v.3l.2.3v.2l.2.3.1.3.1.3.2.3.1.3.2.2.1.3.2.3.2.3.2.2.1.3.2.2.2.3.2.2.2.2.3.3.2.2.2.2.2.2.3.2.5.4.3.2.2.1.3.2.3.1.2.2.3.2.3.1.3.1.3.2h.3l.3.2.3.1.3.1h.3l.3.2h.3l.3.1.7.1.6.1h.7l.3.1H40.3l.3-.1h.7l.3-.2H42.2l.4-.1.3-.1.3-.1.3-.1.3-.1.3-.1.3-.2.3-.1.3-.1.3-.2.3-.1.3-.2.6-.3.3-.1.2-.2.3-.2.2-.2.3-.1.3-.2.2-.2.3-.2.2-.2V135H38v4.8h4.8v3l-.3.1-.2.1-.3.2-.2.1-.3.1-.3.1-.4.1h-.3l-.3.1h-.3l-.7.1H37.7l-.6-.2-.7-.2h-.3l-.6-.4-.2-.1-.3-.2-.2-.2-.3-.2-.2-.2-.2-.2-.3-.2-.1-.3-.2-.2-.4-.5-.1-.3-.2-.3v-.4l-.2-.2v-.3l-.3-.9V135.5l.1-.3v-.3l.2-.3.1-.3.1-.3.1-.3.2-.3.2-.3.1-.2.2-.3.2-.2.2-.3.2-.2.2-.2.3-.2.2-.2.2-.1.3-.2.3-.2h.3l.3-.2.2-.1.3-.1h.3l.4-.1h.3l.3-.1h1.7l.3.1.4.1h.2l.6.3h.3l.3.2.2.1.3.2.5.3.3.2.2.2.3.1.3.3.2.2.2-.3.3-.2.1-.3.3-.2.2-.3.2-.2.2-.3.2-.3.2-.2.2-.2.2-.3.2-.3.2-.2.2-.3.3-.2.1-.3.3-.2.2-.3-.3-.2-.2-.2-.3-.2-.3-.2-.2-.1-.3-.2-.3-.2-.2-.2-.3-.1-.3-.2-.3-.1-.3-.2-.3-.1-.3-.1-.3-.2h-.3l-.2-.2H43l-.3-.1-.6-.2h-.3l-.3-.1h-.3l-.3-.1h-1l-.7-.2zm102.6.1h-.4l-1 .1-.2.1h-.4l-.6.2h-.2l-.3.2h-.3l-.4.2-.3.1-.2.2-.3.1-.3.2-.3.1-.3.2-.2.2-.2.2-.3.2-.2.3-.3.2-.2.3-.2.2-.2.3-.1.3-.2.3-.3.6v.3l-.2.3v.3l-.2.5v3l.1.4.1.2.1.3.1.3.2.2.1.3.2.3.2.2.2.2.2.3.2.2.2.2.2.2.3.2.3.2.2.1.3.2.3.2.3.1.7.3.3.1.4.1.3.1.5.2.4.1h.3l.3.2h.3l.3.2h.4l.3.1h.3l.4.2h.3l.4.1.2.1.3.1h.3l.2.1.4.2.3.1.3.2h.3l.3.3.2.2.1.2.2.3v.8l-.1.3-.2.3-.1.2-.3.2-.2.1-.3.1-.6.2H140.4l-1-.3h-.3l-.7-.3h-.3l-.3-.2-.2-.1-.3-.2h-.3l-.3-.2-.3-.2-.2-.1-.3-.2-.3-.2-.3-.2-.3-.2-.2-.2-.3-.2-.2.3-.2.2-.2.3-.3.2-.1.3-.2.2-.3.3-.2.2-.2.3-.2.2-.2.3-.2.2-.2.2-.2.3-.2.3-.3.2-.2.3.3.2.2.2.3.2.3.2.5.4.2.1.3.2.3.2.3.1.2.2.3.1.3.2.3.1.3.1.3.2h.3l.4.2h.3l.6.3h.3l.3.2h.7l.3.1.3.1h.3l.4.1h.3l.7.1H143.8l.4-.1h.3l.6-.2h.3l.3-.2h.3l.3-.2.4-.1.3-.1.3-.2.3-.1.3-.2.2-.2.3-.2.3-.1.2-.2.2-.3.2-.2.3-.2.2-.2.1-.3.2-.2.3-.6.2-.3.1-.2.1-.3.1-.3v-.3l.2-.4v-.6l.1-.4v-1.8l-.1-.7-.1-.2-.1-.3-.1-.3-.1-.3-.2-.3-.2-.3-.2-.2-.1-.3-.3-.2-.2-.3-.3-.2-.2-.3-.3-.1-.2-.2-.3-.2-.3-.1-.3-.2-.3-.2h-.3l-.4-.3h-.3l-.6-.3h-.3l-.3-.2-.7-.2h-.3l-.4-.1-.3-.1-.3-.1-.4-.1-.7-.2h-.3l-.3-.2h-.3l-.3-.1h-.3l-.3-.2-.4-.1-.3-.2-.3-.1-.3-.2-.2-.2-.1-.2-.2-.4v-.8l.1-.3.2-.3.3-.2.2-.2.3-.1h.3l.3-.1.4-.1h1.6l.4.2h.6l.3.2h.4l.3.2.3.1.3.1.2.1.3.2.3.1.3.1.2.2.3.1.3.2.3.2.3.1.2.2.2-.2.2-.3.2-.2.2-.3.2-.3.1-.3.4-.5.2-.2.2-.3.2-.3.1-.2.2-.3.2-.3.2-.2.2-.3.2-.3-.5-.4-.3-.1-.3-.2-.3-.2-.2-.2-.3-.1-.3-.2-.3-.1-.3-.2-.3-.1-.6-.3h-.3l-.3-.2h-.3l-.3-.2h-.3l-.3-.1-.3-.1h-.3l-.3-.1-.4-.1h-.6l-.4-.1h-1zm-79.1.2-.1.3-.3.6-.1.3-.1.3-.2.3v.3l-.2.3-.2.3v.3l-.2.3-.1.3-.3.6-.1.3-.1.3-.2.3v.3l-.2.3-.1.3-.2.3v.3l-.3.6-.2.3-.2.6-.1.3-.2.3v.3l-.2.3-.1.3-.2.3-.1.3-.1.3-.1.3-.3.6-.1.3-.2.3v.3l-.2.3-.1.3-.1.3-.2.3-.1.3-.1.3-.2.3-.1.3-.1.3-.2.3v.3l-.2.3-.2.6-.2.3-.2.6-.2.3v.3l-.2.3-.1.3-.2.3v.3l-.2.3-.1.3-.2.3v.3l-.2.3-.1.3-.2.3v.3l-.2.3-.2.3v.3l-.2.2-.1.4-.1.3-.2.3-.1.3h6.6l.1-.3.1-.3.1-.3.2-.4v-.2l.2-.3.1-.3.1-.3.1-.3.2-.3v-.3l.2-.3.1-.3.1-.3.2-.3h9.3l.1.3.1.3.2.3v.3l.2.3.1.3.1.3.1.3.3.6.1.2.1.4.2.3v.3l.2.3h6.7l-.3-.6v-.3l-.2-.4-.1-.2-.2-.3v-.3l-.3-.6-.2-.3-.1-.3-.1-.3-.1-.3-.3-.6-.1-.3-.1-.3-.3-.6-.1-.3-.1-.3-.2-.3-.1-.3-.1-.3-.3-.6-.1-.3-.1-.3-.1-.3-.3-.6-.1-.3-.2-.3-.1-.3-.1-.3-.1-.3-.2-.3-.2-.6-.1-.3-.2-.3-.1-.3-.1-.3-.1-.3-.2-.3-.1-.3-.1-.3-.4-.9-.1-.3-.1-.3-.2-.3-.1-.3-.1-.3-.2-.3-.1-.3-.1-.3-.2-.3v-.3l-.2-.3-.2-.6-.2-.3-.1-.3-.3-.6v-.3l-.3-.6-.2-.3-.3-.9-.2-.3v-.3l-.2-.3-.1-.3-.3-.6zm18.7.2v23.7h6.2v-14l.2.3.2.3.2.3.1.3.2.2.2.3.2.3.2.3.2.3.1.2.2.3.2.3.2.3.1.3.2.2.2.3.2.3.2.3.1.2.2.3.2.3.2.3.2.2.2.3.1.3.2.3.2.3.2.2.1.3.2.3.2.3.2.3.2.2.1.3h.2l.1-.2.2-.3.2-.3.2-.3.2-.3.2-.2.1-.3.2-.3.2-.2.1-.3.2-.3.2-.3.2-.2.2-.3.1-.3.2-.2.2-.3.2-.3.1-.2.2-.3.2-.3.1-.3.2-.2.2-.3.2-.3.2-.2.2-.3.1-.3.2-.3.2-.2.1-.3.2-.3.2-.2.2-.3.2-.3v14h6.2V125h-6.6l-.2.3-.2.3-.2.2-.1.3-.2.3-.1.3-.2.2-.2.3-.2.3-.1.2-.2.3-.2.3-.1.3-.2.2-.2.3-.2.3-.1.3-.2.2-.2.3-.1.3-.2.3-.2.3-.1.2-.2.3-.2.3-.2.2-.1.3-.2.3-.2.3-.1.2-.2.3-.2.3-.2.3-.1.2-.2-.2-.1-.3-.2-.3-.2-.3-.2-.2-.1-.3-.2-.3-.2-.3-.2-.2-.1-.3-.2-.3-.1-.2-.2-.3-.2-.3-.2-.3-.1-.3-.2-.2-.2-.3-.1-.3-.2-.3-.2-.2-.2-.3-.1-.3-.2-.3-.2-.2-.1-.3-.2-.3-.2-.2-.1-.3-.2-.3-.2-.3-.2-.2-.1-.3-.2-.3zm29.7 0v23.7h19v-5.3H116v-4h11.3v-5.1H116v-4h12.6V125zm-45.3 7.6v.3l.2.3.1.3.1.3.2.3v.3l.2.3.1.3.2.3v.3l.2.4v.2l.2.3.1.3.1.3.2.4.1.3v.2l.2.3.2.4v.3l.2.3h-5.5l.1-.3.1-.3.1-.4.2-.3v-.2l.2-.3.1-.4.2-.3v-.3l.2-.3.1-.2.1-.4.1-.3.2-.3v-.3l.2-.2.1-.4.2-.3v-.3l.2-.3.1-.3.1-.3.1-.3zm66-106c-9.7 0-14.6 4.8-14.6 14.6v50.7c0 9.8 4.9 14.6 14.6 14.6h6c9.7 0 14.5-4.8 14.5-14.6V73.6H139v17.8c0 3.1-1.4 4.6-4.4 4.6h-2.3c-3.1 0-4.6-1.5-4.6-4.6V41.7c0-3.1 1.5-4.6 4.6-4.6h2c3 0 4.5 1.5 4.5 4.6v15.4h11.8v-16c0-9.8-4.7-14.5-14.5-14.5zm-71.6.6v78.6h12V77.3h6.8c9.7 0 14.5-4.8 14.5-14.6V41.8c0-9.7-4.8-14.6-14.5-14.6zm38.7 0v78.6h12V27.2zm-71.4 0v78.6H53V95H38V71.3h14.2v-11H38.1V38.2h14.7V27.2zm49.6 10.6c3 0 4.4 1.5 4.4 4.6v19.8c0 3.1-1.4 4.6-4.4 4.6h-5v-29z"/></svg>