<?xml version="1.0" standalone="no"?>
<!DOCTYPE svg PUBLIC "-//W3C//DTD SVG 20010904//EN"
 "http://www.w3.org/TR/2001/REC-SVG-20010904/DTD/svg10.dtd">
<svg version="1.0" xmlns="http://www.w3.org/2000/svg"
 width="512.000000pt" height="512.000000pt" viewBox="0 0 512.000000 512.000000"
 preserveAspectRatio="xMidYMid meet">

<g transform="translate(0.000000,512.000000) scale(0.100000,-0.100000)"
fill="#000000" stroke="none">
<path d="M2357 5010 c-969 -87 -1782 -714 -2113 -1628 -45 -125 -100 -350
-121 -497 -23 -164 -23 -487 1 -650 78 -551 318 -1031 710 -1420 564 -560
1362 -811 2149 -675 763 131 1427 629 1777 1328 191 383 282 834 252 1244 -33
452 -165 842 -405 1205 -387 585 -996 971 -1690 1073 -154 23 -421 32 -560 20z
m496 -475 c554 -83 1055 -401 1367 -868 79 -118 189 -342 234 -477 163 -487
127 -1028 -98 -1495 -198 -411 -528 -739 -939 -935 -721 -344 -1563 -227
-2175 303 -187 162 -352 378 -471 618 -278 559 -276 1209 6 1774 307 615 913
1028 1604 1095 118 11 346 4 472 -15z"/>
<path d="M2370 4343 c-77 -8 -257 -46 -334 -70 -496 -155 -898 -511 -1111
-984 -114 -251 -162 -508 -152 -799 24 -691 443 -1299 1087 -1577 250 -108
484 -150 770 -140 654 23 1240 402 1534 992 136 274 194 549 183 865 -31 876
-698 1600 -1577 1709 -79 10 -321 12 -400 4z m473 -1007 c152 -271 277 -496
277 -499 0 -3 -118 60 -262 141 -201 111 -271 146 -298 146 -26 0 -100 -37
-295 -146 -143 -80 -262 -144 -263 -142 -6 4 551 994 558 994 4 0 131 -222
283 -494z m30 -601 c169 -93 307 -172 307 -175 -1 -8 -605 -340 -620 -340 -12
0 -577 310 -608 333 -9 7 75 58 295 182 170 95 311 172 314 171 3 0 144 -77
312 -171z m-568 -616 c162 -91 229 -123 255 -123 27 0 96 34 295 146 143 80
262 144 263 143 5 -5 -550 -995 -558 -995 -6 0 -560 983 -560 995 0 3 19 -5
43 -19 23 -13 141 -79 262 -147z"/>
</g>
</svg>
