<svg xmlns="http://www.w3.org/2000/svg" width="682.7" height="682.7" viewBox="0 0 512 512"><path d="M235.7 11A246.7 246.7 0 0 0 24.4 173.8c-4.5 12.5-10 35-12.1 49.7-2.3 16.4-2.3 48.7.1 65a244.4 244.4 0 0 0 71 142A245.1 245.1 0 0 0 476 365.2a246 246 0 0 0-15.3-244.9A244.1 244.1 0 0 0 291.7 13a304.4 304.4 0 0 0-56-2m49.6 47.5A201 201 0 0 1 422 145.3a248.3 248.3 0 0 1 23.4 47.7 199.9 199.9 0 0 1-103.7 243 199 199 0 0 1-264.6-92.1 197.8 197.8 0 0 1 .6-177.4A200.5 200.5 0 0 1 238.1 57c11.8-1.1 34.6-.4 47.2 1.5"/><path d="M237 77.7A180.5 180.5 0 0 0 92.5 183.1 173 173 0 0 0 77.3 263 178.1 178.1 0 0 0 186 420.7c25 10.8 48.4 15 77 14A178.2 178.2 0 0 0 434.7 249 179 179 0 0 0 277 78.1c-7.9-1-32.1-1.2-40-.4m47.3 100.7c15.2 27.1 27.7 49.6 27.7 49.9s-11.8-6-26.2-14.1c-20.1-11.1-27.1-14.6-29.8-14.6-2.6 0-10 3.7-29.5 14.6-14.3 8-26.2 14.4-26.3 14.2-.6-.4 55.1-99.4 55.8-99.4.4 0 13.1 22.2 28.3 49.4m3 60.1A631.6 631.6 0 0 1 318 256c-.1.8-60.5 34-62 34-1.2 0-57.7-31-60.8-33.3-.9-.7 7.5-5.8 29.5-18.2 17-9.5 31.1-17.2 31.4-17.1.3 0 14.4 7.7 31.2 17.1m-56.8 61.6c16.2 9.1 22.9 12.3 25.5 12.3 2.7 0 9.6-3.4 29.5-14.6 14.3-8 26.2-14.4 26.3-14.3.5.5-55 99.5-55.8 99.5-.6 0-56-98.3-56-99.5 0-.3 1.9.5 4.3 1.9l26.2 14.7"/></svg>