<?xml version="1.0" standalone="no"?>
<!DOCTYPE svg PUBLIC "-//W3C//DTD SVG 20010904//EN"
 "http://www.w3.org/TR/2001/REC-SVG-20010904/DTD/svg10.dtd">
<svg version="1.0" xmlns="http://www.w3.org/2000/svg"
 width="340.000000pt" height="340.000000pt" viewBox="0 0 340.000000 340.000000"
 preserveAspectRatio="xMidYMid meet">

<g transform="translate(0.000000,340.000000) scale(0.100000,-0.100000)"
fill="#000000" stroke="none">
<path d="M395 3381 c-33 -9 -85 -30 -115 -46 -73 -39 -178 -146 -217 -220 -62
-120 -63 -126 -63 -739 l0 -556 143 0 143 0 18 108 c44 261 161 513 320 689
l56 61 -60 52 c-137 118 -240 312 -240 450 0 30 1 30 54 30 l53 0 7 -37 c18
-113 125 -248 270 -345 l70 -46 40 26 c158 98 278 245 302 370 6 32 7 32 62
32 l55 0 -6 -59 c-14 -128 -81 -255 -204 -382 -46 -47 -83 -88 -83 -91 0 -3
18 -17 39 -31 58 -39 167 -143 218 -209 83 -108 183 -329 183 -404 l0 -24
-130 0 c-96 0 -132 3 -134 13 -33 115 -66 200 -103 266 -45 79 -157 211 -213
251 l-29 21 -48 -61 c-69 -88 -128 -201 -163 -310 -33 -107 -60 -248 -60 -321
l0 -49 508 2 507 3 3 788 2 787 -562 -1 c-502 0 -570 -2 -623 -18z m506 -226
c93 -49 89 -201 -6 -241 -45 -18 -79 -18 -122 3 -92 43 -98 180 -10 233 39 24
97 26 138 5z"/>
<path d="M1820 3257 l0 -143 108 -18 c203 -34 384 -105 548 -215 147 -99 143
-77 35 -185 l-94 -95 -75 51 c-136 92 -323 165 -465 183 l-57 7 2 -508 3 -509
509 -3 508 -2 -7 57 c-17 140 -86 318 -177 456 l-51 78 93 94 93 93 22 -26
c43 -52 126 -187 164 -267 52 -109 96 -249 117 -377 l18 -108 143 0 143 0 0
556 c0 613 -1 619 -63 739 -40 77 -145 182 -222 222 -120 62 -126 63 -739 63
l-556 0 0 -143z"/>
<path d="M0 1024 c0 -613 1 -619 63 -739 40 -77 145 -182 222 -222 120 -62
126 -63 739 -63 l556 0 0 143 0 143 -107 18 c-129 21 -269 65 -378 117 -80 38
-215 121 -267 164 l-26 22 92 92 c50 50 94 91 98 91 4 0 36 -20 72 -45 122
-86 318 -163 459 -180 l57 -7 -2 508 -3 509 -509 3 -508 2 7 -57 c18 -143 99
-346 189 -473 l46 -65 -95 -95 c-109 -109 -87 -113 -186 34 -110 164 -181 345
-215 549 l-18 107 -143 0 -143 0 0 -556z"/>
<path d="M1827 1573 c-4 -3 -7 -359 -7 -790 l0 -783 250 0 c151 0 250 4 250 9
0 6 -65 271 -145 591 -80 319 -145 587 -145 595 0 7 28 27 63 44 156 77 322
86 547 31 138 -33 282 -45 358 -28 31 7 33 6 27 -15 -17 -57 -62 -133 -111
-186 -76 -82 -158 -123 -314 -156 -145 -30 -208 -57 -267 -111 l-42 -39 90
-367 91 -368 230 0 c256 0 308 8 413 63 77 40 182 145 222 222 62 120 63 126
63 739 l0 556 -783 0 c-431 0 -787 -3 -790 -7z"/>
</g>
</svg>
