<svg xmlns="http://www.w3.org/2000/svg" width="453.3" height="453.3" viewBox="0 0 340 340"><path d="M39.5 1.9c-3.3.9-8.5 3-11.5 4.6a66.2 66.2 0 0 0-21.7 22C.1 40.5 0 41.1 0 102.4V158h28.6l1.8-10.8a139.8 139.8 0 0 1 32-68.9l5.6-6.1-6-5.2C48.3 55.2 38 35.8 38 22c0-3 .1-3 5.4-3h5.3l.7 3.7c1.8 11.3 12.5 24.8 27 34.5l7 4.6 4-2.6c15.8-9.8 27.8-24.5 30.2-37 .6-3.2.7-3.2 6.2-3.2h5.5l-.6 5.9a66 66 0 0 1-20.4 38.2c-4.6 4.7-8.3 8.8-8.3 9.1s1.8 1.7 3.9 3.1c5.8 3.9 16.7 14.3 21.8 20.9C134 107 144 129.1 144 136.6v2.4h-13c-9.6 0-13.2-.3-13.4-1.3-3.3-11.5-6.6-20-10.3-26.6A107.8 107.8 0 0 0 86 86l-2.9-2.1-4.8 6.1A103.3 103.3 0 0 0 62 121c-3.3 10.7-6 24.8-6 32.1v4.9l50.8-.2 50.7-.3.3-78.8L158 0l-56.2.1c-50.2 0-57 .2-62.3 1.8m50.6 22.6c9.3 4.9 8.9 20.1-.6 24.1a13.4 13.4 0 0 1-12.2-.3c-9.2-4.3-9.8-18-1-23.3a15 15 0 0 1 13.8-.5M182 14.3v14.3l10.8 1.8a137.5 137.5 0 0 1 54.8 21.5c14.7 9.9 14.3 7.7 3.5 18.5l-9.4 9.5-7.5-5.1a118.4 118.4 0 0 0-46.5-18.3l-5.7-.7.2 50.8.3 50.9 50.9.3 50.8.2-.7-5.7c-1.7-14-8.6-31.8-17.7-45.6l-5.1-7.8 9.3-9.4 9.3-9.3 2.2 2.6a173 173 0 0 1 16.4 26.7 148 148 0 0 1 11.7 37.7l1.8 10.8H340v-55.6c0-61.3-.1-61.9-6.3-73.9a63.8 63.8 0 0 0-22.2-22.2C299.5.1 298.9 0 237.6 0H182zM0 237.6c0 61.3.1 61.9 6.3 73.9 4 7.7 14.5 18.2 22.2 22.2 12 6.2 12.6 6.3 73.9 6.3H158v-28.6l-10.7-1.8a147.5 147.5 0 0 1-37.8-11.7 173 173 0 0 1-26.7-16.4l-2.6-2.2 9.2-9.2c5-5 9.4-9.1 9.8-9.1s3.6 2 7.2 4.5a115.2 115.2 0 0 0 45.9 18l5.7.7-.2-50.8-.3-50.9-50.9-.3-50.8-.2.7 5.7c1.8 14.3 9.9 34.6 18.9 47.3l4.6 6.5-9.5 9.5c-10.9 10.9-8.7 11.3-18.6-3.4a137.3 137.3 0 0 1-21.5-54.9L28.6 182H0zm182.7-54.9c-.4.3-.7 35.9-.7 79V340h25c15.1 0 25-.4 25-.9 0-.6-6.5-27.1-14.5-59.1-8-31.9-14.5-58.7-14.5-59.5 0-.7 2.8-2.7 6.3-4.4 15.6-7.7 32.2-8.6 54.7-3.1a94.6 94.6 0 0 0 35.8 2.8c3.1-.7 3.3-.6 2.7 1.5a53.4 53.4 0 0 1-11.1 18.6c-7.6 8.2-15.8 12.3-31.4 15.6-14.5 3-20.8 5.7-26.7 11.1l-4.2 3.9 9 36.7 9.1 36.8h23c25.6 0 30.8-.8 41.3-6.3 7.7-4 18.2-14.5 22.2-22.2 6.2-12 6.3-12.6 6.3-73.9V182h-78.3c-43.1 0-78.7.3-79 .7"/></svg>