<svg xmlns="http://www.w3.org/2000/svg" width="682.7" height="682.7" viewBox="0 0 512 512"><path d="M238.4 6a256.5 256.5 0 0 0-236 221.5 333.3 333.3 0 0 0-.5 65.5 258.2 258.2 0 0 0 128.7 193.2c16.4 9.4 41.8 20 48.3 20.2 5.1.1 9.4-2 11.6-5.7 1.8-3 1.9-5 1.6-26.7-.1-12.9-.3-23.6-.4-23.6a72 72 0 0 0-8.2 1.2c-26.3 4.3-49.7-1.6-64.6-16.5a58.7 58.7 0 0 1-13.4-20.6c-9.4-19.6-14.9-27.1-25.5-34.8-7.8-5.6-12-9.8-12-11.9 0-5 12.1-6.7 21.7-3a58 58 0 0 1 29.9 25.8c12.6 19.1 28.4 27.6 48.5 26.1 7.7-.6 23.3-4.9 24.5-6.8.3-.6 1.3-3.8 2-7.1 1.9-8 6.8-18.1 11-22.8 4-4.5 4.4-4.2-8.6-6-10.3-1.4-28.2-6-36.8-9.4-36.2-14.3-57.1-41-64.9-82.9a215 215 0 0 1 0-56.7 100.2 100.2 0 0 1 19.5-39.8l4.3-5.3-1.5-4.7a95.8 95.8 0 0 1 1.6-56.4c2-6.1 2.4-6.7 5.4-7.3 10.7-2 35.2 6.8 57.6 20.6l9.8 6.1 8.7-2c20.4-4.7 29.8-5.7 55.3-5.7 25.6 0 34.9 1 55.3 5.7l8.8 2 7.7-4.8a160 160 0 0 1 40.7-19.3 59.6 59.6 0 0 1 19.1-2.5c2.8.5 3.3 1.2 5.2 7.2 5.7 17.8 6.7 40.4 2.3 54.2l-2.1 6.5 2 2.5a113.6 113.6 0 0 1 21.2 40.9c2.6 9.8 3.6 34.8 1.9 48.8-7.4 60.8-40.7 93.5-104.1 102.3-12 1.6-11.8 1.5-8.3 5.3 4.6 4.8 9 13.4 11.5 22.3 2 7.4 2.2 10.6 2.7 52.9.7 49.2.5 48.2 6.6 50.7 4.7 2 10.2 1.3 20-2.6a248.5 248.5 0 0 0 88.4-56.9c41.7-41 67.9-94.2 75.2-152.7 2-15.9 1.8-49.8-.5-65.5A256.2 256.2 0 0 0 272.3 6a174.5 174.5 0 0 0-33.9 0"/></svg>