<svg width="159" height="227" viewBox="0 0 159 227" fill="none" xmlns="http://www.w3.org/2000/svg">
<path d="M78.9141 0C87.3018 0 95.5189 1.36632 103.051 3.75781C123.079 10.0783 139.683 24.0862 149.27 42.5352C154.919 53.4679 158.171 65.7675 158.171 78.9209C158.171 126.751 127.53 145.372 101.168 186.54C85.0772 211.309 89.5276 226.171 79.2568 226.171C68.986 226.171 73.4364 211.48 57.3457 186.711C52.895 179.878 48.273 173.215 43.8223 167.407C29.7855 149.129 16.0907 134.438 7.87402 116.331C2.90983 105.569 2.48985e-05 93.6115 0 78.75C0 59.6177 7.01818 41.8515 18.4873 28.1855C33.0376 10.9325 54.7777 0.000103673 78.9141 0ZM79 49C62.4315 49 49 62.4315 49 79C49 95.5685 62.4315 109 79 109C95.5685 109 109 95.5685 109 79C109 62.4315 95.5685 49 79 49Z" fill="black"/>
</svg>
