<svg xmlns="http://www.w3.org/2000/svg" width="682.7" height="682.7" viewBox="0 0 512 512"><path d="M244.3 1.5c-13 3.6-9.4.3-124.6 115.3A6671.9 6671.9 0 0 0 8 229.9 47 47 0 0 0 48.2 303H55v80c0 54.1.4 81.6 1.1 85.2a57.6 57.6 0 0 0 36.7 41c6.6 2.3 7.1 2.3 55.4 2.3 47.6 0 48.7 0 51.4-2.1 1.5-1.1 3.7-3.3 4.8-4.8 2.1-2.7 2.1-4 2.6-69.5l.5-66.8 3-4.9c3.8-6.1 11.5-11 18.9-11.9 2.8-.4 16.8-.5 31.1-.3l26 .3 5.3 2.9c5 2.8 8.2 6.1 11.3 11.6 1.1 2.1 1.5 14.4 1.9 69.2.5 65.4.5 66.7 2.6 69.4 1.1 1.5 3.3 3.7 4.8 4.8 2.7 2.1 3.8 2.1 51.4 2.1 48.3 0 48.8 0 55.4-2.3a57.6 57.6 0 0 0 36.7-41c.7-3.6 1.1-31.1 1.1-85.2v-80h6.8a47.2 47.2 0 0 0 43.1-68c-2.9-6-11.6-15-111.8-115.3C335.4 59.9 284.4 9.6 281.8 7.9s-7.1-4-10-5.1c-7-2.7-20.4-3.3-27.5-1.3"/></svg>