<svg xmlns="http://www.w3.org/2000/svg" width="192" height="178" fill="none" viewBox="0 0 192 178"><path fill="#000" d="M189.8 145.1a12.8 12.8 0 0 0 1.7-10.3c-.7-2.5-2-4.6-3.9-6.1a12.8 12.8 0 0 0 1.7-4.9c.6-3.7-.7-7.4-3.4-10.4a11.5 11.5 0 0 0-8.6-3.7l-1.2.1a84.5 84.5 0 0 0 3.8-25.3 84.5 84.5 0 0 0-169 0 84.5 84.5 0 0 0 3.8 25.2c-3.4 0-6.5 1.3-8.6 3.7-2.8 3-4 6.7-3.5 10.4a12.8 12.8 0 0 0 1.7 4.9 11.6 11.6 0 0 0-3.9 6 12.8 12.8 0 0 0 1.7 10.4l-.4.9a11.4 11.4 0 0 0-.4 10c2.3 5.1 7.8 9.1 18.6 13.4a96.7 96.7 0 0 0 36.7 7.8c11.5 0 20-3 25.4-9.2a85.5 85.5 0 0 0 27.8-.2c5.4 6.3 14 9.4 25.5 9.4 6.9 0 15-1.1 23.8-3.4 0 0 6.2-1.7 12.9-4.4 10.8-4.3 16.3-8.3 18.6-13.3 1.5-3.4 1.3-7-.3-10.1a10 10 0 0 0-.5-.9M78 158.3a34 34 0 0 1-1.5 2.4c-1.4 2-3.2 3.6-5.4 4.8-4 2.2-9.3 3-14.5 3-8.4 0-16.9-2-21.7-3.2-.2 0-29.3-8.3-25.6-15.2.6-1.2 1.6-1.7 2.9-1.7 5.2 0 14.6 7.7 18.7 7.7.9 0 1.5-.4 1.8-1.3 1.7-6.2-26.3-8.8-24-17.8.5-1.6 1.6-2.2 3.2-2.2 6.8 0 22.2 12 25.5 12 .2 0 .4 0 .5-.2 1.5-2.6.7-4.4-9.7-10.7l-1-.6c-11.4-7-19.4-11-14.8-16 .5-.6 1.2-.8 2.1-.8 1.1 0 2.4.3 3.8 1A85.6 85.6 0 0 1 38 133.2s4.4 4.6 7 4.6c.7 0 1.2-.2 1.6-.8 1.9-3.2-17.6-18-18.7-24-.7-4.2.5-6.2 2.9-6.2 1 0 2.4.4 4 1.4 4.6 3 13.6 18.4 16.9 24.4 1 2 3 2.8 4.6 2.8 3.4 0 6-3.3.3-7.6-8.5-6.4-5.5-16.8-1.4-17.4h.5c3.7 0 5.3 6.3 5.3 6.3s4.8 12 13 20.3c7.5 7.4 8.6 13.6 4.2 21.2m26.7 1.4h-.5l-.7.2h-1.1l-.4.1h-.9l-.5.1h-1.1l-.6.1h-8.4a80 80 0 0 1-1.1-.1H89l-.5-.1h-.5a50 50 0 0 1-1-.2c4.6-10.2 2.3-19.7-7-29-6-6-10-14.9-10.9-16.9-1.7-5.8-6.2-12.2-13.6-12.2a12 12 0 0 0-1.9.1c-3.2.6-6 2.4-8.1 5.2a28.6 28.6 0 0 0-6.3-6c-2.9-2-5.8-2.9-8.6-2.9-3.5 0-6.7 1.5-8.9 4.1l-.2-.4a74 74 0 0 1-1-5.5l-.1-.4a90 90 0 0 1-.2-1.2V94l-.1-.5V93a78 78 0 0 1-.3-2.5v-.9l-.1-.5v-1.2l-.1-.6v-2.8a75.8 75.8 0 0 1 151.5 0v3.8l-.1.5v.4a79 79 0 0 1-.2 2.8v.5l-.2 1.2v.5l-.1.4-.1.6-.1.5v.5l-.1.5-.1.5-.1.6-.2 1a101 101 0 0 1-.4 2l-.1.5c-2.2-2-5-3.2-8.1-3.2-2.8 0-5.8 1-8.7 2.8-1.9 1.2-4 3.4-6.2 6.1-2-2.8-5-4.7-8.2-5.2a12 12 0 0 0-1.8-.1c-7.5 0-12 6.4-13.6 12.2-.9 2-5 11-11 17-9.2 9.2-11.5 18.7-7 28.8m78.2-20.4V139.6a5.3 5.3 0 0 1-.5.8l-.6.7-.1.2-.2.2a20.6 20.6 0 0 1-5.8 3.6l-.8.3-.2.1-.6.3-.5.2-.6.2-4 1.6-.5.2-.5.2-1.1.5-.6.2-.5.2h-.2l-.5.3c-3.9 1.7-6.6 3.3-6 5.4v.2l.2.4.2.2c.7.7 2 .6 3.5 0h.4l.2-.2h.2l1-.5.4-.2 6.2-3.3 1-.5a46 46 0 0 1 1.6-.9c2-1 4-1.6 5.5-1.6.8 0 1.4.2 2 .5l.7.7.1.2.2.3c.7 1.4 0 2.9-1.4 4.4a25.6 25.6 0 0 1-6.2 4l-.6.3c-7.5 3.7-17.4 6.5-17.5 6.5a113 113 0 0 1-10.6 2.3h-.7l-3 .5-5.4.4h-2.7a47 47 0 0 1-3-.1l-1-.1a38 38 0 0 1-1.9-.3h-.7l-.3-.1a28 28 0 0 1-1.1-.3l-.6-.1h-.1l-.3-.1-.4-.1-.3-.1-.3-.1-.4-.1-.2-.1h-.2l-.6-.3h-.2l-.1-.1a24 24 0 0 1-.9-.4h-.1l-.3-.2a17 17 0 0 1-.4-.2h-.2a15 15 0 0 1-1-.6l-.1-.1-.3-.2-.2-.1a8 8 0 0 1-.2-.2l-.2-.1-.4-.3-.3-.2a14 14 0 0 1-.5-.4 12 12 0 0 1-.4-.5l-.3-.2-.2-.3-.2-.2a12 12 0 0 1-.3-.2 15 15 0 0 1-1-1.4l-.1-.2-.3-.3-.2-.4a30 30 0 0 1-.6-1l-.2-.2v-.2l-.2-.2v-.1l-.3-.4v-.2l-.1-.2-.1-.1-.2-.4v-.2q-.2-.1-.2-.3l-.1-.2-.2-.5-.2-.3-.3-1-.1-.3a12 12 0 0 1-.2-.7 13 13 0 0 1-.2-.8 9 9 0 0 1-.1-.5v-.5l-.2-1v-.1a8 8 0 0 1 0-.3c0-4.3 2.1-8.4 6.8-13 8.2-8.2 13-20.3 13-20.3l.4-1.2.3-.7.3-.8v-.1l.6-1 .2-.2a10 10 0 0 1 .4-.6 6 6 0 0 1 .4-.5c.5-.5 1-.9 1.7-1v-.1h.2l.2-.1H137c.7 0 1.4.5 2 1.2l.1.1.5.8.4.6.1.2v.2l.2.2.5 1.7.2 1.8v1.2a12 12 0 0 1-.8 3.5l-.2.3a12 12 0 0 1-.7 1.5l-.5.8-.1.2a13.5 13.5 0 0 1-1.5 1.7 15.5 15.5 0 0 1-1.7 1.5q-1 .6-1.7 1.4c-1.5 1.6-1.8 3-1.5 4l.1.4.5.7.2.2h.1l.5.3.1.1.7.3h.5l.1.1H136.4a5 5 0 0 0 1.7-.5 5.3 5.3 0 0 0 1.1-.8l.2-.2.4-.5.6-.8a229 229 0 0 1 6.1-10.5l.3-.5.3-.5.5-.7.4-.7 1.2-1.8.3-.5 1.9-2.6.3-.4a55 55 0 0 1 2-2.7l.3-.3.1-.2.3-.3.2-.2.2-.3.2-.1.4-.5.2-.2a10.5 10.5 0 0 1 1.7-1.4h.1l.2-.2.2-.1c2.4-1.4 4.4-1.5 5.5-.4.7.7 1 1.9 1 3.4v1.3l-.1.4a4 4 0 0 1 0 .2v.2l-.2.4a6 6 0 0 1-.3.8 9 9 0 0 1-.1.3l-.4.6-.2.4-.1.2-.4.5-.4.6-.5.7-.2.2a54 54 0 0 1-1.4 1.7l-.3.4-.2.2-.8.8-.2.3-.4.4-.4.4-.4.4-.4.5-.4.4-.9.9c-4 4.2-8.3 8.3-9.8 10.9a6 6 0 0 0-.2.5c-.2.5-.3.9-.2 1.2v.3l.4.4.1.1c.3.2.7.4 1 .3H147.9l.1-.1.3-.1.5-.2h.1l.2-.2.5-.2.4-.3h.1l.2-.2.2-.1.2-.1.5-.4.3-.2 1-.9.2-.2.1-.1.7-.6v-.1l.3-.2.1-.1.2-.2.1-.1.3-.2v-.1l.3-.2.1-.1.2-.2.3-.3 1.6-1.3.3-.3.8-.7 1.8-1.4.4-.3 1-.9.5-.3a115 115 0 0 1 3.8-2.8l.3-.3.8-.5.3-.2 1.4-1 .3-.1.2-.1.7-.5.3-.1.5-.3.4-.3h.1l.4-.2.5-.3.2-.1.2-.1a23 23 0 0 1 1.6-.7l.2-.1.4-.2.4-.1.4-.1h.2v-.1h.4l.5-.2h.7l.4-.1H178.2l.2.1c.4.1.7.3 1 .6l.1.1 1 1.4v.1l.3.7-.1 1.7a5 5 0 0 1-.4.8v.1a8.3 8.3 0 0 1-1.1 1.5h-.1a13 13 0 0 1-.8.8l-.2.1-.6.6-.1.1-.5.4-1.8 1.3-1.1.7-2.2 1.4-.6.4-6.5 4-.6.3-1.9 1.1-.3.2-.5.4-.7.4-.4.3-.3.2-.5.3h-.1l-.4.3-.3.2-.2.2-.3.2-1.1.8-.2.1-.4.3-.2.2-.8.7-.2.1-.2.2-.1.2-.5.5-.4.5v.1l-.4.6v.1h-.1v.2a2 2 0 0 0-.2.4v.9l.1.1.1.4.2.4.1.1v.1l.1.1.1.1h.1v.1h.1c.6.2 1.8-.3 3.4-1.1l.3-.2.4-.2.3-.2.5-.3.3-.1 7.2-4.3.7-.4.5-.3.7-.4a80 80 0 0 1 3.1-1.7l.5-.3 1-.4a42 42 0 0 1 1.8-.8l.3-.2c1.8-.7 3.4-1.1 4.7-1.1h.9l.2.1.4.1.3.1a2.5 2.5 0 0 1 1 1l.2.4v.2l.2.3a4 4 0 0 1-.1 2.3"/><path fill="#000" fill-rule="evenodd" d="M120 63.9c1.2.4 2.1 1.7 3 2.9 1 1.6 2.1 3.1 3.7 2.3a10.9 10.9 0 0 0 5.8-10.7 10.9 10.9 0 0 0-9.3-9.7 10.9 10.9 0 0 0-10 3.8 11 11 0 0 0-1.2 12c.7 1.5 2.4.8 4.1.1 1.4-.5 2.9-1.1 4-.7m-51.4 0c-1.2.4-2 1.7-3 2.9-1 1.6-2.1 3.1-3.7 2.3a10.9 10.9 0 0 1-5.6-7.5 10.9 10.9 0 0 1 2.2-9 11 11 0 0 1 8.5-4 11 11 0 0 1 10.8 9.8 10.9 10.9 0 0 1-1.2 6.2c-.7 1.4-2.4.7-4.1 0-1.4-.5-2.8-1.1-4-.7m43.5 46.7a31.4 31.4 0 0 0 11.1-23.3c0-5.1-3.4-3.5-8.9-.8l-.3.2c-5 2.5-11.8 5.8-19.1 5.8-7.4 0-14.1-3.3-19.2-5.8-5.6-2.8-9.2-4.6-9.2.6 0 6.6 3.2 17.6 12 24a19 19 0 0 1 11.5-9.9c.9-.2 1.8 1.3 2.7 2.8.9 1.5 1.8 3 2.7 3 1 0 2-1.5 3-3 .9-1.5 1.9-3 2.8-2.6a19 19 0 0 1 10.9 9" clip-rule="evenodd"/><path fill="#000" d="M112 110.6a27 27 0 0 1-17.1 5.6c-7 0-12.3-2-16.5-5a19 19 0 0 1 11.6-9.8c1.7-.5 3.5 5.8 5.4 5.8 2 0 4-6.2 5.8-5.6a19 19 0 0 1 10.9 9"/><path fill="#000" fill-rule="evenodd" d="M49.2 73a7 7 0 0 1-5.3 1 7 7 0 0 1-2.6-12.8A7 7 0 0 1 49.2 73m101.4 0a7 7 0 0 1-7.9 0 7 7 0 0 1-3-4.5 7.1 7.1 0 0 1 1-5.4 7 7 0 0 1 7.3-3 7 7 0 0 1 5.6 8.3 7.1 7.1 0 0 1-3 4.6" clip-rule="evenodd"/></svg>