<svg width="192" height="178" viewBox="0 0 192 178" fill="none" xmlns="http://www.w3.org/2000/svg">
<path d="M189.779 145.132C190.78 143.627 191.451 141.928 191.749 140.146C192.047 138.363 191.964 136.538 191.507 134.79C190.843 132.268 189.471 130.17 187.609 128.663C188.505 127.189 189.094 125.549 189.339 123.841C189.875 120.127 188.643 116.418 185.869 113.395C183.71 111.042 180.656 109.747 177.276 109.747C176.883 109.747 176.484 109.767 176.076 109.808C178.637 101.62 179.936 93.089 179.928 84.51C179.928 37.8389 142.091 0 95.4177 0C48.7447 0 10.9037 37.8349 10.9037 84.51C10.8956 93.067 12.188 101.576 14.7367 109.745H14.6467C11.2667 109.745 8.21367 111.04 6.05467 113.393C3.28267 116.414 2.04868 120.125 2.58468 123.839C2.82938 125.547 3.41788 127.187 4.31468 128.661C2.45268 130.168 1.08068 132.266 0.417677 134.789C-0.0401229 136.537 -0.122726 138.363 0.175474 140.146C0.473674 141.928 1.14578 143.628 2.14768 145.132C1.96868 145.409 1.80468 145.697 1.65068 145.991C-0.0193249 149.162 -0.127323 152.745 1.34768 156.082C3.58268 161.139 9.13767 165.124 19.9247 169.4C26.6317 172.061 32.7747 173.761 32.8287 173.777C41.7007 176.078 49.7237 177.247 56.6697 177.247C68.0757 177.247 76.5857 174.127 82.0207 167.962C91.2167 169.421 100.59 169.368 109.769 167.805C115.196 174.073 123.755 177.247 135.257 177.247C142.203 177.247 150.227 176.078 159.099 173.777C159.153 173.761 165.293 172.061 172.003 169.4C182.79 165.124 188.345 161.139 190.58 156.082C192.055 152.745 191.948 149.162 190.277 145.991C190.124 145.694 189.956 145.407 189.779 145.132ZM78.1317 158.312C77.6637 159.131 77.1627 159.93 76.6287 160.707C75.2237 162.764 73.3757 164.335 71.2317 165.504C67.1307 167.739 61.9417 168.521 56.6687 168.521C48.3407 168.521 39.8027 166.572 35.0167 165.33C34.7817 165.269 5.68267 157.05 9.36667 150.054C9.98667 148.878 11.0077 148.408 12.2917 148.408C17.4787 148.408 26.9238 156.132 30.9838 156.132C31.8898 156.132 32.5297 155.745 32.7907 154.804C34.5207 148.599 6.49768 145.991 8.85768 137.007C9.27468 135.417 10.4037 134.772 11.9927 134.772C18.8497 134.771 34.2417 146.831 37.4607 146.831C37.7077 146.831 37.8847 146.759 37.9807 146.607L38.0227 146.538C39.5327 144.043 38.6667 142.229 28.3147 135.889L27.3207 135.284C15.9307 128.389 7.93468 124.241 12.4827 119.291C13.0057 118.719 13.7467 118.466 14.6477 118.466C15.7167 118.466 17.0097 118.824 18.4337 119.423C24.4497 121.96 32.7877 128.879 36.2707 131.897C37.2977 132.791 37.9027 133.337 37.9027 133.337C37.9027 133.337 42.3127 137.923 44.9797 137.923C45.5937 137.923 46.1137 137.682 46.4667 137.083C48.3587 133.895 28.9037 119.153 27.8067 113.071C27.0637 108.949 28.3287 106.862 30.6697 106.862C31.7817 106.862 33.1397 107.335 34.6387 108.286C39.2887 111.238 48.2667 126.666 51.5537 132.667C52.6557 134.679 54.5367 135.529 56.2317 135.529C59.5947 135.529 62.2237 132.186 56.5397 127.938C47.9967 121.545 50.9947 111.097 55.0717 110.454C55.2457 110.427 55.4217 110.413 55.5967 110.412C59.3047 110.412 60.9407 116.802 60.9407 116.802C60.9407 116.802 65.7337 128.84 73.9687 137.068C81.4417 144.537 82.4847 150.667 78.1317 158.312ZM104.761 159.722L104.334 159.773L103.605 159.857C103.222 159.896 102.839 159.934 102.454 159.97L102.078 160.004L101.736 160.033L101.249 160.072C101.07 160.085 100.891 160.099 100.712 160.11L100.176 160.146L99.6357 160.178L98.9567 160.212L98.3757 160.236L97.8477 160.254L97.4957 160.264H97.3177C97.2077 160.264 97.0987 160.27 96.9887 160.271H96.8137C96.7037 160.271 96.5947 160.271 96.4847 160.277L96.0377 160.282H95.4117C94.9207 160.282 94.4317 160.277 93.9427 160.268L93.5467 160.259C93.4347 160.259 93.3217 160.253 93.2097 160.25L92.7907 160.237L92.2687 160.217L91.7997 160.197L91.6777 160.192L91.2307 160.168C91.1067 160.161 90.9827 160.155 90.8597 160.147L90.5707 160.13C90.2077 160.107 89.8447 160.081 89.4817 160.053L89.1017 160.023L88.6217 159.982L88.0607 159.93C87.7477 159.901 87.4347 159.869 87.1217 159.834H87.1067C91.6767 149.639 89.3657 140.118 80.1307 130.89C74.0747 124.842 70.0447 115.909 69.2097 113.948C67.5177 108.143 63.0387 101.69 55.6017 101.69C54.9727 101.691 54.3457 101.741 53.7247 101.839C50.4657 102.351 47.6177 104.227 45.5857 107.049C43.3907 104.318 41.2557 102.147 39.3257 100.92C36.4157 99.076 33.5127 98.14 30.6827 98.14C27.1527 98.14 23.9957 99.59 21.7957 102.22L21.7407 102.287L21.6167 101.766L21.6117 101.744C21.1933 99.954 20.8418 98.148 20.5577 96.332C20.5577 96.319 20.5577 96.307 20.5517 96.295L20.4897 95.884C20.4562 95.662 20.4235 95.439 20.3917 95.217C20.3657 95.032 20.3397 94.847 20.3157 94.663C20.2917 94.479 20.2657 94.294 20.2437 94.109C20.2197 93.923 20.1977 93.738 20.1757 93.553C20.1546 93.377 20.1343 93.201 20.1147 93.025L20.1088 92.98C20.0186 92.168 19.9413 91.355 19.8767 90.541L19.8417 90.07C19.8317 89.941 19.8227 89.811 19.8147 89.68C19.8147 89.65 19.8107 89.619 19.8087 89.591L19.7758 89.069C19.7638 88.88 19.7547 88.691 19.7447 88.502C19.7347 88.314 19.7247 88.125 19.7167 87.935L19.6907 87.29L19.6757 86.832L19.6648 86.444C19.6648 86.289 19.6577 86.133 19.6547 85.978L19.6467 85.489C19.6447 85.326 19.6467 85.164 19.6427 85.001C19.6377 84.837 19.6427 84.674 19.6427 84.51C19.6427 42.6579 53.5737 8.7269 95.4297 8.7269C137.286 8.7269 171.216 42.6559 171.216 84.51V85.489C171.216 85.652 171.212 85.816 171.208 85.978C171.208 86.114 171.203 86.247 171.199 86.383C171.199 86.504 171.194 86.624 171.189 86.741C171.189 86.894 171.18 87.046 171.175 87.199V87.212C171.162 87.544 171.148 87.876 171.134 88.208L171.128 88.318L171.102 88.814L171.078 89.207C171.022 90.138 170.949 91.069 170.86 91.998V92.011C170.844 92.185 170.826 92.36 170.807 92.534C170.763 92.939 170.718 93.344 170.673 93.749L170.622 94.156L170.559 94.634C170.537 94.809 170.513 94.983 170.488 95.157C170.461 95.352 170.432 95.546 170.404 95.74L170.334 96.198L170.252 96.718C170.224 96.891 170.196 97.063 170.163 97.236C170.129 97.408 170.103 97.58 170.073 97.753C170.013 98.097 169.951 98.44 169.884 98.783C169.751 99.466 169.612 100.147 169.465 100.827C169.428 100.996 169.39 101.166 169.351 101.335C167.218 99.262 164.394 98.133 161.278 98.133C158.451 98.133 155.545 99.068 152.636 100.913C150.705 102.139 148.572 104.311 146.375 107.042C144.34 104.219 141.492 102.344 138.237 101.831C137.616 101.734 136.988 101.684 136.359 101.683C128.92 101.683 124.444 108.136 122.751 113.941C121.912 115.902 117.882 124.834 111.819 130.892C102.591 140.09 100.262 149.569 104.761 159.722ZM183.001 139.314L182.971 139.403C182.95 139.46 182.929 139.517 182.906 139.573C182.87 139.658 182.832 139.741 182.792 139.824C182.695 140.022 182.585 140.214 182.464 140.398C182.297 140.647 182.114 140.885 181.915 141.109C181.869 141.161 181.825 141.212 181.773 141.263C181.703 141.34 181.628 141.415 181.554 141.49C180.207 142.825 178.155 143.994 175.835 145.068C175.572 145.187 175.306 145.306 175.036 145.425L174.768 145.544C174.589 145.623 174.411 145.702 174.223 145.779C174.04 145.857 173.856 145.934 173.672 146.01L173.114 146.241C171.809 146.778 170.472 147.289 169.167 147.795L168.61 148.011L168.058 148.227C167.692 148.37 167.33 148.513 166.973 148.656L166.442 148.87L165.921 149.084L165.664 149.191C165.494 149.263 165.326 149.333 165.16 149.405C161.322 151.051 158.562 152.726 159.142 154.805C159.158 154.864 159.176 154.92 159.196 154.974C159.248 155.128 159.319 155.274 159.407 155.41C159.459 155.492 159.519 155.569 159.586 155.639C160.268 156.347 161.509 156.235 163.074 155.673C163.201 155.627 163.331 155.578 163.462 155.526C163.552 155.492 163.641 155.456 163.731 155.42L163.866 155.363C164.224 155.211 164.603 155.042 164.991 154.857C165.088 154.812 165.186 154.768 165.284 154.716C167.197 153.781 169.366 152.52 171.518 151.373C171.848 151.194 172.179 151.023 172.508 150.853C173.046 150.574 173.589 150.305 174.137 150.048C176.175 149.09 178.09 148.41 179.631 148.41C180.353 148.41 180.992 148.558 181.523 148.898L181.612 148.957C181.881 149.147 182.115 149.38 182.306 149.648C182.35 149.711 182.396 149.776 182.435 149.843C182.477 149.912 182.517 149.983 182.555 150.055C183.316 151.499 182.679 152.996 181.189 154.463C179.758 155.871 177.532 157.252 175.001 158.531C174.814 158.626 174.625 158.721 174.435 158.813C166.904 162.511 157.044 165.296 156.906 165.331C154.278 166.012 150.52 166.907 146.287 167.576L145.66 167.673L145.558 167.688C144.598 167.832 143.635 167.959 142.67 168.069L142.581 168.078C140.826 168.278 139.026 168.423 137.223 168.484H137.196C136.548 168.508 135.901 168.519 135.253 168.519H134.507C133.519 168.505 132.532 168.461 131.547 168.385C131.524 168.385 131.5 168.385 131.476 168.38C131.124 168.353 130.771 168.32 130.42 168.281C129.816 168.216 129.213 168.136 128.612 168.042C128.378 168.003 128.128 167.962 127.887 167.92C127.777 167.9 127.668 167.88 127.559 167.858L127.533 167.853C127.186 167.787 126.841 167.714 126.497 167.635C126.298 167.59 126.098 167.545 125.901 167.492L125.783 167.461C125.685 167.437 125.589 167.411 125.493 167.385L125.44 167.371L125.131 167.282C125.019 167.25 124.908 167.217 124.796 167.184L124.756 167.172L124.465 167.083C124.355 167.049 124.246 167.013 124.137 166.978C124.047 166.948 123.958 166.917 123.868 166.888L123.671 166.819C123.481 166.753 123.293 166.683 123.105 166.611L122.927 166.542L122.78 166.483C122.497 166.369 122.215 166.25 121.936 166.125L121.75 166.036L121.719 166.022C121.653 165.991 121.588 165.96 121.522 165.932C121.393 165.87 121.265 165.806 121.138 165.741L121.1 165.722L120.916 165.625C120.589 165.455 120.268 165.273 119.954 165.079L119.782 164.974C119.693 164.92 119.612 164.865 119.527 164.81L119.303 164.661C119.222 164.607 119.141 164.552 119.062 164.495L118.918 164.393C118.766 164.284 118.617 164.173 118.47 164.058C118.392 163.998 118.315 163.936 118.238 163.879C118.067 163.742 117.9 163.601 117.735 163.456L117.728 163.45C117.567 163.311 117.41 163.167 117.257 163.02L117.249 163.01C117.169 162.934 117.091 162.858 117.013 162.779C116.936 162.7 116.858 162.622 116.783 162.543C116.707 162.463 116.631 162.382 116.557 162.299C116.485 162.221 116.415 162.142 116.345 162.062L116.321 162.035C115.96 161.616 115.622 161.177 115.309 160.72L115.185 160.537C115.103 160.416 115.022 160.294 114.942 160.172L114.706 159.809C114.59 159.632 114.477 159.453 114.367 159.273C114.288 159.145 114.21 159.017 114.133 158.888C114.068 158.778 114.003 158.669 113.941 158.561C113.906 158.502 113.873 158.442 113.84 158.382C113.807 158.32 113.768 158.257 113.733 158.194L113.677 158.095C113.658 158.062 113.652 158.052 113.642 158.03C113.574 157.911 113.508 157.79 113.444 157.667C113.415 157.614 113.386 157.56 113.355 157.507L113.265 157.335L113.176 157.164L113.004 156.817C112.976 156.76 112.949 156.703 112.922 156.646C112.863 156.523 112.807 156.402 112.751 156.281C112.729 156.232 112.706 156.183 112.686 156.134C112.609 155.967 112.536 155.798 112.467 155.627C112.42 155.514 112.377 155.402 112.331 155.29C112.202 154.96 112.081 154.627 111.97 154.29C111.937 154.19 111.904 154.091 111.875 153.991C111.803 153.764 111.738 153.535 111.68 153.304C111.609 153.035 111.546 152.763 111.493 152.49C111.459 152.329 111.429 152.167 111.404 152.004C111.377 151.843 111.354 151.682 111.335 151.522C111.294 151.203 111.265 150.883 111.248 150.562C111.248 150.509 111.243 150.455 111.242 150.402C111.237 150.296 111.234 150.19 111.233 150.084C111.177 145.812 113.34 141.703 117.963 137.082C126.197 128.855 130.991 116.816 130.991 116.816C130.991 116.816 131.12 116.311 131.389 115.585C131.479 115.344 131.573 115.104 131.672 114.867C131.785 114.599 131.906 114.334 132.036 114.074L132.074 113.998C132.241 113.666 132.422 113.343 132.619 113.028C132.664 112.955 132.708 112.882 132.76 112.81C132.906 112.592 133.061 112.381 133.224 112.176C133.35 112.019 133.484 111.867 133.625 111.723C134.103 111.231 134.648 110.829 135.265 110.614L135.343 110.589C135.395 110.572 135.446 110.556 135.499 110.541C135.561 110.525 135.623 110.51 135.685 110.497L135.713 110.492C135.844 110.466 135.975 110.448 136.108 110.439H136.12C136.189 110.439 136.258 110.432 136.329 110.432C136.506 110.433 136.682 110.447 136.857 110.474C137.599 110.591 138.306 111.033 138.914 111.715L138.996 111.811C139.194 112.043 139.374 112.291 139.534 112.551C139.654 112.744 139.767 112.947 139.874 113.16C139.917 113.25 139.958 113.332 139.999 113.42C140.019 113.465 140.039 113.509 140.058 113.555C140.098 113.644 140.135 113.734 140.172 113.828C140.381 114.364 140.543 114.917 140.657 115.481C140.778 116.09 140.848 116.708 140.868 117.329C140.875 117.602 140.875 117.878 140.868 118.158C140.863 118.264 140.858 118.371 140.85 118.478C140.768 119.667 140.509 120.837 140.081 121.95C140.038 122.06 139.991 122.172 139.947 122.284C139.732 122.798 139.482 123.296 139.2 123.776C139.039 124.05 138.865 124.322 138.679 124.592L138.565 124.754C138.124 125.37 137.632 125.948 137.094 126.482C136.564 127.013 135.996 127.504 135.395 127.953C134.792 128.398 134.227 128.892 133.705 129.429C132.202 131.007 131.852 132.398 132.19 133.453C132.23 133.572 132.277 133.689 132.331 133.802C132.456 134.047 132.618 134.272 132.812 134.468L132.865 134.521C132.92 134.574 132.978 134.625 133.037 134.674L133.097 134.723C133.243 134.835 133.397 134.935 133.558 135.022C133.604 135.047 133.647 135.072 133.7 135.096C133.921 135.206 134.152 135.294 134.39 135.361L134.456 135.378L134.545 135.402L134.623 135.421L134.706 135.439L134.789 135.456L134.868 135.469C134.927 135.48 134.987 135.489 135.046 135.497L135.104 135.505L135.207 135.516L135.271 135.522L135.377 135.53H135.438L135.548 135.535H135.895L135.994 135.53L136.108 135.523L136.247 135.51L136.377 135.494C136.406 135.494 136.436 135.486 136.466 135.481C136.924 135.414 137.37 135.285 137.792 135.097C137.882 135.059 137.971 135.017 138.053 134.973C138.229 134.885 138.4 134.786 138.564 134.677C138.793 134.527 139.009 134.358 139.212 134.174L139.353 134.04C139.375 134.018 139.398 133.997 139.419 133.974C139.557 133.836 139.687 133.69 139.808 133.537C140.022 133.267 140.212 132.98 140.377 132.678C142.334 129.12 144.385 125.614 146.528 122.165L146.822 121.694L147.119 121.222C147.268 120.984 147.417 120.748 147.566 120.515L148.018 119.811C148.422 119.186 148.827 118.568 149.235 117.956L149.54 117.5C150.152 116.594 150.763 115.712 151.367 114.873L151.669 114.459C152.326 113.551 153.011 112.664 153.722 111.798L154.005 111.46C154.051 111.403 154.094 111.348 154.145 111.293L154.422 110.972C154.468 110.919 154.512 110.867 154.56 110.816L154.828 110.513L154.963 110.367C155.093 110.226 155.225 110.087 155.359 109.949C155.449 109.86 155.532 109.77 155.619 109.687C156.126 109.168 156.685 108.703 157.288 108.3L157.427 108.211L157.568 108.121C157.658 108.065 157.749 108.011 157.842 107.96C160.206 106.619 162.164 106.52 163.29 107.646C163.973 108.329 164.35 109.46 164.33 111.033C164.33 111.103 164.33 111.172 164.324 111.244V111.322C164.324 111.393 164.318 111.466 164.313 111.539C164.313 111.628 164.302 111.718 164.293 111.807C164.284 111.897 164.28 111.965 164.271 112.044C164.271 112.067 164.266 112.09 164.263 112.113C164.256 112.183 164.247 112.254 164.238 112.324C164.238 112.346 164.238 112.367 164.229 112.389C164.219 112.484 164.205 112.579 164.188 112.673C164.177 112.76 164.163 112.847 164.146 112.934C164.139 112.984 164.129 113.033 164.121 113.083C164.095 113.225 164.061 113.366 164.02 113.504C163.943 113.762 163.849 114.015 163.738 114.261C163.69 114.368 163.639 114.475 163.587 114.58C163.479 114.797 163.357 115.019 163.223 115.249C163.156 115.362 163.087 115.479 163.013 115.596L162.901 115.774C162.787 115.953 162.668 116.134 162.544 116.317C162.42 116.5 162.287 116.687 162.144 116.876C161.959 117.128 161.764 117.385 161.558 117.645L161.402 117.842C160.961 118.391 160.509 118.931 160.047 119.462L159.68 119.877L159.493 120.087C159.238 120.372 158.982 120.655 158.724 120.936L158.526 121.15C158.395 121.292 158.258 121.436 158.127 121.579C157.993 121.724 157.857 121.868 157.721 122.012L157.309 122.446L156.892 122.881C156.753 123.026 156.613 123.173 156.472 123.318L155.623 124.193C151.568 128.352 147.295 132.497 145.849 135.081C145.753 135.25 145.666 135.423 145.587 135.6C145.382 136.07 145.296 136.472 145.354 136.797C145.373 136.904 145.411 137.007 145.466 137.1C145.548 137.241 145.647 137.371 145.761 137.487C145.814 137.539 145.869 137.588 145.929 137.632C146.226 137.844 146.586 137.953 146.951 137.942H147.065L147.182 137.934L147.3 137.92L147.397 137.906C147.41 137.905 147.423 137.902 147.436 137.899L147.525 137.882L147.549 137.876L147.647 137.855L147.787 137.819L147.912 137.782C147.994 137.757 148.076 137.729 148.16 137.698C148.341 137.634 148.518 137.56 148.691 137.477C148.735 137.456 148.78 137.436 148.823 137.413L148.956 137.347C149.13 137.259 149.303 137.164 149.477 137.061C149.616 136.979 149.754 136.895 149.892 136.806L150.026 136.717C150.07 136.689 150.115 136.66 150.159 136.627L150.292 136.538L150.362 136.489L150.554 136.355C150.733 136.231 150.9 136.104 151.07 135.975L151.085 135.964L151.353 135.756C151.72 135.466 152.069 135.174 152.384 134.899L152.594 134.714L152.614 134.696L152.723 134.599C152.981 134.368 153.211 134.152 153.403 133.973L153.481 133.897L153.67 133.718L153.783 133.608L153.822 133.568L153.833 133.557C153.929 133.461 153.929 133.461 154.025 133.364L154.033 133.356L154.069 133.324C154.08 133.312 154.095 133.3 154.112 133.285L154.126 133.272L154.164 133.238L154.367 133.059L154.481 132.956C154.537 132.908 154.598 132.853 154.66 132.794L154.797 132.674C154.821 132.654 154.845 132.631 154.87 132.609L155.013 132.484L155.335 132.203C155.77 131.824 156.3 131.367 156.907 130.852L157.156 130.642L157.988 129.945C158.538 129.489 159.13 129.004 159.756 128.5L160.167 128.17C160.517 127.892 160.877 127.607 161.241 127.321C161.387 127.206 161.536 127.091 161.688 126.977C162.061 126.689 162.436 126.402 162.812 126.119C163.67 125.471 164.555 124.822 165.45 124.189L165.835 123.922C166.103 123.736 166.371 123.551 166.64 123.37L166.883 123.205C167.364 122.881 167.849 122.564 168.338 122.254L168.581 122.101L168.822 121.951C169.063 121.802 169.304 121.654 169.542 121.511L169.781 121.369L170.26 121.09C170.417 120.999 170.573 120.91 170.729 120.822L170.823 120.769L171.195 120.566C171.349 120.482 171.504 120.401 171.657 120.322L171.887 120.204L172.109 120.091C172.617 119.836 173.134 119.6 173.66 119.384C173.732 119.354 173.803 119.325 173.874 119.294C174.015 119.235 174.155 119.181 174.294 119.133C174.433 119.086 174.57 119.037 174.705 118.989C174.828 118.948 174.947 118.91 175.063 118.874L175.102 118.862C175.164 118.843 175.226 118.825 175.288 118.809L175.306 118.804C175.432 118.768 175.558 118.735 175.685 118.705H175.695C175.882 118.66 176.064 118.622 176.242 118.592C176.303 118.582 176.363 118.572 176.421 118.564C176.594 118.538 176.768 118.52 176.942 118.508C177.052 118.5 177.163 118.497 177.273 118.497H177.357C177.469 118.497 177.577 118.504 177.684 118.515C177.733 118.515 177.782 118.524 177.83 118.531H177.85C177.898 118.536 177.947 118.544 177.994 118.554C178.041 118.564 178.089 118.571 178.135 118.582H178.151C178.197 118.592 178.24 118.605 178.288 118.618C178.67 118.721 179.021 118.915 179.312 119.183L179.338 119.209L179.389 119.259L179.439 119.312C179.84 119.734 180.172 120.217 180.422 120.743L180.461 120.832C180.546 121.032 180.613 121.239 180.66 121.451C180.79 122.042 180.755 122.658 180.558 123.23C180.473 123.479 180.369 123.721 180.246 123.953L180.164 124.101C179.852 124.624 179.484 125.111 179.065 125.553L178.975 125.648C178.778 125.857 178.573 126.06 178.362 126.255C178.295 126.318 178.226 126.381 178.156 126.444L178.05 126.54C177.83 126.735 177.605 126.925 177.377 127.111C177.337 127.143 177.296 127.175 177.257 127.209C177.098 127.337 176.934 127.467 176.764 127.597C176.178 128.045 175.581 128.477 174.973 128.894C174.615 129.139 174.245 129.386 173.863 129.637C173.151 130.104 172.434 130.561 171.71 131.009C171.501 131.138 171.291 131.269 171.077 131.399C169.11 132.609 166.929 133.903 164.603 135.31L164.001 135.676C163.342 136.078 162.72 136.462 162.135 136.827L161.84 137.013L161.282 137.371C161.061 137.511 160.846 137.649 160.637 137.785C160.479 137.886 160.325 137.986 160.174 138.085L159.876 138.281C159.731 138.376 159.587 138.471 159.443 138.568L159.303 138.657C159.155 138.756 159.011 138.853 158.871 138.949L158.642 139.105L158.373 139.292L158.125 139.465C157.733 139.74 157.346 140.021 156.962 140.307L156.828 140.409C156.677 140.523 156.531 140.637 156.39 140.748L156.206 140.895C155.896 141.144 155.615 141.383 155.361 141.611L155.237 141.725C155.166 141.79 155.096 141.855 155.03 141.919C154.983 141.963 154.94 142.008 154.893 142.052L154.828 142.116C154.685 142.259 154.546 142.406 154.411 142.557L154.345 142.633C154.198 142.803 154.07 142.966 153.957 143.125L153.907 143.197C153.777 143.387 153.662 143.588 153.564 143.797L153.53 143.87L153.509 143.921L153.492 143.965L153.469 144.026C153.462 144.047 153.448 144.084 153.44 144.116C153.399 144.235 153.369 144.358 153.349 144.483L153.339 144.55L153.331 144.611L153.326 144.67V144.984C153.326 145.01 153.326 145.037 153.332 145.064C153.333 145.08 153.335 145.096 153.337 145.112C153.337 145.138 153.344 145.164 153.347 145.191L153.366 145.301V145.306C153.373 145.341 153.38 145.376 153.389 145.411C153.398 145.446 153.407 145.485 153.418 145.522C153.45 145.635 153.489 145.747 153.534 145.856C153.534 145.864 153.541 145.873 153.544 145.881C153.556 145.908 153.567 145.936 153.58 145.963C153.629 146.077 153.684 146.188 153.744 146.297L153.807 146.41L153.873 146.524L153.942 146.638C153.954 146.657 153.967 146.674 153.982 146.691L154.005 146.715L154.029 146.737L154.056 146.758C154.074 146.771 154.093 146.782 154.113 146.793C154.133 146.802 154.155 146.812 154.177 146.82C154.201 146.828 154.225 146.835 154.249 146.841C154.826 146.971 156.012 146.493 157.587 145.661L157.87 145.511L158.349 145.25L158.584 145.12C158.75 145.03 158.921 144.93 159.094 144.831L159.411 144.652C161.494 143.453 163.983 141.912 166.555 140.408C166.795 140.267 167.037 140.127 167.279 139.987L167.765 139.677C168.008 139.537 168.25 139.399 168.493 139.263C169.527 138.675 170.575 138.11 171.634 137.569L172.109 137.328C172.425 137.172 172.738 137.02 173.047 136.872C173.646 136.588 174.251 136.319 174.862 136.064L175.197 135.928L175.238 135.912C177.012 135.209 178.621 134.774 179.923 134.774C180.205 134.772 180.486 134.795 180.764 134.843H180.772C180.862 134.859 180.943 134.877 181.025 134.898H181.04C181.16 134.927 181.278 134.964 181.392 135.01C181.483 135.043 181.571 135.082 181.656 135.128C182.029 135.317 182.348 135.596 182.586 135.94C182.606 135.969 182.625 135.999 182.643 136.03C182.731 136.164 182.807 136.305 182.869 136.453C182.906 136.538 182.94 136.626 182.972 136.721C183.004 136.817 183.032 136.909 183.061 137.008C183.273 137.766 183.252 138.568 183.001 139.314Z" fill="black"/>
<path fill-rule="evenodd" clip-rule="evenodd" d="M120.042 63.882C121.223 64.3 122.102 65.573 122.938 66.783C124.068 68.42 125.12 69.942 126.734 69.084C128.639 68.072 130.2 66.518 131.221 64.618C132.242 62.7185 132.676 60.5587 132.469 58.412C132.315 56.8069 131.807 55.2558 130.981 53.8708C130.155 52.4857 129.032 51.3011 127.694 50.4022C126.355 49.5034 124.833 48.9128 123.239 48.6729C121.644 48.433 120.016 48.5499 118.472 49.015C116.407 49.6369 114.573 50.8568 113.201 52.5207C111.83 54.1845 110.982 56.2176 110.765 58.363C110.549 60.5089 110.974 62.6706 111.986 64.575C112.734 65.982 114.394 65.319 116.146 64.618C117.52 64.069 118.95 63.497 120.042 63.882ZM68.6657 63.883C67.4847 64.301 66.6047 65.574 65.7687 66.784C64.6387 68.42 63.5867 69.943 61.9727 69.085C60.5497 68.328 59.3127 67.264 58.3497 65.971C57.3867 64.678 56.7227 63.188 56.4047 61.6072C56.0867 60.0267 56.1227 58.3955 56.5107 56.8308C56.8997 55.2661 57.6297 53.8068 58.6487 52.558C59.6697 51.3099 60.9537 50.3035 62.4097 49.6112C63.8657 48.9189 65.4577 48.5581 67.0697 48.5545C68.6817 48.551 70.2747 48.9049 71.7337 49.5907C73.1927 50.2766 74.4817 51.2774 75.5077 52.521C76.8797 54.1848 77.7277 56.2183 77.9447 58.3642C78.1607 60.5101 77.7357 62.6719 76.7227 64.576C75.9727 65.983 74.3127 65.319 72.5607 64.618C71.1877 64.069 69.7577 63.497 68.6657 63.883ZM112.094 110.634C120.237 104.218 123.228 93.745 123.228 87.293C123.228 82.193 119.796 83.798 114.303 86.517L113.994 86.671C108.951 89.168 102.239 92.492 94.8707 92.492C87.5017 92.492 80.7897 89.167 75.7487 86.67C70.0777 83.861 66.5207 82.099 66.5207 87.294C66.5207 93.949 69.7027 104.878 78.4377 111.228C79.5897 108.888 81.2117 106.811 83.2037 105.127C85.1947 103.443 87.5127 102.189 90.0117 101.442C90.8837 101.182 91.7817 102.683 92.7017 104.219C93.5887 105.702 94.4947 107.218 95.4177 107.218C96.3997 107.218 97.3657 105.724 98.3087 104.265C99.2937 102.741 100.254 101.255 101.183 101.552C105.859 103.053 109.77 106.308 112.094 110.634Z" fill="black"/>
<path d="M112.091 110.633C107.85 113.975 102.213 116.216 94.8727 116.216C87.9757 116.216 82.5807 114.239 78.4377 111.228C79.5907 108.889 81.2137 106.811 83.2047 105.128C85.1957 103.444 87.5137 102.19 90.0117 101.442C91.7247 100.931 93.5387 107.217 95.4167 107.217C97.4277 107.217 99.3647 100.971 101.183 101.552C105.857 103.054 109.767 106.308 112.091 110.633Z" fill="black"/>
<path fill-rule="evenodd" clip-rule="evenodd" d="M49.1948 72.956C48.421 73.477 47.552 73.84 46.6377 74.024C45.7233 74.208 44.7816 74.21 43.8665 74.03C42.9514 73.849 42.0809 73.49 41.3049 72.973C40.5289 72.455 39.8627 71.79 39.3444 71.014C38.8261 70.239 38.466 69.368 38.2847 68.454C38.1034 67.539 38.1044 66.597 38.2877 65.682C38.471 64.768 38.8331 63.899 39.353 63.124C39.873 62.3498 40.5407 61.6857 41.3178 61.1699C42.8808 60.1326 44.7913 59.7571 46.6306 60.1258C48.4699 60.4945 50.0881 61.5773 51.1307 63.137C52.1727 64.697 52.5547 66.606 52.1917 68.446C51.8287 70.287 50.7507 71.909 49.1948 72.956ZM150.607 72.956C149.833 73.477 148.964 73.84 148.05 74.024C147.136 74.208 146.194 74.21 145.279 74.03C144.364 73.849 143.493 73.49 142.717 72.973C141.941 72.455 141.275 71.79 140.757 71.014C140.238 70.239 139.878 69.368 139.697 68.454C139.516 67.539 139.517 66.597 139.7 65.682C139.883 64.768 140.245 63.899 140.765 63.124C141.285 62.3498 141.953 61.6857 142.73 61.1699C144.293 60.1326 146.204 59.7571 148.043 60.1258C149.882 60.4945 151.5 61.5773 152.543 63.137C153.585 64.697 153.967 66.606 153.604 68.446C153.241 70.287 152.163 71.909 150.607 72.956Z" fill="black"/>
</svg>
