<svg xmlns="http://www.w3.org/2000/svg" width="682.7" height="682.7" viewBox="0 0 512 512"><path d="M168.5 1.1c-13.7.4-29.5 1.2-35 1.9-40.4 4.8-69.1 18.1-92.6 42.7C15.2 72.7 4.3 103.6 1 158-.3 179.7-.3 328.8 1 351.6c3.2 56.4 14.2 87.6 40.3 115.1 23.3 24.5 53.6 37.8 97.7 42.9 29 3.4 206.3 2.9 237.5-.6 40.7-4.6 68.1-16.5 91.8-39.8 22.1-21.8 35.3-50.7 40.2-88.2 4.6-34.6 4.6-215.4 0-250.2C500 65.9 466.6 25.1 409.1 8.9c-17.3-4.8-34.5-6.8-68.8-7.9-34.5-1.1-133.6-1.1-171.8.1m184 46c70.6 4.7 101.4 28.9 109.9 86.2 2.8 18.3 3.9 66.8 3.3 144.7-.5 72.1-1 83.8-4.3 104.5-7.1 44.7-33.6 71.4-78.4 78.9-18.5 3.1-32.2 3.7-95.5 4.2-95.9.9-145.7-1-168.1-6.2-36.1-8.3-59-31.2-68.5-68.3-5.2-20.3-5.4-25.2-5.4-133.1 0-90.7.2-101.9 1.8-114.8 5.6-44.9 19.9-69.7 48.2-83.7 10.1-5 26.4-9.6 41.5-11.6 18.6-2.4 182.2-3.1 215.5-.8"/><path d="M382.7 90.4a30.5 30.5 0 0 0-11.6 50.5c6.4 6.3 12 8.6 21.4 8.6 6.7 0 8.9-.4 13.7-2.8a29 29 0 0 0 16.6-25.3 26.5 26.5 0 0 0-8.7-23.5 27.8 27.8 0 0 0-10.5-7.2c-5.9-2-15.6-2.1-20.9-.3M233 126.6c-25 4.5-48.5 16.5-67 34.1a129.8 129.8 0 0 0-37.7 65 92.3 92.3 0 0 0-2.8 29.3c0 25.2 3.1 39.6 13.1 59.4 19.6 39 56.7 65.5 100.3 71.7 12.8 1.8 35.2.6 47.8-2.5a131.4 131.4 0 0 0 87.1-69.6c9-17.8 13.2-36.6 13.2-58.6 0-34.8-12.4-65.3-36.7-90.5a131 131 0 0 0-71.7-38.4 183 183 0 0 0-45.6.1m40.4 45.9a81.6 81.6 0 0 1 42.7 23.4 80 80 0 0 1 24.7 55.7c.5 14.1-.6 22-4.9 34a86.1 86.1 0 0 1-63.8 54 77.4 77.4 0 0 1-20 1.1 71.5 71.5 0 0 1-33.6-8.7 85.3 85.3 0 0 1-44.6-53.2 97.8 97.8 0 0 1-1.5-38.9 86.3 86.3 0 0 1 66.1-67.4c8.2-1.8 26-1.8 34.9 0"/></svg>