<?xml version="1.0" standalone="no"?>
<!DOCTYPE svg PUBLIC "-//W3C//DTD SVG 20010904//EN"
 "http://www.w3.org/TR/2001/REC-SVG-20010904/DTD/svg10.dtd">
<svg version="1.0" xmlns="http://www.w3.org/2000/svg"
 width="512.000000pt" height="512.000000pt" viewBox="0 0 512.000000 512.000000"
 preserveAspectRatio="xMidYMid meet">

<g transform="translate(0.000000,512.000000) scale(0.100000,-0.100000)"
fill="#000000" stroke="none">
<path d="M565 5101 c-121 -30 -200 -76 -295 -171 -88 -88 -131 -158 -168 -272
-26 -82 -23 -263 5 -353 66 -208 249 -381 454 -430 82 -19 228 -19 304 0 217
55 405 243 460 460 19 76 19 222 0 304 -78 330 -430 544 -760 462z"/>
<path d="M3390 3519 c-135 -23 -293 -73 -425 -135 -6 -2 -19 15 -30 38 -11 24
-35 53 -54 66 l-34 22 -526 0 c-507 0 -527 -1 -559 -20 -18 -11 -41 -34 -52
-52 -20 -33 -20 -54 -20 -1684 l0 -1651 23 -34 c47 -71 33 -69 607 -69 515 0
515 0 554 23 21 12 47 38 57 57 18 33 19 78 19 952 0 633 3 933 11 970 42 198
235 343 434 325 165 -16 291 -112 357 -275 l23 -57 5 -952 c5 -943 5 -952 26
-980 47 -64 36 -63 602 -63 490 0 514 1 551 20 27 13 46 33 60 64 l22 44 -4
1079 c-3 1057 -3 1080 -24 1171 -133 580 -536 990 -1103 1124 -98 23 -425 34
-520 17z"/>
<path d="M149 3488 c-19 -13 -42 -39 -51 -58 -17 -33 -18 -134 -18 -1673 0
-1622 0 -1638 20 -1677 13 -26 34 -47 60 -60 38 -19 58 -20 552 -20 572 0 558
-2 605 69 l23 34 0 1649 c0 1792 4 1673 -55 1728 l-27 25 -537 3 -537 2 -35
-22z"/>
</g>
</svg>
