<svg xmlns="http://www.w3.org/2000/svg" width="682.7" height="682.7" viewBox="0 0 512 512"><path d="M56.5 1.9C44.4 4.9 36.5 9.5 27 19a60.8 60.8 0 0 0-16.8 27.2 78 78 0 0 0 .5 35.3 65.7 65.7 0 0 0 45.4 43 81.8 81.8 0 0 0 30.4 0 65.9 65.9 0 0 0 46-46 81.8 81.8 0 0 0 0-30.4c-7.8-33-43-54.4-76-46.2M339 160.1a174.7 174.7 0 0 0-42.5 13.5c-.6.2-1.9-1.5-3-3.8a18.7 18.7 0 0 0-5.4-6.6l-3.4-2.2h-52.6c-50.7 0-52.7.1-55.9 2a18.4 18.4 0 0 0-5.2 5.2c-2 3.3-2 5.4-2 168.4v165.1l2.3 3.4c4.7 7.1 3.3 6.9 60.7 6.9 51.5 0 51.5 0 55.4-2.3 2.1-1.2 4.7-3.8 5.7-5.7 1.8-3.3 1.9-7.8 1.9-95.2 0-63.3.3-93.3 1.1-97a41.7 41.7 0 0 1 43.4-32.5 41.6 41.6 0 0 1 35.7 27.5l2.3 5.7.5 95.2c.5 94.3.5 95.2 2.6 98 4.7 6.4 3.6 6.3 60.2 6.3 49 0 51.4-.1 55.1-2 2.7-1.3 4.6-3.3 6-6.4l2.2-4.4-.4-107.9c-.3-105.7-.3-108-2.4-117.1-13.3-58-53.6-99-110.3-112.4a227 227 0 0 0-52-1.7m-324.1 3.1a17.5 17.5 0 0 0-5.1 5.8C8.1 172.3 8 182.4 8 336.3 8 498.5 8 500.1 10 504c1.3 2.6 3.4 4.7 6 6 3.8 1.9 5.8 2 55.2 2 57.2 0 55.8.2 60.5-6.9l2.3-3.4V336.8c0-179.2.4-167.3-5.5-172.8l-2.7-2.5-53.7-.3-53.7-.2z"/></svg>