<svg xmlns="http://www.w3.org/2000/svg" width="180" height="193" fill="none" viewBox="0 0 180 193"><path fill="#000" d="M90.3 0c24.7.2 48.4 2.9 62.3 9.2 0 0 27.4 12.3 27.4 54.2 0 0 .3 30.9-3.8 52.3-2.7 13.6-23.7 28.5-48 31.4-12.5 1.5-25 2.9-38.2 2.3-21.6-1-38.6-5.2-38.7-5.2 0 2.1.1 4.1.4 6 2.8 21.4 21.2 22.7 38.6 23.3 17.5.6 33.2-4.4 33.2-4.4l.7 15.9s-12.3 6.6-34.2 7.8c-12 .7-27-.3-44.5-5C7.7 177.9 1.2 137.6.2 96.7-.1 84.4 0 73 0 63.4 0 21.6 27.4 9.3 27.5 9.2 41.3 3 65 .2 89.7 0zm28 32.7c-10.4 0-18.2 4-23.3 11.9L90 53l-5-8.4a25.9 25.9 0 0 0-23.2-11.9c-8.9 0-16 3.1-21.5 9.2-5.3 6.1-8 14.4-8 24.7v50.7h20.1V68.1c0-10.4 4.4-15.6 13.1-15.6C75.2 52.5 80 58.7 80 71V98h20V71c0-12.3 4.8-18.5 14.5-18.5 8.7 0 13 5.2 13 15.6v49.2h20.1V66.6c0-10.3-2.6-18.6-7.9-24.7-5.5-6-12.6-9.2-21.5-9.2"/></svg>