<svg xmlns="http://www.w3.org/2000/svg" width="210" height="210" fill="none" viewBox="0 0 210 210"><path fill="#000" d="M76.8 90.3q.1-14 8-21.6 7.8-7.8 21.5-7.8 8.5 0 14.7 2.7 6.2 2.5 9.6 7.5 3.4 5 3.4 12.2 0 4.9-1.6 8.6a22.8 22.8 0 0 1-4.1 6.4 60 60 0 0 1-5.3 5 154 154 0 0 0-5.4 5q-2.5 2.4-4 5.3-1.6 2.8-1.6 6.7H95q0-4.9 1.3-8.5 1.3-3.6 3.2-6.1 2-2.7 4.3-4.7a99 99 0 0 0 4.2-4.3q2.1-2 3.4-4.3 1.4-2.3 1.4-5.5 0-4.1-2.2-6t-6.5-2q-4.8 0-7.2 2.9t-2.5 8.7zm26.3 39.8q4.8 0 7.9 3.1 3 3 3 7.8t-3 8-8 3q-4.7 0-7.8-3t-3-8 3-7.8q3.1-3 7.9-3"/><path fill="#000" d="M105 0a105 105 0 1 1 0 210 105 105 0 0 1 0-210m0 17a88 88 0 1 0 0 176 88 88 0 0 0 0-176"/></svg>