<svg width="210" height="210" viewBox="0 0 210 210" fill="none" xmlns="http://www.w3.org/2000/svg">
<path d="M76.816 90.328C76.9013 81.0267 79.5467 73.816 84.752 68.696C89.9573 63.4907 97.1253 60.888 106.256 60.888C111.973 60.888 116.88 61.784 120.976 63.576C125.157 65.2827 128.357 67.8 130.576 71.128C132.88 74.456 134.032 78.5093 134.032 83.288C134.032 86.5307 133.477 89.3893 132.368 91.864C131.344 94.2533 129.979 96.3867 128.272 98.264C126.651 100.056 124.901 101.763 123.024 103.384C121.147 105.005 119.355 106.627 117.648 108.248C115.941 109.869 114.576 111.661 113.552 113.624C112.528 115.501 112.016 117.72 112.016 120.28H94.992C94.992 117.037 95.4187 114.221 96.272 111.832C97.1253 109.443 98.192 107.395 99.472 105.688C100.837 103.896 102.288 102.317 103.824 100.952C105.36 99.5013 106.768 98.0933 108.048 96.728C109.413 95.3627 110.523 93.912 111.376 92.376C112.315 90.84 112.784 89.0053 112.784 86.872C112.784 84.1413 112.059 82.136 110.608 80.856C109.157 79.576 106.981 78.936 104.08 78.936C100.923 78.936 98.5333 79.8747 96.912 81.752C95.2907 83.6293 94.4373 86.5307 94.352 90.456L76.816 90.328ZM103.056 130.136C106.299 130.136 108.944 131.16 110.992 133.208C113.04 135.171 114.064 137.773 114.064 141.016C114.064 144.259 113.04 146.904 110.992 148.952C108.944 151 106.299 152.024 103.056 152.024C99.8987 152.024 97.296 151 95.248 148.952C93.2 146.904 92.176 144.259 92.176 141.016C92.176 137.773 93.2 135.171 95.248 133.208C97.296 131.16 99.8987 130.136 103.056 130.136Z" fill="black"/>
<path d="M105 0C162.99 0 210 47.0101 210 105C210 162.99 162.99 210 105 210C47.0101 210 0 162.99 0 105C0 47.0101 47.0101 0 105 0ZM105 17C56.3989 17 17 56.3989 17 105C17 153.601 56.3989 193 105 193C153.601 193 193 153.601 193 105C193 56.3989 153.601 17 105 17Z" fill="black"/>
</svg>
