<?xml version="1.0" standalone="no"?>
<!DOCTYPE svg PUBLIC "-//W3C//DTD SVG 20010904//EN"
 "http://www.w3.org/TR/2001/REC-SVG-20010904/DTD/svg10.dtd">
<svg version="1.0" xmlns="http://www.w3.org/2000/svg"
 width="512.000000pt" height="512.000000pt" viewBox="0 0 512.000000 512.000000"
 preserveAspectRatio="xMidYMid meet">

<g transform="translate(0.000000,512.000000) scale(0.100000,-0.100000)"
fill="#000000" stroke="none">
<path d="M2315 5109 c-1080 -111 -1977 -887 -2238 -1934 -58 -232 -71 -349
-71 -615 0 -177 4 -265 18 -355 145 -950 773 -1720 1681 -2057 119 -44 363
-104 510 -125 180 -25 511 -25 690 1 1036 147 1885 910 2138 1921 55 219 72
366 72 615 0 249 -17 396 -72 615 -229 917 -957 1643 -1873 1869 -80 19 -192
43 -250 51 -126 19 -479 27 -605 14z m436 -609 c469 -48 904 -262 1225 -603
657 -698 712 -1751 132 -2520 -80 -107 -271 -296 -378 -376 -783 -582 -1858
-505 -2546 183 -288 288 -472 640 -546 1046 -30 165 -30 495 0 660 56 308 182
598 367 845 78 104 268 295 372 373 399 301 888 441 1374 392z"/>
<path d="M2377 4199 c-560 -65 -1052 -411 -1298 -914 -176 -362 -215 -776
-109 -1164 211 -769 962 -1283 1755 -1201 738 75 1324 622 1462 1363 23 128
23 426 0 554 -94 501 -383 910 -820 1161 -286 163 -661 240 -990 201z m270
-317 c49 -35 63 -77 63 -186 l0 -96 28 -6 c293 -64 497 -236 557 -469 31 -123
8 -207 -69 -244 -53 -26 -79 -26 -131 -1 -46 22 -85 80 -85 126 0 56 -21 104
-70 157 -47 52 -137 106 -202 122 l-28 7 0 -296 0 -296 28 -6 c293 -64 497
-236 557 -469 44 -173 -11 -344 -159 -490 -65 -65 -100 -90 -176 -128 -52 -26
-129 -55 -170 -66 l-75 -19 -5 -103 c-6 -122 -22 -159 -80 -189 -51 -26 -93
-25 -142 2 -59 33 -72 66 -78 187 l-5 104 -75 18 c-41 11 -118 40 -170 66
-207 103 -350 307 -350 500 0 110 115 185 214 138 50 -24 76 -64 86 -134 10
-74 38 -128 91 -175 38 -35 130 -84 187 -101 l22 -6 -2 297 -3 297 -75 18
c-41 11 -118 40 -170 66 -127 63 -240 172 -294 283 -167 343 63 702 516 804
26 6 26 6 30 113 3 92 6 113 25 139 47 65 146 82 210 36z"/>
<path d="M2338 3270 c-140 -57 -228 -160 -228 -265 0 -47 42 -126 90 -169 39
-35 130 -84 188 -101 l22 -6 0 280 c0 218 -3 281 -12 280 -7 0 -34 -9 -60 -19z"/>
<path d="M2710 2110 l0 -281 23 6 c57 17 148 66 187 101 48 43 90 122 90 169
0 57 -21 104 -70 158 -47 52 -137 106 -202 122 l-28 7 0 -282z"/>
</g>
</svg>
