<svg xmlns="http://www.w3.org/2000/svg" width="682.7" height="682.7" viewBox="0 0 512 512"><path d="M231.5 1.1A257.8 257.8 0 0 0 7.7 194.5 208.6 208.6 0 0 0 .6 256c0 17.7.4 26.5 1.8 35.5 14.5 95 77.3 172 168.1 205.7a317.1 317.1 0 0 0 51 12.5c18 2.5 51.1 2.5 69-.1a258 258 0 0 0 213.8-192.1c5.5-21.9 7.2-36.6 7.2-61.5s-1.7-39.6-7.2-61.5A257.8 257.8 0 0 0 292 2.5a382.2 382.2 0 0 0-60.5-1.4M275.1 62a195.5 195.5 0 0 1 122.5 60.3 194.5 194.5 0 0 1 13.2 252c-8 10.7-27.1 29.6-37.8 37.6a194.4 194.4 0 0 1-254.6-18.3A194.5 194.5 0 0 1 63.8 289c-3-16.5-3-49.5 0-66a201 201 0 0 1 36.7-84.5 252.3 252.3 0 0 1 37.2-37.3A195.6 195.6 0 0 1 275.1 62"/><path d="M237.7 92.1a166 166 0 0 0-129.8 91.4A166.2 166.2 0 0 0 97 299.9 165.5 165.5 0 0 0 272.5 420a165.4 165.4 0 0 0 146.2-136.3c2.3-12.8 2.3-42.6 0-55.4-9.4-50.1-38.3-91-82-116.1a168.6 168.6 0 0 0-99-20.1m27 31.7c4.9 3.5 6.3 7.7 6.3 18.6v9.6l2.8.6c29.3 6.4 49.7 23.6 55.7 46.9 3.1 12.3.8 20.7-6.9 24.4-5.3 2.6-7.9 2.6-13.1.1-4.6-2.2-8.5-8-8.5-12.6 0-5.6-2.1-10.4-7-15.7a47 47 0 0 0-20.2-12.2l-2.8-.7V242l2.8.6c29.3 6.4 49.7 23.6 55.7 46.9 4.4 17.3-1.1 34.4-15.9 49-6.5 6.5-10 9-17.6 12.8-5.2 2.6-12.9 5.5-17 6.6l-7.5 1.9-.5 10.3c-.6 12.2-2.2 15.9-8 18.9a13.7 13.7 0 0 1-14.2-.2c-5.9-3.3-7.2-6.6-7.8-18.7l-.5-10.4-7.5-1.8c-4.1-1.1-11.8-4-17-6.6-20.7-10.3-35-30.7-35-50 0-11 11.5-18.5 21.4-13.8 5 2.4 7.6 6.4 8.6 13.4 1 7.4 3.8 12.8 9.1 17.5a61 61 0 0 0 18.7 10.1l2.2.6-.2-29.7-.3-29.7-7.5-1.8c-4.1-1.1-11.8-4-17-6.6a66.7 66.7 0 0 1-29.4-28.3c-16.7-34.3 6.3-70.2 51.6-80.4 2.6-.6 2.6-.6 3-11.3.3-9.2.6-11.3 2.5-13.9a15.6 15.6 0 0 1 21-3.6"/><path d="M233.8 185c-14 5.7-22.8 16-22.8 26.5 0 4.7 4.2 12.6 9 16.9 3.9 3.5 13 8.4 18.8 10.1l2.2.6v-28c0-21.8-.3-28.1-1.2-28-.7 0-3.4.9-6 1.9M271 301v28.1l2.3-.6a62.1 62.1 0 0 0 18.7-10.1c4.8-4.3 9-12.2 9-16.9 0-5.7-2.1-10.4-7-15.8a47 47 0 0 0-20.2-12.2l-2.8-.7z"/></svg>