<svg xmlns="http://www.w3.org/2000/svg" width="152" height="152" fill="none" viewBox="0 0 152 152"><path fill="#000" d="M89.8 152H113c21.3 0 38.9-17.6 38.9-39V39c0-21.4-17.6-39-39-39H89.3c-.5 0-1 .5-1 1v150c0 .5.5 1 1.5 1m29-83.6c8.5 0 15.1 7.1 15.1 15.2 0 8.6-7 15.2-15.2 15.2a15 15 0 0 1-15.2-15.2c-.4-8.6 6.7-15.2 15.2-15.2M72.2 0H38.9C17.7 0 0 17.6 0 39v74c0 21.4 17.6 39 39 39h33.2c.5 0 1-.5 1-1V1c0-.5-.5-1-1-1m-11 139.7H39A26.6 26.6 0 0 1 12.4 113V39A26.6 26.6 0 0 1 39 12.3h21.8zM23.8 45.6c0 8 6.2 14.2 14.3 14.2s14.3-6.1 14.3-14.2c0-8-6.2-14.3-14.3-14.3s-14.3 6.2-14.3 14.3"/></svg>