<?xml version="1.0" standalone="no"?>
<!DOCTYPE svg PUBLIC "-//W3C//DTD SVG 20010904//EN"
 "http://www.w3.org/TR/2001/REC-SVG-20010904/DTD/svg10.dtd">
<svg version="1.0" xmlns="http://www.w3.org/2000/svg"
 width="512.000000pt" height="512.000000pt" viewBox="0 0 512.000000 512.000000"
 preserveAspectRatio="xMidYMid meet">

<g transform="translate(0.000000,512.000000) scale(0.100000,-0.100000)"
fill="#000000" stroke="none">
<path d="M1099 5097 c-113 -39 -191 -111 -239 -220 -12 -26 -210 -897 -441
-1935 -387 -1736 -420 -1892 -415 -1953 11 -128 67 -229 164 -296 112 -78 95
-76 665 -81 551 -4 643 2 730 42 103 49 182 139 211 240 8 28 54 247 101 487
l87 436 292 6 c160 4 371 7 469 7 139 0 201 4 277 20 250 51 503 167 725 334
162 121 360 342 467 521 194 325 318 765 318 1129 -1 274 -62 482 -198 676
-183 259 -514 445 -942 530 -257 51 -343 54 -1775 74 l-430 6 -66 -23z"/>
<path d="M4818 3898 c19 -519 -181 -1184 -475 -1575 -124 -164 -357 -380 -538
-496 -207 -132 -459 -226 -725 -268 -36 -6 -239 -14 -452 -18 -213 -3 -390
-10 -393 -13 -4 -4 -49 -213 -101 -464 -107 -518 -118 -551 -213 -643 -30 -30
-80 -66 -110 -80 l-56 -26 -567 -3 c-313 -1 -568 -5 -568 -8 0 -4 13 -34 29
-68 50 -103 138 -177 252 -210 50 -15 124 -16 625 -14 l569 3 59 24 c73 29
177 128 208 197 12 28 61 246 113 507 51 252 96 461 100 465 3 4 226 10 493
13 l487 5 116 31 c464 123 850 406 1114 818 187 292 335 801 335 1152 0 261
-79 512 -220 703 -90 121 -88 122 -82 -32z"/>
</g>
</svg>
