<svg xmlns="http://www.w3.org/2000/svg" width="682.7" height="682.7" viewBox="0 0 512 512"><path d="M109.9 2.3a38.6 38.6 0 0 0-23.9 22c-1.2 2.6-21 89.7-44.1 193.5C3.2 391.4-.1 407 .4 413.1a38.4 38.4 0 0 0 16.4 29.6c11.2 7.8 9.5 7.6 66.5 8.1 55.1.4 64.3-.2 73-4.2a39.5 39.5 0 0 0 21.1-24c.8-2.8 5.4-24.7 10.1-48.7l8.7-43.6 29.2-.6c16-.4 37.1-.7 46.9-.7 13.9 0 20.1-.4 27.7-2 25-5.1 50.3-16.7 72.5-33.4 16.2-12.1 36-34.2 46.7-52.1A236.1 236.1 0 0 0 451 128.6c-.1-27.4-6.2-48.2-19.8-67.6-18.3-25.9-51.4-44.5-94.2-53-25.7-5.1-34.3-5.4-177.5-7.4l-43-.6z"/><path d="M481.8 122.2c1.9 51.9-18.1 118.4-47.5 157.5a242.8 242.8 0 0 1-53.8 49.6 191.8 191.8 0 0 1-72.5 26.8c-3.6.6-23.9 1.4-45.2 1.8-21.3.3-39 1-39.3 1.3-.4.4-4.9 21.3-10.1 46.4-10.7 51.8-11.8 55.1-21.3 64.3-3 3-8 6.6-11 8l-5.6 2.6-56.7.3c-31.3.1-56.8.5-56.8.8 0 .4 1.3 3.4 2.9 6.8a39.6 39.6 0 0 0 25.2 21c5 1.5 12.4 1.6 62.5 1.4l56.9-.3 5.9-2.4a48.3 48.3 0 0 0 20.8-19.7c1.2-2.8 6.1-24.6 11.3-50.7 5.1-25.2 9.6-46.1 10-46.5.3-.4 22.6-1 49.3-1.3l48.7-.5 11.6-3.1c46.4-12.3 85-40.6 111.4-81.8A248.4 248.4 0 0 0 512 189.3c0-26.1-7.9-51.2-22-70.3-9-12.1-8.8-12.2-8.2 3.2"/></svg>