<svg xmlns="http://www.w3.org/2000/svg" width="189" height="158" fill="none" viewBox="0 0 189 158"><path fill="#000" d="M0 71.8a34.9 34.9 0 0 0 1.1 4.3l.8 3.1 2 7.7L5.3 93l1.5 6a743 743 0 0 0 2 7.9 49.8 49.8 0 0 1 1.4 5.6l.5 2a204.4 204.4 0 0 1 2.1 8.5l1 3.5 1 4.6c.4 1.4 1 3.3 1.2 4.5l.7 2.8.1.7h18.4l.6-2.2 1.2-4.7 3.3-13.4.6-2.4a109 109 0 0 1 1.4-5.6l.6-2.6 1-3.5c1.1-4.9 1.7-7 1.8-7.2.3-.4.4 0 .7 1.2a111.4 111.4 0 0 0 2 8l1.2 4.4.5 2.3.6 2 .6 2.3.7 2.9a1645 1645 0 0 1 4.7 18l.2.5H75l.2-.4.4-1.5.8-3.3.7-2.6.6-2.7a271.7 271.7 0 0 0 3.6-14.2l.6-2.2.6-2.5 2.3-9 1.1-4.5a55.4 55.4 0 0 0 1.4-5.5l1-4.2 2.5-9.9.8-3.2.4-1.4v-.4H75.5v.4l-.7 2.8a359 359 0 0 0-2.3 10.8 388 388 0 0 1-1.2 5.5 47.4 47.4 0 0 0-1.2 5.5 43.1 43.1 0 0 0-1.2 6.1l-1.1 5-1.2 5.5-.7 3.3c0 .6-.5.5-.6 0l-.6-2.8A480.2 480.2 0 0 1 62 103L61 98.5l-1.2-4.9a625 625 0 0 1-1.2-5.2l-1.2-5.2-1.2-4.8a266 266 0 0 0-1-4.7l-.6-2H38.2l-.2.7a46 46 0 0 1-.5 1.8l-.3 1.3-.7 2.8-2.3 9.3a456 456 0 0 1-1 4l-.9 3.3-.7 3.2a312 312 0 0 0-1.4 5.4 691 691 0 0 1-2 8.1l-1 3.8c-.5 2.2-.6 2.2-1.1-.6l-1-4.6-1.2-6a478 478 0 0 0-1.2-5.9c-.4-1.4-.6-2.8-.6-3l-.6-2.7-.5-2.8-.6-2.8a66 66 0 0 1-.7-3.4l-.7-3.4-1.7-8.1v-.4H8.7l-8.7.1m127.5-4.4h16.2c9.5 0 16.6-.1 17.3-.2a24.5 24.5 0 0 0 17.5-9.8l.4-.9.9-1.8c.4-1 .4-1.3.4-6.5 0-6.3-.2-8.1-1.2-10a15 15 0 0 0-8.2-6.7l-2.3-.7c-.7 0-.8-.2-.8-.5s.3-.5 1.2-1a14.8 14.8 0 0 0 7.8-13.7c0-2.4 0-2.9-.4-4.3-1.4-4.9-4.2-7.7-9.7-9.8a34 34 0 0 0-7.9-1.3c-1.2-.1-8-.2-16.6-.2h-14.6zm27.3-55c1.2.4 2.7 1.1 3.3 1.8.6.6 1.4 2.3 1.7 3.3.6 2.9-.5 6.2-2.6 7.6-1.5 1.1-2.9 1.4-6.2 1.6l-4.8.1h-2V12.2h4.8c3.8 0 5 0 5.8.2m2.7 26c3 .6 5.4 2.4 6.2 4.9.6 1.8.6 4.4 0 6.1a6.6 6.6 0 0 1-4 4.5c-2.3 1.1-3.3 1.3-9.8 1.4h-5.7V38h6l7.3.4m-146.3 29h13V42.1h8.5c8.8-.2 10.2-.3 14-1 2.6-.5 5.4-1.8 7.7-3.5a21.4 21.4 0 0 0 6-8.4c.9-1.9 1.2-4.5 1.2-8a21.8 21.8 0 0 0-2.2-10.7l-.6-1c-.6-1-2.7-3.4-3.9-4.3a15 15 0 0 0-3.6-2.4c-1.6-.7-1.8-.8-3.3-1-4-1-7.2-1-23-1H11.2zM36.9 12l4.2.4c1.5.3 3.3 1.3 4.4 2.4 1.3 1.3 1.7 2 2.3 3.6.3 1 .4 1.6.4 3 0 1.5 0 2-.4 3-.6 1.7-1 2.4-2.4 3.7-1 1-2.3 1.8-4 2.3-1.2.3-4.3.5-11.2.7h-6V12h4.6l8 .1M95.4 1.4a35 35 0 0 0-20 8.1c-2.4 2-5 5.3-6.5 7.9a27 27 0 0 1-.7 1.1l-.8 1.8c-.9 2-1.8 5-2 6.5L65 29l-.2 4.3a34 34 0 0 0 4.8 18c3.2 4.8 7.2 8.4 12 10.9a36.8 36.8 0 0 0 36.6-3.3l4.4-3.6 1.3-1.3-2-2c-1-1.2-2.8-3-3.8-4l-1.9-2-1.5 1.4a36.3 36.3 0 0 1-5 3.9A23.4 23.4 0 0 1 85 51c-2.3-1.5-5-4.3-6.3-6.8-.6-1.2-1.6-3.6-1.9-4.7a31.2 31.2 0 0 1 .1-12.2A21.4 21.4 0 0 1 92.2 13c2-.5 4.8-.7 6.9-.5 6 .6 10.7 2.8 15.7 7.3 1 1 1.5 1.3 1.7 1.2l2.6-2.5a720 720 0 0 0 3.8-3.6l1.4-1.3-1.2-1.2a34.3 34.3 0 0 0-16.3-9.8 41 41 0 0 0-11.5-1.2m9.1 85.8c-3 .5-7 1.2-9 1.7l-2.2.5v12.1h.4a31.4 31.4 0 0 1 22.3-2.7c2.3.8 3.5 1.8 4.3 3.5.4.8.5 1.2.5 2.3v1.3l-1 .1-3.9.3a78.3 78.3 0 0 0-17.2 3.3 15.7 15.7 0 0 0-7.2 5.7 15.5 15.5 0 0 0-2.4 9.2c0 2.5 0 3 .4 4.6 1.3 5 4.8 8.8 9.5 10.5 2.2.8 4.5 1 8 .8 2.2-.1 2.7-.2 4.2-.7 3.4-1.2 6-2.9 8.8-5.5.3-.2.6-.4.7-.3.1 0 .2 1 .2 2.7v2.6h15.4v-18.7c-.1-20.8-.1-20-1.2-22.9l-1.2-2.5c-.6-1-2-2.6-3.2-3.5a21 21 0 0 0-4.8-2.6c-1.4-.5-4.8-1.3-7.2-1.7-1.8-.3-12.5-.4-14.2 0m16.4 33.3v5.4l-1 .8a12 12 0 0 1-9.3 2.9c-3-.4-4.5-1.3-5.4-3.1-.4-1-.4-1-.4-3.1 0-2 0-2.2.4-3.1 1.4-2.8 4-3.9 11.2-4.8l3.7-.4h.7zm15.1-32 .6 1.6a97.2 97.2 0 0 0 2.9 7.7l2 5.3.6 1.7a138.9 138.9 0 0 1 4 10.7l.6 1.6a554.8 554.8 0 0 1 7.8 21l-.6 1.7a101 101 0 0 0-3 7.8l-.6 1.5-1.3 3.1a541 541 0 0 1-2 5.2 3 3 0 0 0 0 .4l8.2.1h8.4l.2-.8 2-5.4 1.2-3.1 1.1-3.1 2.5-6.7a1401.2 1401.2 0 0 0 3.5-9.7 1343 1343 0 0 0 3.6-9.7l.7-2 .7-1.7a311 311 0 0 1 2.4-6.5 2044.6 2044.6 0 0 0 7-19.4l.6-1.6h-16l-.3 1.2-4.5 14.7-1.2 3.8-1.3 4a949 949 0 0 0-1.1 3.6 25.3 25.3 0 0 1-1.6 4.8 916.5 916.5 0 0 0-8.1-23.9 94 94 0 0 0-.8-2.3l-1.7-5.2-.2-.7H144c-7.7 0-8.2 0-8 .3"/></svg>