<svg width="189" height="158" viewBox="0 0 189 158" fill="none" xmlns="http://www.w3.org/2000/svg">
<path d="M0 71.8122C0 71.8616 0.212783 72.6685 0.474669 73.5906C0.752923 74.4963 1.04754 75.6161 1.12938 76.0771C1.22759 76.5217 1.57132 77.9379 1.89867 79.2058C2.52065 81.6759 3.40452 85.1175 3.83009 86.863C4.55027 89.7776 4.84489 90.9303 5.4014 93.1204C6.07249 95.7057 6.36711 96.8913 6.89088 99.0485C7.52923 101.617 8.34762 104.795 8.9205 106.986C9.24786 108.188 9.57521 109.538 9.65705 109.999C9.73889 110.444 10.0335 111.596 10.3118 112.551C10.5737 113.506 10.8028 114.412 10.8028 114.577C10.8028 114.725 11.0483 115.779 11.3593 116.882C11.9158 118.924 12.3414 120.587 12.947 123.09C13.127 123.864 13.5362 125.445 13.8309 126.631C14.1419 127.8 14.6493 129.842 14.9766 131.159C15.304 132.476 15.8277 134.518 16.1387 135.687C16.4661 136.873 16.7607 138.157 16.8098 138.536L16.908 139.228H35.2728L35.8784 136.955C36.2058 135.72 36.7295 133.645 37.0569 132.345C39.2502 123.502 40.0686 120.274 40.4123 118.891C40.5924 118.167 40.8706 117.096 41.0179 116.503C41.1489 115.911 41.5253 114.461 41.8363 113.292C42.1473 112.107 42.3928 111.053 42.3928 110.921C42.3928 110.789 42.6874 109.604 43.0312 108.286C43.3913 106.969 43.7841 105.405 43.9314 104.812C45.1099 99.9377 45.6664 97.8299 45.8464 97.5664C46.0592 97.2206 46.2393 97.55 46.4848 98.785C46.5994 99.3284 46.9758 100.827 47.3032 102.095C47.6469 103.363 48.2034 105.471 48.5308 106.788C48.8745 108.105 49.3819 110.081 49.6929 111.185C50.0039 112.288 50.2494 113.325 50.2494 113.49C50.2494 113.655 50.4786 114.527 50.7568 115.433C51.0187 116.339 51.3133 117.409 51.3952 117.821C51.4934 118.232 51.8207 119.517 52.1153 120.702C52.6391 122.695 52.9337 123.831 54.4396 129.677C54.7506 130.895 55.258 132.822 55.569 133.958C55.88 135.095 56.2401 136.527 56.371 137.169C56.5019 137.795 56.682 138.52 56.7802 138.767L56.9602 139.228H75.1286L75.2923 138.816C75.3741 138.586 75.5705 137.894 75.7178 137.285C75.8488 136.675 76.2253 135.21 76.5199 134.041C76.8309 132.855 77.1091 131.669 77.1746 131.406C77.2237 131.126 77.5183 129.924 77.8293 128.722C78.8114 124.984 79.5152 122.217 79.6789 121.443C79.9244 120.307 80.8083 116.816 81.4466 114.527C81.7576 113.391 82.0031 112.37 82.0031 112.255C82.0031 112.123 82.265 111.02 82.5924 109.785C83.3125 106.986 84.0818 103.972 84.8511 100.86C85.1948 99.5425 85.7186 97.4676 86.046 96.2491C86.3733 95.0305 86.6843 93.7297 86.7498 93.3674C86.7989 93.0051 87.0772 91.8524 87.3554 90.815C87.65 89.7776 88.1247 87.8839 88.4521 86.616C89.0086 84.36 89.827 81.0666 90.94 76.7358C91.2346 75.5502 91.5947 74.1176 91.7256 73.5248C91.8729 72.9319 92.0366 72.2897 92.0857 72.0757L92.1839 71.7134H75.3577L75.325 72.1086C75.3086 72.3062 75.0468 73.5577 74.7194 74.8586C74.4084 76.1595 74.1465 77.378 74.1465 77.5591C74.1465 77.7238 73.8846 78.9918 73.59 80.3585C73.279 81.7088 72.7553 84.08 72.4279 85.6279C72.1005 87.1594 71.544 89.6953 71.1839 91.2431C70.8402 92.791 70.5456 94.1907 70.5456 94.3719C70.5456 94.553 70.3164 95.6234 70.0382 96.7431C69.7599 97.8793 69.4817 99.1637 69.4162 99.6248C69.3507 100.069 69.0561 101.519 68.7615 102.836C68.4669 104.153 67.9758 106.376 67.6812 107.776C67.3702 109.176 66.8301 111.662 66.4536 113.292C66.0935 114.923 65.7989 116.421 65.7989 116.619C65.7989 117.162 65.3406 117.096 65.226 116.536C65.1769 116.289 64.8823 115.054 64.5713 113.786C63.4092 108.912 62.8527 106.508 62.7054 105.8C62.6235 105.388 62.3453 104.17 62.067 103.083C61.8051 101.996 61.2977 99.9212 60.9704 98.4721C60.6267 97.023 60.1192 94.8329 59.8246 93.6144C59.53 92.3958 58.9735 90.0575 58.597 88.4273C58.2206 86.7971 57.6641 84.4588 57.3694 83.2402C57.0748 82.0217 56.5674 79.8316 56.2237 78.3825C55.8963 76.9334 55.3889 74.8421 55.1107 73.7224L54.6196 71.7134H38.1535L37.9735 72.405C37.8753 72.8002 37.6461 73.6071 37.4661 74.1999C37.3024 74.7927 37.1551 75.3855 37.1551 75.5173C37.1551 75.649 36.8605 76.9005 36.5004 78.3002C35.862 80.7208 35.5019 82.1534 34.1598 87.604C33.8488 88.8719 33.3905 90.6833 33.145 91.6384C32.8994 92.5934 32.5394 94.0755 32.3429 94.9317C32.1302 95.788 31.7864 97.2042 31.5573 98.0604C31.1808 99.4931 30.968 100.316 30.1824 103.495C29.1185 107.842 28.7093 109.472 28.1528 111.646C27.809 112.996 27.3998 114.692 27.2525 115.384C26.7288 117.623 26.5978 117.557 26.0577 114.824C25.8613 113.803 25.4357 111.744 25.1247 110.246C24.8137 108.747 24.2736 106.047 23.8971 104.236C23.537 102.424 22.9805 99.7565 22.6695 98.3074C22.3422 96.8584 22.0966 95.541 22.0966 95.3928C22.0966 95.2446 21.8348 93.9931 21.5238 92.6264C21.2128 91.2596 20.9509 89.9752 20.9509 89.7941C20.9509 89.6129 20.689 88.345 20.378 86.9782C20.0507 85.6115 19.7397 84.08 19.6578 83.586C19.5924 83.0756 19.2977 81.5441 19.0031 80.1939C17.6282 73.7718 17.35 72.4215 17.35 72.0757V71.7134H8.67498C3.91192 71.7134 0 71.7628 0 71.8122Z" fill="black"/>
<path d="M127.547 67.3497H143.718C153.195 67.3497 160.348 67.2838 161.019 67.185C167.304 66.3123 171.806 64.3527 175.439 60.8782C176.683 59.709 178.451 57.6507 178.451 57.4037C178.451 57.3543 178.664 56.9426 178.942 56.5144C179.204 56.0698 179.597 55.23 179.793 54.6537C180.153 53.6492 180.17 53.3857 180.17 48.248C180.17 41.9083 179.957 40.0805 178.975 38.1209C177.632 35.4203 174.703 33.0656 170.758 31.5341C169.907 31.2048 168.876 30.8755 168.466 30.8096C167.828 30.7273 167.73 30.6449 167.73 30.3156C167.73 30.0027 167.959 29.8216 168.876 29.3276C172.526 27.4339 175.161 24.0252 176.29 19.7603C176.65 18.3935 176.716 17.8666 176.7 15.5612C176.7 13.2229 176.65 12.7454 176.274 11.3128C174.948 6.43856 172.084 3.57332 166.568 1.54789C164.849 0.938613 162.083 0.444612 158.744 0.164674C157.5 0.0658727 150.675 0 142.098 0H127.547V67.3497ZM154.767 12.4325C156.011 12.7619 157.484 13.5193 158.106 14.1615C158.678 14.7544 159.546 16.4669 159.791 17.4879C160.446 20.3531 159.333 23.6959 157.238 25.1285C155.65 26.2153 154.308 26.5447 150.953 26.6929C149.382 26.7587 147.221 26.8246 146.173 26.8246L144.242 26.8411V12.1855H149.038C152.753 12.1855 154.046 12.2349 154.767 12.4325ZM157.549 38.4338C160.561 38.9607 162.869 40.7885 163.687 43.275C164.276 45.0864 164.293 47.6552 163.736 49.4007C162.983 51.7226 161.968 52.8753 159.71 53.9456C157.385 55.0489 156.354 55.1806 149.856 55.2794L144.242 55.3618V37.9892L150.184 38.088C154.341 38.1538 156.534 38.2691 157.549 38.4338Z" fill="black"/>
<path d="M11.1711 67.3497H24.2654V42.1882L32.744 42.1059C41.5499 42.0236 42.8757 41.9412 46.7385 41.1837C49.3246 40.6733 52.0581 39.4383 54.3823 37.7257C55.2498 37.0835 57.0175 35.2721 57.8359 34.1688C58.6052 33.1314 59.9474 30.9249 59.9474 30.6779C59.9474 30.5955 60.1765 30.0027 60.4384 29.3605C61.2568 27.4009 61.6496 24.7992 61.6496 21.2423C61.6496 18.7558 61.5842 17.8337 61.2732 16.2528C60.9295 14.425 59.931 11.461 59.3745 10.6047C59.2436 10.4071 58.9817 9.94601 58.7853 9.61668C58.2124 8.57926 56.1173 6.20803 54.9224 5.25295C53.4984 4.10026 52.68 3.57332 51.3215 2.94758C49.6847 2.1901 49.521 2.1407 47.9988 1.81136C44.0378 0.97155 40.7806 0.823348 24.9692 0.823348H11.1711V67.3497ZM36.8687 12.0208C38.8001 12.1196 40.7151 12.2679 41.1243 12.3667C42.5811 12.7125 44.4306 13.7334 45.4945 14.7873C46.804 16.0882 47.2295 16.7468 47.7697 18.3606C48.1298 19.4639 48.2116 19.9744 48.2116 21.407C48.2116 22.8725 48.1298 23.3336 47.7533 24.4534C47.1641 26.133 46.7549 26.7917 45.4454 28.0761C44.3652 29.1464 43.0721 29.8874 41.4189 30.3815C40.2077 30.7437 37.1306 30.9413 30.2069 31.0566L24.2654 31.1719V11.8562H28.7993C31.2872 11.8562 34.9209 11.9385 36.8687 12.0208Z" fill="black"/>
<path d="M95.302 1.41616C90.3426 1.97603 87.8055 2.56884 84.5811 3.90266C82.666 4.70954 80.3909 5.84575 79.6052 6.40563C79.3433 6.60323 79.0815 6.75144 79.016 6.75144C78.8359 6.75144 76.8718 8.21699 75.3005 9.51788C72.9108 11.5268 70.2264 14.7544 68.786 17.3726C68.4914 17.916 68.1968 18.4265 68.1313 18.5253C68.0659 18.6076 67.7058 19.398 67.3457 20.2543C66.4454 22.3291 65.5288 25.3261 65.3488 26.7587C65.2669 27.3845 65.1033 28.4713 65.0051 29.1464C64.8905 29.8216 64.7923 31.7482 64.7923 33.4278C64.7923 37.9068 65.1196 40.1463 66.4945 44.8723C66.8383 46.0744 67.9677 48.6433 68.5405 49.5489C68.7697 49.9112 68.9497 50.2735 68.9497 50.3393C68.9497 50.4052 69.228 50.8828 69.5553 51.3768C72.7962 56.2345 76.7736 59.8243 81.6348 62.2943C86.5779 64.7973 93.6489 66.1476 99.6395 65.703C102.635 65.4889 106.269 64.8632 108.314 64.221C110.23 63.6117 112.75 62.5413 113.814 61.8827C114.223 61.6356 114.616 61.4216 114.682 61.4216C114.763 61.4216 116.908 59.989 118.217 59.0339C119.035 58.4411 121.212 56.6132 122.604 55.3618L123.946 54.1267L121.933 52.0519C120.836 50.9157 119.085 49.1043 118.07 48.0504L116.204 46.1238L114.682 47.507C113.061 48.9891 111.473 50.2076 109.624 51.3932C105.548 54.0279 99.8523 55.2794 94.811 54.6701C91.5865 54.2585 87.5436 52.8094 85.023 51.1298C82.6496 49.5654 80.0799 46.766 78.7214 44.296C78.0994 43.1433 77.1009 40.6897 76.8391 39.6029C76.4298 38.0221 76.1025 34.317 76.2171 32.5222C76.2989 30.8425 76.659 28.2408 76.9045 27.4339C78.3776 22.5432 81.6676 18.2618 86.0542 15.5283C87.38 14.705 90.3098 13.3382 90.7517 13.3382C90.8827 13.3382 91.5538 13.19 92.2249 13.0253C94.189 12.5149 96.9715 12.3008 99.0503 12.4984C105.025 13.0583 109.82 15.2813 114.813 19.8097C115.827 20.7318 116.302 21.0612 116.466 20.9624C116.597 20.8965 117.808 19.7768 119.134 18.4923C120.476 17.2244 122.178 15.5942 122.915 14.8861L124.257 13.6181L123.078 12.3831C120.05 9.22147 116.809 6.83377 113.143 5.05534C111.31 4.16613 108.855 3.12871 108.56 3.12871C108.462 3.12871 107.66 2.91464 106.792 2.63471C104.092 1.79489 97.7899 1.13622 95.302 1.41616Z" fill="black"/>
<path d="M104.427 87.2087C101.35 87.6863 97.3235 88.4438 95.4248 88.8884L93.2151 89.4153L93.166 95.4751L93.1333 101.518H93.6407C93.9026 101.518 94.4754 101.387 94.901 101.206C98.9603 99.5754 102.234 98.5709 105.033 98.1428C108.028 97.6652 113.855 98.011 115.983 98.7685C118.225 99.5919 119.42 100.563 120.222 102.276C120.599 103.066 120.68 103.478 120.697 104.565L120.713 105.882L119.649 105.997C119.076 106.063 117.341 106.195 115.803 106.294C114.281 106.376 111.514 106.673 109.665 106.953C107.815 107.216 106.113 107.447 105.884 107.447C105.147 107.447 100.155 108.945 98.6329 109.62C95.1956 111.135 92.9532 112.881 91.3655 115.268C90.318 116.849 89.9088 117.821 89.4178 119.813C89.0249 121.493 88.9595 122.003 88.9595 124.49C88.9595 127.026 89.0086 127.454 89.4178 129.101C90.6781 134.024 94.1808 137.894 98.9439 139.639C101.072 140.413 103.445 140.644 106.964 140.413C109.092 140.265 109.632 140.166 111.056 139.672C114.51 138.454 117.194 136.807 119.928 134.238C120.206 133.975 120.517 133.81 120.615 133.859C120.73 133.942 120.795 134.897 120.795 136.609V139.228H136.197L136.132 120.488C136.066 99.7401 136.099 100.53 134.97 97.5994C134.642 96.7431 134.118 95.6398 133.807 95.1293C133.153 94.059 131.712 92.4782 130.567 91.556C129.863 90.9797 127.424 89.4977 127.195 89.4977C127.146 89.4977 126.524 89.2671 125.836 89.0036C124.445 88.4602 121.041 87.6534 118.553 87.2746C116.752 86.9947 106.064 86.9453 104.427 87.2087ZM120.762 120.637L120.795 126.005L119.862 126.812C117.276 129.068 113.691 130.154 110.483 129.693C107.537 129.282 106.015 128.392 105.131 126.581C104.705 125.692 104.673 125.511 104.673 123.502C104.673 121.46 104.689 121.312 105.147 120.373C106.489 117.64 109.059 116.536 116.277 115.598C117.898 115.384 119.567 115.219 119.977 115.235L120.713 115.268L120.762 120.637Z" fill="black"/>
<path d="M135.935 88.6249C136.001 88.7896 136.263 89.4812 136.508 90.1563C137.736 93.5156 138.129 94.5859 138.456 95.3105C138.636 95.7551 138.8 96.1997 138.8 96.2985C138.8 96.3973 139.045 97.1218 139.356 97.8958C139.962 99.4437 141.108 102.474 141.369 103.248C141.468 103.511 141.746 104.252 141.991 104.894C142.924 107.282 143.285 108.221 143.71 109.423C144.823 112.469 145.33 113.836 145.658 114.577C145.838 115.021 146.002 115.466 146.002 115.565C146.002 115.664 146.247 116.388 146.558 117.162C146.853 117.936 147.376 119.27 147.687 120.126C148.015 120.982 148.588 122.497 148.964 123.502C149.324 124.49 149.881 125.939 150.192 126.713C150.503 127.487 150.748 128.195 150.748 128.277C150.748 128.36 150.994 129.068 151.305 129.842C152.418 132.657 153.203 134.765 153.203 134.913C153.203 134.979 153.465 135.654 153.776 136.379C154.087 137.12 154.349 137.894 154.349 138.108C154.349 138.306 154.104 139.112 153.793 139.886C153.482 140.66 152.925 142.093 152.549 143.097C152.172 144.085 151.599 145.485 151.305 146.193C150.994 146.901 150.748 147.576 150.748 147.675C150.748 147.791 150.503 148.466 150.192 149.19C149.897 149.915 149.324 151.314 148.948 152.319C148.359 153.883 147.475 156.172 146.967 157.473C146.885 157.687 146.82 157.885 146.82 157.918C146.82 157.967 150.568 158 155.135 158H163.45L163.744 157.21C164.072 156.353 164.89 154.114 165.725 151.825C166.019 151.002 166.543 149.602 166.871 148.696C167.214 147.791 167.722 146.374 168.016 145.567C169.097 142.587 169.719 140.907 170.455 138.898C171.699 135.556 172.354 133.794 172.927 132.229C173.221 131.406 173.712 130.039 174.04 129.183C175.48 125.28 176.609 122.168 177.559 119.533C177.903 118.529 178.263 117.607 178.328 117.508C178.394 117.393 178.688 116.619 178.983 115.795C179.572 114.099 180.652 111.119 181.356 109.258C182.289 106.722 184.171 101.584 184.875 99.6248C185.17 98.8015 185.563 97.7805 185.759 97.3524C185.939 96.9078 186.103 96.4467 186.103 96.3314C186.103 96.2162 186.267 95.7551 186.447 95.3105C186.79 94.5365 187.249 93.2686 188.427 89.9423L189 88.345H173.09L172.73 89.5471C171.224 94.3719 169.457 100.053 168.164 104.153C167.853 105.108 167.313 106.837 166.952 108.023C166.592 109.192 166.036 110.971 165.725 111.975C165.414 112.963 164.906 114.593 164.595 115.598C163.286 119.83 163.122 120.307 162.991 120.39C162.844 120.488 162.451 119.566 162.124 118.397C161.993 117.936 160.373 113.045 158.523 107.529C156.673 101.996 155.02 97.0395 154.857 96.4961C154.693 95.9527 154.349 94.9153 154.104 94.1907C153.056 91.1937 152.565 89.7117 152.401 89.0366L152.205 88.345H144.021C136.279 88.345 135.821 88.3614 135.935 88.6249Z" fill="black"/>
</svg>
