<svg xmlns="http://www.w3.org/2000/svg" width="682.7" height="684" viewBox="0 0 512 513"><path d="M67.5.9c-1.6.3-3 1-2.9 1.5a23048 23048 0 0 0 220.6 230.3c.5-.1 9.5-9.3 20-20.3l36.6-38.2 17.2-18L230.4 82A13482 13482 0 0 0 96.1 5C87 .6 76.2-1 67.5.9M36 22a57.3 57.3 0 0 0-4.6 9.8L29 38.5V256c0 155 .3 218.6 1.1 221.5 1.4 5.1 6 14.6 6.9 14.3 1.3-.6 226.5-236 226.5-236.8 0-.5-49.3-52.2-109.5-115A36436 36436 0 0 1 41.4 22.4l-3.2-3.5zm309.7 191.5L305.9 255l36.7 38.2 40.9 42.7 4.2 4.3 38.9-22.3c44.3-25.5 47.8-28.2 54.2-41.6 3.6-7.7 3.7-8 3.7-19.8s-.1-12.1-3.7-19.8c-6.5-13.5-9.8-16-54.9-42a2267.5 2267.5 0 0 0-40-22.7c-.2 0-18.3 18.7-40.2 41.5M172.8 393.8 61 510.5l4.8 1.2a47.8 47.8 0 0 0 22.2-.5c5.2-1.4 32.7-16.8 138-77.6 72.3-41.7 132.2-76.4 133.1-77 1.4-.9-4.1-7.1-35.8-40.1-20.5-21.5-37.7-39.1-38.1-39.2s-51 52.4-112.4 116.5"/></svg>