<svg width="196" height="198" viewBox="0 0 196 198" fill="none" xmlns="http://www.w3.org/2000/svg">
<path d="M104.453 0.207478C89.3384 -0.777379 74.2011 1.75333 60.2379 7.59953C46.255 13.4523 33.8273 22.4586 23.9334 33.909C14.0099 45.3868 6.8805 58.9915 3.10056 73.6632C-0.679379 88.335 -1.00785 103.678 2.14075 118.497C5.26939 133.31 11.789 147.203 21.1917 159.095C30.5774 170.965 42.599 180.504 56.3118 186.964C70.0022 193.417 85.0126 196.608 100.155 196.285C115.298 195.961 130.157 192.132 143.557 185.099C143.986 184.879 144.466 184.776 144.948 184.802C145.43 184.828 145.896 184.982 146.299 185.248C159.022 193.737 174.032 198.182 189.346 197.994C190.075 197.994 190.774 197.706 191.29 197.192C191.806 196.678 192.096 195.982 192.096 195.255V161.942C192.1 161.291 191.872 160.66 191.454 160.16C191.035 159.66 190.453 159.324 189.809 159.211C186.66 158.708 183.583 157.824 180.648 156.579C180.101 156.336 179.649 155.919 179.363 155.394C179.077 154.869 178.972 154.265 179.066 153.675C179.123 153.284 179.264 152.909 179.48 152.578C189.046 138.233 194.669 121.643 195.791 104.459C196.913 87.2753 193.494 70.0988 185.875 54.6413C178.273 39.208 166.726 26.0397 152.395 16.4601C138.099 6.89928 121.52 1.27242 104.337 0.149727L104.444 0.207478H104.453ZM38.7186 98.1604C38.7097 86.4084 42.1816 74.9149 48.6997 65.1189C55.2031 55.3486 64.4708 47.7198 75.3296 43.1985C86.1787 38.682 98.134 37.4925 109.666 39.7823C121.197 42.0721 131.781 47.7371 140.062 56.0521C148.37 64.393 154.023 74.9895 156.314 86.5151C158.605 98.0406 157.432 109.983 152.942 120.848C148.45 131.7 140.833 140.984 131.05 147.529C119.637 155.153 105.916 158.585 92.2405 157.237C78.5649 155.888 65.7865 149.842 56.0964 140.137C44.9558 128.979 38.6945 113.888 38.6772 98.1521L38.7186 98.1604Z" fill="black"/>
</svg>
