<svg xmlns="http://www.w3.org/2000/svg" width="196" height="198" fill="none" viewBox="0 0 196 198"><path fill="#000" d="M104.5.2a98 98 0 0 0-44.3 7.4A98 98 0 0 0 24 33.9 98.3 98.3 0 0 0 3.1 73.7a98 98 0 0 0-1 44.8 98.2 98.2 0 0 0 19 40.6A98 98 0 0 0 56.4 187a98 98 0 0 0 87.3-1.9 2.7 2.7 0 0 1 2.7.1 75.9 75.9 0 0 0 43 12.8c.8 0 1.5-.3 2-.8s.8-1.2.8-2V162a2.8 2.8 0 0 0-.6-1.7 2.8 2.8 0 0 0-1.7-1 39.4 39.4 0 0 1-9.2-2.6 2.7 2.7 0 0 1-1.2-1.2 2.7 2.7 0 0 1-.3-1.7c0-.4.2-.8.4-1.1a98.3 98.3 0 0 0 16.3-48.1 98.2 98.2 0 0 0-10-49.9 98 98 0 0 0-33.4-38.1 98 98 0 0 0-48-16.4v.1zm-65.8 98a59.6 59.6 0 0 1 10-33 59.4 59.4 0 0 1 26.6-22 59.3 59.3 0 0 1 34.4-3.4A59.2 59.2 0 0 1 140 56a59.6 59.6 0 0 1 16.2 30.4 59.5 59.5 0 0 1-3.4 34.3 59.5 59.5 0 0 1-21.8 26.7 59.4 59.4 0 0 1-38.9 9.7 59.3 59.3 0 0 1-36.1-17 59.5 59.5 0 0 1-17.4-42z"/></svg>