<?xml version="1.0" standalone="no"?>
<!DOCTYPE svg PUBLIC "-//W3C//DTD SVG 20010904//EN"
 "http://www.w3.org/TR/2001/REC-SVG-20010904/DTD/svg10.dtd">
<svg version="1.0" xmlns="http://www.w3.org/2000/svg"
 width="512.000000pt" height="512.000000pt" viewBox="0 0 512.000000 512.000000"
 preserveAspectRatio="xMidYMid meet">

<g transform="translate(0.000000,512.000000) scale(0.100000,-0.100000)"
fill="#000000" stroke="none">
<path d="M2385 5114 c-568 -60 -1028 -280 -1411 -676 -340 -352 -554 -788
-631 -1288 -24 -160 -24 -510 0 -670 79 -513 300 -959 652 -1315 266 -269 613
-474 973 -576 321 -90 702 -104 1020 -38 90 18 98 19 107 3 116 -191 227 -317
350 -399 165 -110 305 -149 540 -149 91 -1 195 5 243 13 l82 13 0 197 0 197
-55 18 c-134 42 -328 159 -412 247 -36 39 -103 138 -103 154 0 5 21 23 48 40
81 52 236 180 331 274 355 356 576 799 658 1321 24 159 24 508 0 670 -156
1013 -913 1794 -1887 1945 -101 15 -422 28 -505 19z m420 -602 c187 -51 332
-137 480 -286 234 -234 373 -533 421 -899 22 -172 15 -999 -10 -1127 -47 -243
-160 -517 -271 -656 l-22 -28 -29 32 c-92 99 -269 225 -408 291 -201 95 -408
138 -643 132 l-43 -1 0 -224 0 -223 63 -13 c126 -27 285 -126 384 -240 56 -64
114 -153 105 -162 -4 -4 -50 -15 -102 -24 -336 -58 -692 85 -935 377 -205 246
-323 546 -355 899 -13 149 -13 741 0 890 48 538 317 987 711 1185 87 44 190
80 276 95 78 14 298 4 378 -18z"/>
</g>
</svg>
