<svg xmlns="http://www.w3.org/2000/svg" width="682.7" height="682.7" viewBox="0 0 512 512"><path d="M238.5.6c-56.8 6-102.8 28-141.1 67.6A233.2 233.2 0 0 0 34.3 197c-2.4 16-2.4 51 0 67 7.9 51.3 30 95.9 65.2 131.5a226 226 0 0 0 97.3 57.6c32.1 9 70.2 10.4 102 3.8 9-1.8 9.8-1.9 10.7-.3 11.6 19.1 22.7 31.7 35 39.9 16.5 11 30.5 14.9 54 14.9 9.1.1 19.5-.5 24.3-1.3l8.2-1.3v-39.4l-5.5-1.8a119.2 119.2 0 0 1-41.2-24.7 65.4 65.4 0 0 1-10.3-15.4c0-.5 2.1-2.3 4.8-4A234 234 0 0 0 477.7 264c2.4-15.9 2.4-50.8 0-67C462.1 95.7 386.4 17.6 289 2.5A365.4 365.4 0 0 0 238.5.6m42 60.2a101.8 101.8 0 0 1 48 28.6 150.4 150.4 0 0 1 42.1 89.9c2.2 17.2 1.5 99.9-1 112.7-4.7 24.3-16 51.7-27.1 65.6l-2.2 2.8-2.9-3.2a155.5 155.5 0 0 0-40.8-29.1 137.7 137.7 0 0 0-64.3-13.2l-4.3.1v44.7l6.3 1.3a79.1 79.1 0 0 1 38.4 24c5.6 6.4 11.4 15.3 10.5 16.2-.4.4-5 1.5-10.2 2.4-33.6 5.8-69.2-8.5-93.5-37.7A159.2 159.2 0 0 1 144 276a1016 1016 0 0 1 0-89c4.8-53.8 31.7-98.7 71.1-118.5 8.7-4.4 19-8 27.6-9.5 7.8-1.4 29.8-.4 37.8 1.8"/></svg>