<?xml version="1.0" standalone="no"?>
<!DOCTYPE svg PUBLIC "-//W3C//DTD SVG 20010904//EN"
 "http://www.w3.org/TR/2001/REC-SVG-20010904/DTD/svg10.dtd">
<svg version="1.0" xmlns="http://www.w3.org/2000/svg"
 width="512.000000pt" height="512.000000pt" viewBox="0 0 512.000000 512.000000"
 preserveAspectRatio="xMidYMid meet">

<g transform="translate(0.000000,512.000000) scale(0.100000,-0.100000)"
fill="#000000" stroke="none">
<path d="M2975 4701 c-16 -10 -38 -27 -47 -37 -9 -11 -118 -255 -242 -544
l-224 -525 -109 -7 c-473 -32 -936 -175 -1284 -396 l-61 -39 -55 33 c-91 55
-165 76 -288 81 -136 6 -215 -11 -328 -69 -141 -74 -260 -215 -308 -368 -54
-174 -24 -390 75 -537 37 -54 141 -157 182 -179 l34 -19 0 -75 c0 -460 247
-874 704 -1181 327 -220 724 -360 1177 -415 164 -20 517 -23 679 -5 804 88
1453 452 1759 986 96 168 147 349 158 562 5 120 8 132 27 141 70 32 184 159
231 257 147 309 27 677 -272 833 -113 58 -192 75 -328 69 -122 -5 -192 -25
-286 -81 l-56 -33 -79 49 c-314 194 -709 326 -1112 371 -67 7 -125 16 -128 19
-5 6 320 776 334 790 6 6 718 -184 727 -194 1 -2 10 -30 20 -63 9 -33 26 -77
37 -99 27 -53 122 -152 176 -183 182 -107 421 -76 572 76 184 184 183 477 -2
662 -189 188 -492 182 -673 -13 -30 -33 -55 -63 -55 -69 0 -5 -7 -9 -16 -9 -9
0 -204 52 -434 115 -229 63 -430 115 -446 115 -16 0 -42 -8 -59 -19z m-1100
-1926 c85 -22 152 -62 217 -127 184 -185 179 -482 -12 -668 -174 -169 -455
-173 -635 -8 -106 96 -155 209 -155 352 0 131 44 237 137 329 118 118 286 164
448 122z m1610 0 c82 -22 152 -64 217 -132 90 -95 128 -189 128 -319 0 -417
-495 -630 -793 -341 -188 183 -192 481 -9 665 122 122 292 170 457 127z
m-1588 -1255 c374 -234 956 -233 1332 3 47 30 99 57 114 61 71 17 159 -44 173
-120 17 -92 -52 -165 -251 -263 -289 -142 -661 -190 -1013 -130 -181 31 -426
128 -557 222 -101 72 -121 165 -53 242 62 71 124 68 255 -15z"/>
<path d="M1690 2479 c-63 -25 -100 -85 -100 -162 0 -66 27 -111 85 -144 161
-91 333 116 212 254 -51 58 -130 79 -197 52z"/>
<path d="M3295 2477 c-81 -37 -123 -135 -90 -213 43 -104 148 -143 240 -91 59
33 85 78 85 147 0 62 -22 106 -72 143 -34 25 -121 33 -163 14z"/>
</g>
</svg>
