<svg xmlns="http://www.w3.org/2000/svg" width="682.7" height="682.7" viewBox="0 0 512 512"><path d="M297.5 41.9c-1.6 1-3.8 2.7-4.7 3.7a1278 1278 0 0 0-24.2 54.4l-22.4 52.5-10.9.7c-47.3 3.2-93.6 17.5-128.4 39.6l-6.1 3.9-5.5-3.3a53.5 53.5 0 0 0-28.8-8.1 56.8 56.8 0 0 0-32.8 6.9A65.2 65.2 0 0 0 2.9 229a66 66 0 0 0 7.5 53.7 85 85 0 0 0 18.2 17.9l3.4 1.9v7.5c0 46 24.7 87.4 70.4 118.1 32.7 22 72.4 36 117.7 41.5 16.4 2 51.7 2.3 67.9.5 80.4-8.8 145.3-45.2 175.9-98.6a122.5 122.5 0 0 0 15.8-56.2c.5-12 .8-13.2 2.7-14.1a63.1 63.1 0 0 0-4.1-109 56.8 56.8 0 0 0-32.8-6.9 53 53 0 0 0-28.6 8.1l-5.6 3.3-7.9-4.9a273.3 273.3 0 0 0-111.2-37.1 88.7 88.7 0 0 1-12.8-1.9c-.5-.6 32-77.6 33.4-79 .6-.6 71.8 18.4 72.7 19.4l2 6.3c.9 3.3 2.6 7.7 3.7 9.9a62.6 62.6 0 0 0 17.6 18.3 47.4 47.4 0 0 0 57.2-7.6 46.5 46.5 0 0 0-.2-66.2 46.6 46.6 0 0 0-67.3 1.3c-3 3.3-5.5 6.3-5.5 6.9 0 .5-.7.9-1.6.9S371 57.8 348 51.5C325.1 45.2 305 40 303.4 40s-4.2.8-5.9 1.9m-110 192.6a45.5 45.5 0 0 1 21.7 12.7A46.7 46.7 0 0 1 208 314a46.5 46.5 0 0 1-63.5.8 44.7 44.7 0 0 1-15.5-35.2c0-13.1 4.4-23.7 13.7-32.9a46.4 46.4 0 0 1 44.8-12.2m161 0a45.5 45.5 0 0 1 21.7 13.2c9 9.5 12.8 18.9 12.8 31.9a46.8 46.8 0 1 1-80.2-32.4 47.2 47.2 0 0 1 45.7-12.7M189.7 360c37.4 23.4 95.6 23.3 133.2-.3 4.7-3 9.9-5.7 11.4-6.1 7.1-1.7 15.9 4.4 17.3 12 1.7 9.2-5.2 16.5-25.1 26.3a170.6 170.6 0 0 1-101.3 13 156.9 156.9 0 0 1-55.7-22.2c-10.1-7.2-12.1-16.5-5.3-24.2 6.2-7.1 12.4-6.8 25.5 1.5"/><path d="M169 264.1c-6.3 2.5-10 8.5-10 16.2 0 6.6 2.7 11.1 8.5 14.4 16.1 9.1 33.3-11.6 21.2-25.4-5.1-5.8-13-7.9-19.7-5.2m160.5.2c-8.1 3.7-12.3 13.5-9 21.3 4.3 10.4 14.8 14.3 24 9.1 5.9-3.3 8.5-7.8 8.5-14.7 0-6.2-2.2-10.6-7.2-14.3a20.9 20.9 0 0 0-16.3-1.4"/></svg>