<svg xmlns="http://www.w3.org/2000/svg" width="682.7" height="682.7" viewBox="0 0 512 512"><path d="M237 .7A257.2 257.2 0 0 0 8.1 192.8 261 261 0 0 0 5 306.1a257 257 0 0 0 110 163.4 314.4 314.4 0 0 0 53.4 27 301 301 0 0 0 53.1 13.1c15.9 2.3 52 2.5 66.5.5 66.5-9.1 124-41.2 166.5-92.6a265.8 265.8 0 0 0 51.9-108.7 207 207 0 0 0 5.1-52.3c0-25.9-1.7-40.3-7.5-63.1-5-19.5-9.3-31.3-18.9-50.9A253.6 253.6 0 0 0 372.8 28.4c-29.5-15-58-23.5-90.7-26.9A315.6 315.6 0 0 0 237 .7M284.4 107a151.7 151.7 0 0 1 105.4 77.9l4.9 9.2 4.3-8.3a109 109 0 0 1 6.7-11.6 21.3 21.3 0 0 1 26.3-5.1q10 5.5 10.8 17.4l.4 6.4-19.2 37.2a631.9 631.9 0 0 1-22.2 40.5 20.4 20.4 0 0 1-17.1 6.2c-4.6-.4-10.6-3.2-42.3-19.7a702.3 702.3 0 0 1-39.3-21.4 23 23 0 0 1-4.2-24.5 21.9 21.9 0 0 1 19.6-12.2c3.8 0 7.4 1.5 21.1 8.6a152 152 0 0 0 17.1 8.1 21 21 0 0 0-2.7-7.1A108.9 108.9 0 0 0 181.6 177a108 108 0 0 0-31.8 54.7 86.7 86.7 0 0 0-2.2 24.8c.1 13.9.4 17.3 2.7 25.7a108.9 108.9 0 0 0 88 81.3c34.1 5.5 66.8-4.7 94-29.3 6.4-5.8 11-7.6 17.8-7a21 21 0 0 1 19.1 21.2c-.1 7.4-2.7 12.1-11.4 20.1a153 153 0 0 1-113.7 38.6c-28-2.5-54.2-12-76.5-27.9a191.6 191.6 0 0 1-34.9-34.8A152 152 0 0 1 240 105c11-1.3 32.2-.3 44.4 2"/></svg>