<svg width="26" height="32" viewBox="0 0 26 32" fill="none" xmlns="http://www.w3.org/2000/svg">
<path d="M0 7.83081H5.91055V31.7312H0V7.83081Z" fill="black"/>
<path d="M15.2395 0C20.316 0 24.4458 4.12604 24.4458 9.19752C24.4458 14.0739 20.5487 18.1426 15.7062 18.3857L25.3219 31.7313H18.2994L8.70599 18.4221C8.66116 18.36 8.63733 18.2863 8.63733 18.2091V13.6728C8.63733 13.472 8.80072 13.3089 9.00146 13.3089H14.6558C15.7656 13.3089 16.8054 12.8719 17.5836 12.079C18.3615 11.2863 18.7784 10.238 18.7574 9.12724C18.7153 6.90896 16.8123 5.10408 14.5149 5.10408H0V0H15.2395Z" fill="black"/>
</svg>
