<?xml version="1.0" standalone="no"?>
<!DOCTYPE svg PUBLIC "-//W3C//DTD SVG 20010904//EN"
 "http://www.w3.org/TR/2001/REC-SVG-20010904/DTD/svg10.dtd">
<svg version="1.0" xmlns="http://www.w3.org/2000/svg"
 width="512.000000pt" height="512.000000pt" viewBox="0 0 512.000000 512.000000"
 preserveAspectRatio="xMidYMid meet">

<g transform="translate(0.000000,512.000000) scale(0.100000,-0.100000)"
fill="#000000" stroke="none">
<path d="M2572 5108 c-45 -15 -119 -82 -143 -130 -46 -90 -49 -133 -49 -819 0
-719 6 -659 -68 -659 -59 0 -268 -37 -393 -69 -438 -113 -839 -342 -1159 -661
-215 -214 -369 -427 -495 -685 -89 -183 -136 -309 -180 -480 -113 -444 -113
-864 0 -1301 46 -177 70 -238 106 -268 58 -49 149 -44 201 11 15 16 43 71 63
123 264 675 860 1197 1565 1369 105 25 309 61 349 61 8 0 11 -174 11 -642 0
-682 3 -726 49 -815 46 -91 150 -150 245 -140 130 13 62 -48 1240 1126 685
684 1092 1097 1117 1134 61 93 84 174 84 297 0 123 -23 204 -84 297 -25 37
-432 450 -1117 1134 -973 970 -1084 1078 -1134 1099 -63 26 -159 34 -208 18z"/>
</g>
</svg>
