<svg xmlns="http://www.w3.org/2000/svg" width="682.7" height="682.7" viewBox="0 0 512 512"><path d="M257.2 1.2a33 33 0 0 0-14.3 13c-4.6 9-4.9 13.3-4.9 81.9 0 71.9.6 65.9-6.8 65.9A254.4 254.4 0 0 0 76 235a245 245 0 0 0-49.5 68.5 253.9 253.9 0 0 0-18 178.1c4.6 17.7 7 23.8 10.6 26.8a15 15 0 0 0 20.1-1.1c1.5-1.6 4.3-7.1 6.3-12.3a228 228 0 0 1 191.4-143c.8 0 1.1 17.4 1.1 64.2 0 68.2.3 72.6 4.9 81.5 4.6 9.1 15 15 24.5 14 13-1.3 6.2 4.8 124-112.6 68.5-68.4 109.2-109.7 111.7-113.4 6.1-9.3 8.4-17.4 8.4-29.7s-2.3-20.4-8.4-29.7c-2.5-3.7-43.2-45-111.7-113.4C294.1 15.9 283 5.1 278 3a36.4 36.4 0 0 0-20.8-1.8"/></svg>