<?xml version="1.0" standalone="no"?>
<!DOCTYPE svg PUBLIC "-//W3C//DTD SVG 20010904//EN"
 "http://www.w3.org/TR/2001/REC-SVG-20010904/DTD/svg10.dtd">
<svg version="1.0" xmlns="http://www.w3.org/2000/svg"
 width="512.000000pt" height="512.000000pt" viewBox="0 0 512.000000 512.000000"
 preserveAspectRatio="xMidYMid meet">

<g transform="translate(0.000000,512.000000) scale(0.100000,-0.100000)"
fill="#000000" stroke="none">
<path d="M2312 4944 c-434 -63 -775 -287 -995 -652 -141 -235 -180 -462 -158
-937 6 -132 14 -267 17 -301 6 -58 5 -61 -17 -67 -57 -15 -124 -6 -242 34
-134 45 -170 46 -257 8 -85 -38 -140 -107 -140 -179 0 -123 108 -210 374 -301
120 -40 192 -82 224 -129 36 -52 27 -122 -31 -236 -210 -421 -545 -707 -928
-795 -134 -31 -177 -80 -150 -171 36 -119 209 -206 546 -273 71 -15 131 -28
133 -30 2 -2 17 -57 34 -122 33 -131 45 -155 91 -183 41 -25 71 -25 215 1 80
15 156 22 242 22 216 -1 298 -26 487 -154 60 -40 144 -97 188 -127 98 -65 216
-123 310 -150 265 -77 582 -46 804 79 31 18 142 89 246 158 124 83 216 137
263 154 132 49 318 53 573 13 178 -27 207 -7 255 179 18 70 34 129 37 131 2 2
61 15 133 29 309 61 480 140 535 246 25 50 24 88 -4 130 -23 36 -32 39 -212
89 -333 91 -658 386 -852 774 -58 114 -67 184 -31 236 33 48 106 89 239 134
253 86 359 173 359 296 0 73 -55 141 -144 181 -84 37 -148 36 -251 -1 -114
-41 -182 -55 -230 -46 l-37 7 6 72 c20 233 27 543 16 684 -16 206 -39 304
-104 440 -205 425 -572 689 -1056 758 -128 18 -362 18 -488 -1z"/>
</g>
</svg>
