<svg xmlns="http://www.w3.org/2000/svg" width="682.7" height="682.7" viewBox="0 0 512 512"><path d="M231.2 17.6a134.5 134.5 0 0 0-99.5 65.2c-14.1 23.5-18 46.2-15.8 93.7a1126 1126 0 0 0 1.7 30.1c.6 5.8.5 6.1-1.7 6.7-5.7 1.5-12.4.6-24.2-3.4-13.4-4.5-17-4.6-25.7-.8-8.5 3.8-14 10.7-14 17.9 0 12.3 10.8 21 37.4 30.1 12 4 19.2 8.2 22.4 12.9 3.6 5.2 2.7 12.2-3.1 23.6-21 42.1-54.5 70.7-92.8 79.5-13.4 3.1-17.7 8-15 17.1 3.6 11.9 20.9 20.6 54.6 27.3 7.1 1.5 13.1 2.8 13.3 3s1.7 5.7 3.4 12.2c3.3 13.1 4.5 15.5 9.1 18.3 4.1 2.5 7.1 2.5 21.5-.1 8-1.5 15.6-2.2 24.2-2.2 21.6.1 29.8 2.6 48.7 15.4l18.8 12.7c9.8 6.5 21.6 12.3 31 15 26.5 7.7 58.2 4.6 80.4-7.9 3.1-1.8 14.2-8.9 24.6-15.8a161.6 161.6 0 0 1 26.3-15.4c13.2-4.9 31.8-5.3 57.3-1.3 17.8 2.7 20.7.7 25.5-17.9 1.8-7 3.4-12.9 3.7-13.1.2-.2 6.1-1.5 13.3-2.9 30.9-6.1 48-14 53.5-24.6 2.5-5 2.4-8.8-.4-13-2.3-3.6-3.2-3.9-21.2-8.9-33.3-9.1-65.8-38.6-85.2-77.4-5.8-11.4-6.7-18.4-3.1-23.6 3.3-4.8 10.6-8.9 23.9-13.4C449.4 248 460 239.3 460 227c0-7.3-5.5-14.1-14.4-18.1-8.4-3.7-14.8-3.6-25.1.1-11.4 4.1-18.2 5.5-23 4.6l-3.7-.7.6-7.2a536 536 0 0 0 1.6-68.4 107 107 0 0 0-10.4-44C365.1 50.8 328.4 24.4 280 17.5a215.2 215.2 0 0 0-48.8.1"/></svg>