<svg width="186" height="81" viewBox="0 0 186 81" fill="none" xmlns="http://www.w3.org/2000/svg">
<path d="M23.6767 38.1305C23.0957 38.1305 22.6599 38.568 22.5873 39.2241L20.9168 59.6382L22.5873 79.396C22.6599 79.9793 23.0957 80.4896 23.6767 80.4896C24.2577 80.4896 24.6935 80.0522 24.7661 79.396L26.6544 59.6382L24.7661 39.2241C24.6935 38.568 24.1851 38.1305 23.6767 38.1305Z" fill="black"/>
<path d="M31.0847 39.4428C30.4311 39.4428 29.8501 39.9532 29.8501 40.6823L28.3249 59.6382L29.8501 79.5418C29.9227 80.2709 30.4311 80.7813 31.0847 80.7813C31.7384 80.7813 32.2468 80.2709 32.3194 79.5418L34.0625 59.6382L32.3194 40.6823C32.2468 39.9532 31.7384 39.4428 31.0847 39.4428Z" fill="black"/>
<path d="M9.00585 42.0675C8.64271 42.0675 8.27956 42.3591 8.20694 42.7966L6.39124 59.5653L8.20694 75.9694C8.27956 76.4068 8.57008 76.6985 9.00585 76.6985C9.36899 76.6985 9.73213 76.4068 9.80476 75.9694L11.911 59.5653L9.80476 42.7966C9.6595 42.432 9.36899 42.0675 9.00585 42.0675Z" fill="black"/>
<path d="M2.1062 48.4833C1.74306 48.4833 1.37993 48.775 1.37993 49.2124L0 59.6382L1.37993 69.8452C1.45255 70.2826 1.74306 70.5743 2.1062 70.5743C2.46934 70.5743 2.75985 70.2826 2.83248 69.8452L4.4303 59.6382L2.83248 49.2853C2.75985 48.8479 2.46934 48.4833 2.1062 48.4833Z" fill="black"/>
<path d="M46.1187 20.1953C45.2472 20.1953 44.5935 20.8515 44.5209 21.7264L43.141 59.6382L44.5209 79.4689C44.5935 80.3438 45.2472 81 46.1187 81C46.9902 81 47.6439 80.3438 47.7165 79.4689L49.2417 59.6382L47.7165 21.7264C47.6439 20.8515 46.9176 20.1953 46.1187 20.1953Z" fill="black"/>
<path d="M16.2686 38.7867C15.7602 38.7867 15.3971 39.1512 15.3245 39.7345L13.5814 59.6382L15.3245 78.8128C15.3971 79.3231 15.7602 79.7606 16.2686 79.7606C16.777 79.7606 17.1402 79.396 17.2128 78.8857L19.1738 59.7111L17.2128 39.8074C17.1402 39.2241 16.777 38.7867 16.2686 38.7867Z" fill="black"/>
<path d="M38.5654 27.4131C37.8391 27.4131 37.1855 27.9964 37.1855 28.7984L35.7329 59.6382L37.1855 79.5418C37.2581 80.3438 37.8391 80.9271 38.5654 80.9271C39.2917 80.9271 39.9453 80.3438 39.9453 79.5418L41.6158 59.6382L39.9453 28.7984C39.9453 27.9964 39.2917 27.4131 38.5654 27.4131Z" fill="black"/>
<path d="M84.6841 9.84248C83.3768 9.84248 82.36 10.8632 82.36 12.1755L81.4885 59.5653L82.36 78.5941C82.36 79.9064 83.4494 80.9271 84.6841 80.9271C85.9914 80.9271 87.0082 79.8335 87.0082 78.5941L88.025 59.5653L87.0082 12.1755C87.0808 10.9361 85.9914 9.84248 84.6841 9.84248Z" fill="black"/>
<path d="M53.672 16.8416C52.7278 16.8416 52.0016 17.5707 51.9289 18.5914L50.6216 59.6382L51.9289 79.2502C51.9289 80.198 52.7278 80.9271 53.672 80.9271C54.6162 80.9271 55.3424 80.198 55.4151 79.1773L56.8676 59.5653L55.4151 18.5185C55.4151 17.6436 54.6162 16.8416 53.672 16.8416Z" fill="black"/>
<path d="M163.05 35.1413C159.927 35.1413 156.949 35.7975 154.189 36.8911C152.373 16.1854 135.088 0 114.026 0C108.869 0 103.858 1.02072 99.4276 2.77049C97.6845 3.42666 97.2487 4.15572 97.2487 5.46805V78.3024C97.2487 79.6877 98.3381 80.8542 99.7181 81C99.7907 81 162.686 81 163.122 81C175.759 81 186 70.7201 186 58.0342C185.927 45.4212 175.687 35.1413 163.05 35.1413Z" fill="black"/>
<path d="M92.5279 5.39514C91.148 5.39514 90.0586 6.56166 89.9859 7.94689L88.9692 59.6382L89.9859 78.3753C89.9859 79.7606 91.148 80.8542 92.5279 80.8542C93.9078 80.8542 94.9973 79.6877 95.0699 78.3024L96.1593 59.4923L95.0699 7.80107C94.9973 6.56165 93.9078 5.39514 92.5279 5.39514Z" fill="black"/>
<path d="M61.3706 15.3105C60.3538 15.3105 59.5549 16.1125 59.4822 17.2061L58.3202 59.6382L59.4822 79.1044C59.4822 80.1251 60.3538 81 61.3706 81C62.3873 81 63.1863 80.198 63.2589 79.1044L64.5662 59.6382L63.2589 17.2061C63.1863 16.1125 62.3873 15.3105 61.3706 15.3105Z" fill="black"/>
<path d="M69.0691 16.2583C67.9797 16.2583 67.0355 17.1332 67.0355 18.2997L65.9461 59.6382L67.0355 78.9586C67.0355 80.1251 67.9797 81 69.0691 81C70.1585 81 71.1027 80.1251 71.1027 78.9586L72.3374 59.6382L71.1027 18.2997C71.1027 17.1332 70.2312 16.2583 69.0691 16.2583Z" fill="black"/>
<path d="M76.8403 17.5707C75.6056 17.5707 74.6615 18.5185 74.6615 19.7579L73.6447 59.6382L74.6615 78.8128C74.6615 80.0522 75.6783 81 76.8403 81C78.075 81 79.0191 80.0522 79.0191 78.8128L80.1086 59.6382L79.0191 19.7579C79.0191 18.5914 78.075 17.5707 76.8403 17.5707Z" fill="black"/>
</svg>
