<svg xmlns="http://www.w3.org/2000/svg" width="186" height="81" fill="none" viewBox="0 0 186 81"><path fill="#000" d="M23.7 38.1c-.6 0-1 .5-1.1 1.1l-1.7 20.4 1.7 19.8c0 .6.5 1 1 1 .7 0 1-.3 1.2-1l1.9-19.8-2-20.4c0-.6-.5-1-1-1m7.4 1.2c-.7 0-1.2.6-1.2 1.3l-1.6 19L30 79.4c0 .8.5 1.3 1.2 1.3.6 0 1.1-.5 1.2-1.3l1.8-19.9-1.8-19c0-.6-.6-1.2-1.2-1.2M9 42.1c-.5 0-.8.3-.9.7L6.4 59.6 8.2 76c0 .4.4.7.8.7s.7-.3.8-.7l2.1-16.4-2.1-16.8c-.1-.4-.4-.7-.8-.7m-6.9 6.4a.7.7 0 0 0-.7.7L0 59.6l1.4 10.2c0 .5.3.8.7.8s.7-.3.7-.8l1.6-10.2-1.6-10.3c0-.5-.3-.8-.7-.8m44-28.3c-.9 0-1.5.7-1.6 1.5l-1.4 38 1.4 19.8c0 .8.7 1.5 1.6 1.5.9 0 1.5-.7 1.6-1.5l1.5-19.9-1.5-37.9c0-.8-.8-1.5-1.6-1.5M16.3 38.8c-.5 0-.9.4-1 1l-1.7 19.8 1.7 19.2c.1.5.5 1 1 1s.8-.4 1-1l1.9-19-2-20c0-.6-.4-1-1-1m22.4-11.4c-.8 0-1.4.6-1.4 1.4l-1.5 30.8 1.5 20c0 .7.6 1.3 1.4 1.3s1.3-.6 1.3-1.4l1.7-19.9L40 28.8c0-.8-.6-1.4-1.3-1.4m46-17.6c-1.2 0-2.2 1-2.2 2.4l-1 47.4 1 19a2.3 2.3 0 0 0 2.3 2.3c1.3 0 2.3-1 2.3-2.3l1-19-1-47.4c0-1.3-1-2.4-2.3-2.4m-31 7c-1 0-1.7.8-1.8 1.8l-1.3 41L52 79.2c0 1 .8 1.7 1.8 1.7s1.6-.7 1.7-1.7L57 59.6l-1.5-41c0-1-.8-1.8-1.7-1.8M163 35.1a24 24 0 0 0-9 1.8 40.4 40.4 0 0 0-40-36.9 40 40 0 0 0-14.7 2.8c-1.7.6-2.2 1.4-2.2 2.7v72.8c0 1.4 1.1 2.6 2.5 2.7h63.4a23 23 0 0 0 0-45.9M92.5 5.4c-1.4 0-2.4 1.2-2.5 2.5l-1 51.7 1 18.8c0 1.4 1.1 2.5 2.5 2.5s2.5-1.2 2.6-2.6l1-18.8-1-51.7c-.1-1.2-1.2-2.4-2.6-2.4m-31.1 10c-1 0-1.8.7-2 1.8l-1 42.4 1 19.5c0 1 1 1.9 2 1.9s1.8-.8 1.9-1.9l1.3-19.5-1.3-42.4c-.1-1-1-1.9-2-1.9m7.8 1c-1.1 0-2 .8-2 2l-1.2 41.3L67 79a2 2 0 1 0 4.1 0l1.2-19.4-1.2-41.3a2 2 0 0 0-2-2m7.7 1.3c-1.2 0-2.1 1-2.1 2.2l-1 39.8 1 19.2a2.2 2.2 0 0 0 2.1 2.2c1.3 0 2.2-1 2.2-2.2l1.1-19.2-1-39.8c0-1.2-1-2.2-2.3-2.2"/></svg>