<svg xmlns="http://www.w3.org/2000/svg" width="682.7" height="682.7" viewBox="0 0 512 512"><path d="m102.5 13 .7 13H80.8c-35 0-44.4 1.7-57.1 10.4A55.1 55.1 0 0 0 1.3 70.9a63.7 63.7 0 0 0-.5 22.4C9.6 206 60.5 285.5 144.5 317.7c11.3 4.4 32.5 9.8 44.1 11.4a51 51 0 0 1 9.8 2c.4.4-4.2 18.3-10.4 39.7l-11.2 38.9-6.7.6a49.7 49.7 0 0 0-35.5 24c-5.8 9.8-6.6 15.6-6.6 48.6V512h256v-30.3c0-24.1-.3-31.5-1.6-36.2a48.3 48.3 0 0 0-40.9-35.3l-6-.7-11.2-39c-6.1-21.4-11-39.1-10.8-39.3s5.4-1.3 11.7-2.3C433.4 310.5 500.2 226 511.1 94c1.5-18.3.4-25.7-5.3-37.3a55.2 55.2 0 0 0-34.4-28.3c-4.6-1.3-12.2-1.7-33.6-2.1l-27.8-.5V0H101.7zm2.9 69.2 2.6 23.7c6.8 63.8 22.8 119.9 44 154.6 2.2 3.6 3.6 6.5 3.2 6.5s-4.2-1.7-8.3-3.8C102.7 241 72.3 196.8 58.7 135c-5-22.3-8.6-53.2-6.6-55.7.9-1 6.6-1.3 27-1.3h25.8zm354.5-2.9c2.4 3-2.7 40.9-8.9 65.2-13.5 53.2-39.6 91.6-77.6 114.1-6.8 4-15.6 8.4-17 8.4-.2 0 1.1-2.4 3-5.3 19.3-30.1 35.1-81.5 43-139.7 1.5-11.5 4.6-39.6 4.6-42.5 0-1.3 3.3-1.5 25.9-1.5 20.3 0 26.1.3 27 1.3"/></svg>