<svg xmlns="http://www.w3.org/2000/svg" width="204" height="204" fill="none" viewBox="0 0 204 204"><path fill="#000" d="M101.7 0a101.7 101.7 0 1 0 0 203.4 101.7 101.7 0 0 0 0-203.4zm46.6 146.7a6.3 6.3 0 0 1-8.7 2c-23.9-14.5-54-17.8-89.3-9.7a6.3 6.3 0 0 1-7.6-4.8 6.3 6.3 0 0 1 4.8-7.6c38.7-8.9 72-5 98.7 11.3 3 1.9 4 5.8 2.1 8.8m12.5-27.7a8 8 0 0 1-11 2.6c-27.3-16.8-69-21.7-101.3-11.9a8 8 0 0 1-9.9-5.3 8 8 0 0 1 5.3-9.8c37-11.2 82.9-5.8 114.3 13.5a8 8 0 0 1 2.6 10.9m1-28.9C129.1 70.7 75 69 43.7 78.4A9.5 9.5 0 0 1 31.8 72a9.5 9.5 0 0 1 6.4-11.8c35.9-11 95.6-8.8 133.3 13.6a9.5 9.5 0 0 1 3.4 13 9.5 9.5 0 0 1-13 3.3z"/></svg>