<?xml version="1.0" standalone="no"?>
<!DOCTYPE svg PUBLIC "-//W3C//DTD SVG 20010904//EN"
 "http://www.w3.org/TR/2001/REC-SVG-20010904/DTD/svg10.dtd">
<svg version="1.0" xmlns="http://www.w3.org/2000/svg"
 width="512.000000pt" height="512.000000pt" viewBox="0 0 512.000000 512.000000"
 preserveAspectRatio="xMidYMid meet">

<g transform="translate(0.000000,512.000000) scale(0.100000,-0.100000)"
fill="#000000" stroke="none">
<path d="M3715 4744 c-335 -37 -611 -168 -833 -398 -213 -220 -338 -496 -360
-793 l-7 -93 -402 -574 -402 -573 -133 -6 c-157 -7 -257 -30 -376 -87 -46 -22
-89 -40 -96 -40 -6 0 -230 88 -496 196 -267 107 -513 206 -548 219 l-62 24 2
-610 3 -611 325 -130 325 -130 23 -76 c106 -345 396 -604 755 -673 90 -18 277
-15 372 6 385 82 677 380 753 768 l17 87 625 455 625 455 61 0 c33 0 103 7
155 16 257 44 500 168 685 349 509 500 525 1297 35 1817 -182 194 -449 338
-709 383 -89 16 -272 26 -337 19z m315 -449 c97 -25 275 -116 346 -177 220
-190 326 -436 311 -718 -7 -122 -33 -224 -84 -324 -198 -397 -635 -581 -1054
-447 -136 44 -237 107 -345 215 -107 107 -170 207 -216 346 -31 91 -32 102
-32 255 -1 182 10 235 75 375 124 264 374 447 674 494 58 9 261 -3 325 -19z
m-2246 -2265 c126 -32 228 -91 326 -190 137 -137 204 -290 205 -470 0 -91 -2
-99 -39 -175 -32 -64 -57 -98 -131 -170 -184 -181 -417 -289 -650 -302 -155
-8 -277 29 -384 115 -49 40 -138 155 -123 160 5 1 88 -29 184 -67 211 -84 273
-101 370 -101 152 0 283 55 393 165 112 112 166 237 168 389 1 138 -34 243
-118 354 -70 93 -153 146 -354 227 -122 49 -167 71 -154 76 40 16 229 9 307
-11z"/>
<path d="M3695 4136 c-244 -46 -437 -211 -528 -450 -30 -77 -32 -88 -32 -231
0 -138 2 -156 27 -223 40 -110 84 -178 174 -268 142 -143 323 -213 524 -201
179 10 329 77 454 203 83 82 136 168 173 279 24 70 27 96 27 210 0 116 -3 139
-28 210 -41 119 -80 181 -175 276 -132 132 -272 194 -456 204 -54 3 -118 -1
-160 -9z"/>
</g>
</svg>
