<svg xmlns="http://www.w3.org/2000/svg" width="682.7" height="682.7" viewBox="0 0 512 512"><path d="M371.5 37.6a131.6 131.6 0 0 0-83.3 39.8 126.7 126.7 0 0 0-36 79.3l-.7 9.3-40.2 57.4-40.2 57.3-13.3.6c-15.7.7-25.7 3-37.6 8.7a61 61 0 0 1-9.6 4c-.6 0-23-8.8-49.6-19.6L6.2 252.5 0 250.1l.2 61 .3 61.1 32.5 13 32.5 13 2.3 7.6a98.1 98.1 0 0 0 75.5 67.3c9 1.8 27.7 1.5 37.2-.6a96.8 96.8 0 0 0 75.3-76.8l1.7-8.7 62.5-45.5 62.5-45.5h6.1a130.2 130.2 0 0 0 84-36.5 129 129 0 0 0 3.5-181.7 131.9 131.9 0 0 0-70.9-38.3c-8.9-1.6-27.2-2.6-33.7-1.9M403 82.5c9.7 2.5 27.5 11.6 34.6 17.7 22 19 32.6 43.6 31.1 71.8a86.7 86.7 0 0 1-148.3 55.6 82 82 0 0 1-21.6-34.6c-3.1-9.1-3.2-10.2-3.2-25.5a68 68 0 0 1 7.5-37.5 88.6 88.6 0 0 1 67.4-49.4c5.8-.9 26.1.3 32.5 1.9M178.4 309a67.3 67.3 0 0 1 32.6 19 64.4 64.4 0 0 1 20.5 47 28 28 0 0 1-3.9 17.5 54 54 0 0 1-13.1 17 102.2 102.2 0 0 1-65 30.2 53.5 53.5 0 0 1-38.4-11.5c-4.9-4-13.8-15.5-12.3-16 .5-.1 8.8 2.9 18.4 6.7 21.1 8.4 27.3 10.1 37 10.1q22.8 0 39.3-16.5a53.4 53.4 0 0 0 16.8-38.9 53.7 53.7 0 0 0-11.8-35.4c-7-9.3-15.3-14.6-35.4-22.7-12.2-4.9-16.7-7.1-15.4-7.6 4-1.6 22.9-.9 30.7 1.1"/><path d="M369.5 98.4a69.8 69.8 0 0 0-52.8 45c-3 7.7-3.2 8.8-3.2 23.1 0 13.8.2 15.6 2.7 22.3 4 11 8.4 17.8 17.4 26.8a66.4 66.4 0 0 0 52.4 20.1c17.9-1 32.9-7.7 45.4-20.3a67 67 0 0 0 17.3-27.9c2.4-7 2.7-9.6 2.7-21 0-11.6-.3-13.9-2.8-21a62 62 0 0 0-17.5-27.6 65.2 65.2 0 0 0-45.6-20.4c-5.4-.3-11.8.1-16 .9"/></svg>