<svg xmlns="http://www.w3.org/2000/svg" width="172" height="198" fill="none" viewBox="0 0 172 198"><path fill="#000" stroke="#000" stroke-width="3" d="M132.2 90.6a67 67 0 0 0-1.7-.8c-1-13.4-5-24.2-12.3-31.7a41.3 41.3 0 0 0-30.6-11.9h-.4A42 42 0 0 0 51 65l-.9 1.2 1.3.8L65 76.5l1.3.8.8-1.2a23 23 0 0 1 20.1-10h.2c8 .1 13.8 2.4 17.4 6.7A25 25 0 0 1 110 84c-6.9-1-14.2-1.3-22-.9a47 47 0 0 0-29.2 11 31 31 0 0 0-10.3 25.2A31.3 31.3 0 0 0 63 144.3l.9-1.3-.9 1.3a43.9 43.9 0 0 0 26.5 6.6c12.8-.7 23-5.6 30.2-14.7 5-6.4 8.2-14.4 9.8-24.3 4.8 3.2 8.2 7.3 10.3 12 3.9 9.2 4.2 24.3-8.3 36.7-11 11-24.1 15.8-44.4 16-22.5-.2-39.2-7.4-50-21.2-10.3-13-15.7-32-15.9-56.4.2-24.5 5.6-43.4 15.8-56.4l-1.2-1 1.2 1c10.9-13.8 27.6-21 50.1-21.2 22.7.2 39.7 7.4 51 21.3a69.5 69.5 0 0 1 12.6 25.6l.4 1.5 1.4-.4 16.2-4.3 1.4-.4-.4-1.5c-3.5-12.8-9-24-16.5-33.2-15.2-18.8-37.5-28.3-66-28.5h-.2c-28.4.2-50.4 9.8-65.3 28.7l1.2.9-1.2-1C8.4 47 1.7 70.2 1.5 99v.1c.2 29 7 52.1 20.1 68.8 14.9 19 37 28.5 65.3 28.7h.2c25.2-.2 43.2-6.8 58-21.6a53.4 53.4 0 0 0 12.5-59 50.6 50.6 0 0 0-25.4-25.3ZM88.4 131c-5 .3-10-.7-13.8-2.9a11.8 11.8 0 0 1-6.5-9.8c-.2-3.3 1-6.8 4.2-9.6 3.1-2.8 8.5-5 16.9-5.6a100 100 0 0 1 5.7-.1c5.6 0 10.9.5 15.7 1.4-1 11.4-4.3 17.8-8.2 21.4-4 3.8-9 5-14 5.2Z"/></svg>