<svg width="172" height="198" viewBox="0 0 172 198" fill="none" xmlns="http://www.w3.org/2000/svg">
<path d="M132.186 90.6359L132.185 90.6357C131.616 90.3629 131.042 90.0972 130.461 89.8387C129.574 76.3703 125.412 65.577 118.212 58.0762C110.832 50.3873 100.421 46.3271 87.5715 46.245L87.5712 46.245C87.4522 46.2443 87.3347 46.2443 87.222 46.2443C71.7776 46.2443 58.8223 52.8577 50.8495 64.9553L50.0393 66.1847L51.2535 67.0176L65.0325 76.4697L66.2925 77.3341L67.1334 76.0583C72.4672 67.9658 80.8455 66.1848 87.2286 66.1848C87.3063 66.1848 87.3761 66.1848 87.4437 66.1854L87.448 66.1855C95.4177 66.2363 101.165 68.5446 104.824 72.7927C107.194 75.5446 108.931 79.2855 109.957 84.0509C103.119 83.0557 95.8063 82.7816 88.0591 83.2258L88.0587 83.2258C75.8883 83.9268 65.7523 87.8344 58.7661 94.1722C51.7552 100.532 48.0034 109.269 48.5417 119.372C49.0895 129.649 54.225 138.503 62.9486 144.263L63.775 143.011L62.9487 144.263C70.2965 149.113 79.7 151.451 89.4141 150.921L89.4144 150.921C102.241 150.218 112.44 145.299 119.561 136.222C124.56 129.85 127.806 121.785 129.422 111.886C134.159 115.149 137.647 119.208 139.668 123.923L139.668 123.923C143.596 133.082 143.862 148.236 131.441 160.647C120.476 171.601 107.293 176.408 87.0136 176.559C64.5375 176.39 47.7781 169.197 36.9171 155.39C26.6962 142.397 21.3079 123.489 21.1053 99C21.3079 74.5106 26.6962 55.6028 36.917 42.6101L35.7381 41.6827L36.917 42.6101C47.7781 28.8031 64.5371 21.6099 87.0132 21.4405C109.654 21.6112 126.727 28.8403 138.02 42.7341C143.575 49.5686 147.797 58.2064 150.591 68.3487L150.986 69.7832L152.424 69.3996L168.571 65.0915L170.026 64.7032L169.632 63.2495C166.144 50.3939 160.644 39.2723 153.129 30.0279C137.863 11.2463 115.567 1.69764 87.0799 1.50004V1.5H87.0695L86.9569 1.49996L86.9465 1.50004C58.5148 1.69697 36.4518 11.2839 21.6094 30.1519L22.7883 31.0793L21.6094 30.1519C8.43342 46.9016 1.72638 70.0923 1.50076 98.9189C1.50076 98.9195 1.50075 98.9202 1.50075 98.9208L1.50008 98.9844L1.49992 99L1.50008 99.0156L1.50075 99.0792C1.50075 99.0798 1.50076 99.0805 1.50076 99.0811C1.72638 127.907 8.43341 151.099 21.6094 167.848C36.4518 186.716 58.5148 196.303 86.9465 196.5H86.9569L87.0695 196.5L87.0799 196.5C112.343 196.325 130.347 189.69 145.178 174.872C164.655 155.414 164.083 130.98 157.639 115.95L157.639 115.95C152.991 105.116 144.154 96.3774 132.186 90.6359ZM88.3583 131.009L88.3561 131.009C83.3613 131.291 78.3435 130.301 74.5644 128.124C70.8233 125.969 68.3523 122.7 68.1175 118.292C67.9423 115.004 69.0999 111.517 72.2616 108.705C75.4493 105.87 80.7986 103.617 89.1675 103.134C91.1051 103.023 93.0053 102.968 94.871 102.968C100.505 102.968 105.79 103.47 110.63 104.429C109.53 115.752 106.309 122.16 102.405 125.83C98.3557 129.637 93.3225 130.737 88.3583 131.009Z" fill="black" stroke="black" stroke-width="3"/>
</svg>
