<svg xmlns="http://www.w3.org/2000/svg" width="682.7" height="682.7" viewBox="0 0 512 512"><path d="M265.2 1.7c-1.8.9-4.3 3-5.5 4.7l-2.2 3.1-.5 173-.5 173-2.3 6.5a60 60 0 0 1-39.8 37.6 65.6 65.6 0 0 1-29.9 0 59.3 59.3 0 0 1-39.6-38.6 55 55 0 0 1 15-57.1 53.7 53.7 0 0 1 37-16.8c8.8-1 11.7-2.4 15.5-7.5 2-2.7 2.1-3.9 2.1-47.4 0-41.6-.1-44.9-1.8-47.7-4-6.4-5.7-7-21.2-6.9-15.5.2-27.6 2.2-43.7 7.4A169 169 0 0 0 41 290.9a166.4 166.4 0 0 0 22.2 150.6 215 215 0 0 0 39.3 39.3 167.3 167.3 0 0 0 258.9-92.9c5.4-20.2 5.6-24 5.6-109.8 0-43.5.2-79.1.4-79.1l10.2 4.6a211.8 211.8 0 0 0 89.8 19c4.8-.9 10.3-5.8 11.6-10.4.6-2.2 1-20.1 1-45.2 0-41.1 0-41.6-2.3-46-3.2-6.4-6.5-7.9-19.9-9a92 92 0 0 1-35.3-9.5c-10.4-5-17.4-10-26.4-18.8a96.8 96.8 0 0 1-28.5-62c-1.4-14.1-2.6-16.8-8.7-19.9C355.8.2 351.5 0 312 0c-38 0-43.9.2-46.8 1.7"/></svg>