<svg xmlns="http://www.w3.org/2000/svg" width="682.7" height="682.7" viewBox="0 0 512 512"><path d="M233 1A260 260 0 0 0 98 54.8 294.9 294.9 0 0 0 38.6 121a348.8 348.8 0 0 0-23 47.1 297.2 297.2 0 0 0-12.8 50.4c-3.1 20-3.1 55 0 75 4.3 27.3 11.4 50 23.7 75 13.2 26.9 26.9 46 48.9 68.1 22.1 22 41.2 35.7 68.1 48.9a252.4 252.4 0 0 0 74.5 23.7c19.5 3.1 56.5 3.1 76 0a252.4 252.4 0 0 0 74.5-23.7c26.9-13.2 46-26.9 68.1-48.9 22-22.1 35.7-41.2 48.9-68.1 12.3-25 19.4-47.7 23.7-75 3.1-20 3.1-55 0-75-4.3-27.3-11.4-50-23.7-75a237.4 237.4 0 0 0-48.9-68.1 237.4 237.4 0 0 0-68.1-48.9 248.5 248.5 0 0 0-74-23.5A344 344 0 0 0 233 1m30.3 166.4c1.8.8 34.6 32.8 77.9 76.2 82.7 83 78.6 78.2 75.7 88.7a21.6 21.6 0 0 1-10.6 12.3 21.7 21.7 0 0 1-14 .4c-1.6-.6-32.3-30.6-69.5-67.8L256 210.5l-66.7 66.7c-37.3 37.2-68 67.2-69.6 67.8a21.7 21.7 0 0 1-14-.4c-4.3-1.7-9.3-7.6-10.6-12.3s-1.3-4.9 0-9.8c.9-3.4 11.4-14.4 75.7-78.8 41.1-41.2 76.1-75.5 77.7-76.3a21.5 21.5 0 0 1 14.8 0"/></svg>