<svg xmlns="http://www.w3.org/2000/svg" width="682.7" height="682.7" viewBox="0 0 512 512"><path d="M334.6 59a98.6 98.6 0 0 0-75.8 56.6 77.7 77.7 0 0 0-8.2 38.9c-.1 8.2.3 17.2.7 19.9l.9 4.8-7.9-.6a279.4 279.4 0 0 1-145.8-55.3c-9-6.7-18.6-15.2-31.3-27.9L48.9 77.1 47 80.3a99.1 99.1 0 0 0 28.4 124.3l3.9 3-7.9-.8c-9.7-1-17.5-3.1-27.7-7.5-4.3-1.8-8.1-3.3-8.4-3.3-1 0 .7 15.3 2.7 23.5a97.6 97.6 0 0 0 42.3 59.6 102 102 0 0 0 27.8 12.6c5.2 1 4.1 2.1-3.2 3.3-8.1 1.4-24.2 1.7-30.8.5-4.2-.7-4.3-.6-3.6 1.6a98.6 98.6 0 0 0 83.3 65.5c3.9.4 6.9 1.1 6.6 1.5a212.7 212.7 0 0 1-33.9 20.9 190.9 190.9 0 0 1-91.8 19.9 123 123 0 0 0-16.9.2 277.8 277.8 0 0 0 92.7 37.2c21.7 4.5 29.5 5.2 58.5 5.1 31.6 0 45.2-1.6 71.4-8.4A269 269 0 0 0 415 297.6a286 286 0 0 0 31.7-123.4l.6-19.2 8.6-6.9a202 202 0 0 0 38.8-42.7c-.2-.2-3.7 1-7.9 2.6a221 221 0 0 1-46.8 11.5 98.3 98.3 0 0 0 36.4-39.9c7.4-14.9 7.7-14.5-7.6-7.1a206 206 0 0 1-41 15l-7.8 1.7-7-6.4a97.4 97.4 0 0 0-41.8-21.9c-8.9-2.3-27.7-3.3-36.6-1.9"/></svg>