<?xml version="1.0" standalone="no"?>
<!DOCTYPE svg PUBLIC "-//W3C//DTD SVG 20010904//EN"
 "http://www.w3.org/TR/2001/REC-SVG-20010904/DTD/svg10.dtd">
<svg version="1.0" xmlns="http://www.w3.org/2000/svg"
 width="512.000000pt" height="512.000000pt" viewBox="0 0 512.000000 512.000000"
 preserveAspectRatio="xMidYMid meet">

<g transform="translate(0.000000,512.000000) scale(0.100000,-0.100000)"
fill="#000000" stroke="none">
<path d="M2460 5114 c-19 -2 -78 -9 -130 -15 -361 -41 -737 -179 -1052 -386
-609 -400 -1009 -1039 -1103 -1762 -19 -143 -21 -439 -6 -576 32 -278 106
-546 217 -784 l44 -94 -212 -601 c-189 -538 -211 -608 -212 -667 -1 -56 3 -72
29 -115 40 -63 108 -106 178 -112 47 -3 109 16 668 212 l616 216 87 -41 c903
-423 1978 -261 2719 409 358 324 616 750 737 1218 177 683 52 1416 -338 1998
-398 593 -1000 972 -1717 1082 -95 14 -451 27 -525 18z m-460 -1164 c62 -31
429 -396 465 -462 37 -67 44 -155 20 -229 -14 -42 -36 -72 -107 -145 l-89 -92
56 -92 c146 -236 349 -439 585 -585 l92 -56 92 89 c73 71 103 93 145 107 74
24 162 17 229 -20 66 -36 431 -403 462 -465 34 -67 38 -159 10 -235 -20 -54
-41 -78 -194 -231 -176 -176 -228 -215 -318 -240 -65 -18 -211 -20 -296 -4
-237 43 -533 197 -842 436 -148 114 -470 436 -584 584 -398 514 -538 952 -394
1235 12 22 100 119 197 216 150 150 184 180 231 198 72 28 175 24 240 -9z"/>
<path d="M1733 3538 c-169 -170 -174 -181 -150 -320 48 -278 289 -660 632
-1003 343 -343 725 -584 1003 -632 139 -24 150 -19 320 150 l142 142 -157 157
c-87 87 -162 158 -167 158 -5 0 -51 -40 -101 -90 -103 -101 -144 -123 -227
-122 -49 0 -70 7 -145 48 -361 195 -662 496 -857 857 -41 75 -48 96 -48 145
-1 83 21 124 122 227 50 50 90 96 90 101 0 5 -71 80 -158 167 l-157 157 -142
-142z"/>
</g>
</svg>
