<svg xmlns="http://www.w3.org/2000/svg" width="682.7" height="682.7" viewBox="0 0 512 512"><path d="m246 .6-13 1.5A248.3 248.3 0 0 0 17.5 216.9a326.5 326.5 0 0 0-.6 57.6 255.7 255.7 0 0 0 21.7 78.4l4.4 9.4-21.2 60.1C2.9 476.2.7 483.2.6 489.1c-.1 5.6.3 7.2 2.9 11.5 4 6.3 10.8 10.6 17.8 11.2 4.7.3 10.9-1.6 66.8-21.2l61.6-21.6 8.7 4.1A248.8 248.8 0 0 0 504 310.4a248.5 248.5 0 0 0-205.5-308C289 1 253.4-.3 246 .6M200 117c6.2 3.1 42.9 39.6 46.5 46.2a29.8 29.8 0 0 1 2 22.9c-1.4 4.2-3.6 7.2-10.7 14.5l-8.9 9.2 5.6 9.2a181.6 181.6 0 0 0 58.5 58.5l9.2 5.6 9.2-8.9c7.3-7.1 10.3-9.3 14.5-10.7a29.8 29.8 0 0 1 22.9 2c6.6 3.6 43.1 40.3 46.2 46.5a30.7 30.7 0 0 1 1 23.5c-2 5.4-4.1 7.8-19.4 23.1-17.6 17.6-22.8 21.5-31.8 24-6.5 1.8-21.1 2-29.6.4-23.7-4.3-53.3-19.7-84.2-43.6a473.8 473.8 0 0 1-58.4-58.4c-39.8-51.4-53.8-95.2-39.4-123.5 1.2-2.2 10-11.9 19.7-21.6 15-15 18.4-18 23.1-19.8a32.5 32.5 0 0 1 24 .9"/><path d="M173.3 158.2c-16.9 17-17.4 18.1-15 32 4.8 27.8 28.9 66 63.2 100.3s72.5 58.4 100.3 63.2c13.9 2.4 15 1.9 32-15l14.2-14.2-15.7-15.7c-8.7-8.7-16.2-15.8-16.7-15.8s-5.1 4-10.1 9c-10.3 10.1-14.4 12.3-22.7 12.2-4.9 0-7-.7-14.5-4.8a213 213 0 0 1-85.7-85.7c-4.1-7.5-4.8-9.6-4.8-14.5-.1-8.3 2.1-12.4 12.2-22.7 5-5 9-9.6 9-10.1s-7.1-8-15.8-16.7L187.5 144z"/></svg>