<svg width="205" height="214" viewBox="0 0 205 214" fill="none" xmlns="http://www.w3.org/2000/svg">
<mask id="mask0_1_40" style="mask-type:alpha" maskUnits="userSpaceOnUse" x="0" y="0" width="205" height="214">
<path d="M110.605 94.3648V167.019H94.3648V94.3648L0 0V213.689H204.97V0L110.605 94.3648Z" fill="black"/>
</mask>
<g mask="url(#mask0_1_40)">
<path d="M102.485 166.848C134.255 166.848 160.01 141.093 160.01 109.323C160.01 77.5529 134.255 51.7981 102.485 51.7981C70.7149 51.7981 44.9601 77.5529 44.9601 109.323C44.9601 141.093 70.7149 166.848 102.485 166.848Z" fill="black"/>
<path d="M102.485 191.422C147.827 191.422 184.584 154.665 184.584 109.323C184.584 63.9809 147.827 27.2239 102.485 27.2239C57.1429 27.2239 20.3859 63.9809 20.3859 109.323C20.3859 154.665 57.1429 191.422 102.485 191.422Z" stroke="black" stroke-width="23.164"/>
</g>
<path d="M102.485 75.9876C119.904 75.9876 134.025 61.8665 134.025 44.4472C134.025 27.0279 119.904 12.9068 102.485 12.9068C85.0657 12.9068 70.9446 27.0279 70.9446 44.4472C70.9446 61.8665 85.0657 75.9876 102.485 75.9876Z" fill="black"/>
</svg>
