<svg xmlns="http://www.w3.org/2000/svg" width="682.7" height="682.7" viewBox="0 0 512 512"><path d="M9.6 75C2.2 77.3 0 82 0 95.8c0 9.7.3 11.3 2.3 14.3 3.7 5.6 7.6 6.9 20.3 6.9h11L57 172.7 126.5 338a6858 6858 0 0 1 22.7 54.9c4.9 12.4 10 24.6 11.4 27.3 9 17.8 25.1 22.2 38.2 10.3 2.2-2 5.5-5.8 7.2-8.5 3.8-5.9 18.4-36.8 36.7-77.5 7.4-16.5 13.8-30.4 14.2-30.8s3.6 6.1 7.1 14.5c12.5 30.3 35.3 83.4 38.2 89.3 4.4 8.7 9 13.9 15 16.9 5.7 2.8 9.2 3.2 15.3 1.5 5.3-1.4 14.4-10.7 18.5-18.8 1.7-3.4 28-68.6 58.6-144.9 30.5-76.3 56.2-140.3 57.2-142.2.9-1.9 3.8-5.6 6.4-8.2l4.7-4.8h11.3c12.9 0 16.8-1.3 20.5-6.9 2.1-3 2.3-4.6 2.3-14.5 0-12.2-1.2-15.7-6.7-19.3-2.5-1.7-6.5-1.8-59.8-1.8-54.1 0-57.2.1-60.1 1.9-5.5 3.3-6.4 6.1-6.4 19.3 0 9.8.3 12.3 1.9 14.6 3.7 5.7 5.3 6.2 22.2 6.7l15.5.5-40.1 105.1-41 107.3c-.9 1.8-4.5-5.7-23.1-47.6l-22.2-49.7 29.2-57.8 29.1-57.7 7-.1c8.3 0 12.9-2 16.2-6.9 2.1-3 2.3-4.6 2.3-14.5 0-9.2-.3-11.6-2-14.3-4.2-7-2.6-6.8-51-6.8-43.4 0-43.5 0-46.6 2.2-5 3.6-6.4 7.7-6.4 19 0 15.9 3.6 20.5 16.6 21.1 4 .2 7.4.5 7.4.6 0 1.3-25.9 57.7-26.5 57.7-.4 0-6.5-13-13.5-28.8l-12.8-28.8 3.9-.8c2.4-.5 5.3-2.2 7.4-4.2 4-4.1 5-8.6 4.3-20.8-.5-8.8-1.9-12.2-6.6-15.4-2.5-1.7-5.9-1.8-48.7-1.8h-46l-3.3 2.3c-5.2 3.8-6.2 6.7-6.2 19 0 9.7.3 11.3 2.3 14.3 3.2 4.8 7.9 6.9 15.7 6.9h6.6l12.9 27.7 31.1 68 18.2 40.2-18.1 39.6a538.4 538.4 0 0 1-18.7 38.8c-.8-.9-40.7-95-58-136.8-9-21.6-18.2-44.3-30.7-76.2-.3-.8 3.5-1.2 13.4-1.5 20.5-.5 22.3-2.2 22.3-21.3 0-13-.9-15.8-6.4-19.1-2.9-1.8-6.3-1.9-63.6-2.1-33.3-.1-61.8.2-63.4.7"/></svg>