<svg xmlns="http://www.w3.org/2000/svg" width="205" height="214" fill="none" viewBox="0 0 205 214"><mask id="a" width="205" height="214" x="0" y="0" maskUnits="userSpaceOnUse" style="mask-type:alpha"><path fill="#000" d="M110.6 94.4V167H94.4V94.4L0 0v213.7h205V0z"/></mask><g mask="url(#a)"><path fill="#000" d="M102.5 166.8a57.5 57.5 0 1 0 0-115 57.5 57.5 0 0 0 0 115"/><path stroke="#000" stroke-width="23.2" d="M102.5 191.4a82.1 82.1 0 1 0 0-164.2 82.1 82.1 0 0 0 0 164.2Z"/></g><path fill="#000" d="M102.5 76a31.5 31.5 0 1 0 0-63 31.5 31.5 0 0 0 0 63"/></svg>