<?xml version="1.0" standalone="no"?>
<!DOCTYPE svg PUBLIC "-//W3C//DTD SVG 20010904//EN"
 "http://www.w3.org/TR/2001/REC-SVG-20010904/DTD/svg10.dtd">
<svg version="1.0" xmlns="http://www.w3.org/2000/svg"
 width="512.000000pt" height="512.000000pt" viewBox="0 0 512.000000 512.000000"
 preserveAspectRatio="xMidYMid meet">

<g transform="translate(0.000000,512.000000) scale(0.100000,-0.100000)"
fill="#000000" stroke="none">
<path d="M96 4370 c-74 -23 -96 -70 -96 -208 0 -97 3 -113 23 -143 37 -56 76
-69 203 -69 l110 0 234 -557 c316 -753 530 -1263 695 -1653 75 -179 177 -426
227 -549 49 -124 100 -246 114 -273 90 -178 251 -222 382 -103 22 20 55 58 72
85 38 59 184 368 367 775 74 165 138 304 142 308 4 4 36 -61 71 -145 125 -303
353 -834 382 -893 44 -87 90 -139 150 -169 57 -28 92 -32 153 -15 53 14 144
107 185 188 17 34 280 686 586 1449 305 763 562 1403 572 1422 9 19 38 56 64
82 l47 48 113 0 c129 0 168 13 205 69 21 30 23 46 23 145 0 122 -12 157 -67
193 -25 17 -65 18 -598 18 -541 0 -572 -1 -601 -19 -55 -33 -64 -61 -64 -193
0 -98 3 -123 19 -146 37 -57 53 -62 222 -67 l155 -5 -401 -1051 c-220 -578
-405 -1061 -410 -1073 -9 -18 -45 57 -231 476 l-222 497 292 578 291 577 70 1
c83 0 129 20 162 69 21 30 23 46 23 145 0 92 -3 116 -20 143 -42 70 -26 68
-510 68 -434 0 -435 0 -466 -22 -50 -36 -64 -77 -64 -190 0 -159 36 -205 166
-211 40 -2 74 -5 74 -6 0 -13 -259 -577 -265 -577 -4 0 -65 130 -135 288
l-128 288 39 8 c24 5 53 22 74 42 40 41 50 86 43 208 -5 88 -19 122 -66 154
-25 17 -59 18 -487 18 l-460 0 -33 -23 c-52 -38 -62 -67 -62 -190 0 -97 3
-113 23 -143 32 -48 79 -69 157 -69 l66 0 129 -277 c71 -153 211 -459 311
-680 l182 -402 -181 -396 c-99 -217 -184 -392 -187 -388 -8 9 -407 950 -580
1368 -90 216 -182 443 -307 762 -3 8 35 12 134 15 205 5 223 22 223 213 0 130
-9 158 -64 191 -29 18 -63 19 -636 21 -333 1 -618 -2 -634 -7z"/>
</g>
</svg>
