<svg xmlns="http://www.w3.org/2000/svg" width="202" height="202" fill="none" viewBox="0 0 202 202"><path fill="#000" d="M90.7 201.1c-15.6-1.5-31.3-7-44.8-15.9-11.3-7.3-13.8-10.4-13.8-16.4 0-12.2 13.4-33.5 36.2-57.7 13-13.8 31.1-30 33-29.5 3.9.8 34.3 30.5 45.7 44.4 18 22.1 26.2 40.2 22 48.3-3.2 6-23 18-37.6 22.7-12 3.7-27.7 5.4-40.7 4.1m-73.9-45a104.5 104.5 0 0 1-16.4-49c-.8-6.9-.5-10.7 1.7-24.6a100.5 100.5 0 0 1 24.5-49.8c5-5.2 5.5-5.4 11.6-3.3 7.5 2.6 15.5 8 27.9 19.3l7.2 6.5-4 4.9a312.7 312.7 0 0 0-44.9 74c-4 10.8-5.5 21.6-3.8 26 1.1 3.1 0 2-3.8-4zm165 2.5c.9-4.5-.3-12.9-3-21.2-6-18.2-26-52-44.2-75l-5.8-7.3 6.2-5.7c8.2-7.5 13.8-12 20-15.7 4.7-3 11.6-5.7 14.6-5.7 1.8 0 8.2 6.7 13.4 14 8 11.2 13.9 24.8 16.9 39 1.9 9.2 2 28.8.3 38-1.5 7.5-4.6 17.2-7.6 23.8-2.3 5-7.9 14.6-10.3 17.7-1.3 1.6-1.3 1.6-.6-1.9zm-89.5-134C84 20.3 71 15.7 63.7 14.5c-2.5-.5-6.8-.7-9.6-.6-6 .3-5.7 0 3.9-4.5 7.9-3.7 14.5-6 23.4-7.8 10.1-2.1 29-2.1 39 0 10.7 2.2 23.3 7 30.4 11.3l2.1 1.3-4.8-.3a88.1 88.1 0 0 0-38.8 10.8c-4.5 2.2-8.5 4-8.7 4l-8.3-4.1z"/></svg>