<svg xmlns="http://www.w3.org/2000/svg" width="682.7" height="682.7" viewBox="0 0 512 512"><path d="M205.5 84.1c-80.9 1.5-128.4 5.2-143.3 11.2a62.6 62.6 0 0 0-31.5 28.5C22 140.3 17.4 176.5 16.3 237c-.8 48.3 1.8 92.2 7.3 120 5.9 30.3 22.2 47.6 50.3 53.5 25.6 5.4 93.5 8.6 182.6 8.5 91 0 155.8-3 183-8.5a72 72 0 0 0 28.1-13.9 65.7 65.7 0 0 0 16.8-25.2c8-23.6 12.9-92.3 10.7-149.3-3-77.4-9.3-101.7-30.6-117.8a62.3 62.3 0 0 0-31.8-12.8c-18.8-3.2-64-6-111.7-7-55.8-1.1-75.8-1.2-115.5-.4M270 215.3a1580 1580 0 0 1 61.2 36.2c-.1.8-121.6 71.5-122.9 71.5-.1 0-.3-32.2-.3-71.5s.2-71.5.4-71.5l61.6 35.3"/></svg>